G04 #@! TF.GenerationSoftware,KiCad,Pcbnew,(6.0.11)*
G04 #@! TF.CreationDate,2023-09-27T15:25:24-05:00*
G04 #@! TF.ProjectId,MB,4d422e6b-6963-4616-945f-706362585858,rev?*
G04 #@! TF.SameCoordinates,Original*
G04 #@! TF.FileFunction,Legend,Bot*
G04 #@! TF.FilePolarity,Positive*
%FSLAX46Y46*%
G04 Gerber Fmt 4.6, Leading zero omitted, Abs format (unit mm)*
G04 Created by KiCad (PCBNEW (6.0.11)) date 2023-09-27 15:25:24*
%MOMM*%
%LPD*%
G01*
G04 APERTURE LIST*
G04 Aperture macros list*
%AMRoundRect*
0 Rectangle with rounded corners*
0 $1 Rounding radius*
0 $2 $3 $4 $5 $6 $7 $8 $9 X,Y pos of 4 corners*
0 Add a 4 corners polygon primitive as box body*
4,1,4,$2,$3,$4,$5,$6,$7,$8,$9,$2,$3,0*
0 Add four circle primitives for the rounded corners*
1,1,$1+$1,$2,$3*
1,1,$1+$1,$4,$5*
1,1,$1+$1,$6,$7*
1,1,$1+$1,$8,$9*
0 Add four rect primitives between the rounded corners*
20,1,$1+$1,$2,$3,$4,$5,0*
20,1,$1+$1,$4,$5,$6,$7,0*
20,1,$1+$1,$6,$7,$8,$9,0*
20,1,$1+$1,$8,$9,$2,$3,0*%
G04 Aperture macros list end*
%ADD10C,1.500000*%
%ADD11C,1.800000*%
%ADD12RoundRect,0.249999X1.550001X-0.790001X1.550001X0.790001X-1.550001X0.790001X-1.550001X-0.790001X0*%
%ADD13O,3.600000X2.080000*%
%ADD14C,3.200000*%
%ADD15RoundRect,0.249999X-1.550001X0.790001X-1.550001X-0.790001X1.550001X-0.790001X1.550001X0.790001X0*%
%ADD16R,1.680000X1.680000*%
%ADD17C,1.680000*%
%ADD18R,1.700000X1.700000*%
%ADD19O,1.700000X1.700000*%
%ADD20C,0.604000*%
G04 APERTURE END LIST*
%LPC*%
D10*
X114681000Y-167558800D03*
X112141000Y-167558800D03*
D11*
X101981000Y-167558800D03*
X96901000Y-167558800D03*
D12*
X184759600Y-115570000D03*
D13*
X184759600Y-110490000D03*
D14*
X181838600Y-233146600D03*
D10*
X160939800Y-162615800D03*
X163479800Y-162615800D03*
D11*
X173639800Y-162615800D03*
X178719800Y-162615800D03*
D15*
X90779600Y-183235600D03*
D13*
X90779600Y-188315600D03*
D10*
X160939800Y-85023000D03*
X163479800Y-85023000D03*
D11*
X173639800Y-85023000D03*
X178719800Y-85023000D03*
D15*
X90779600Y-213807000D03*
D13*
X90779600Y-218887000D03*
D12*
X184759600Y-84963000D03*
D13*
X184759600Y-79883000D03*
D12*
X184759600Y-146685000D03*
D13*
X184759600Y-141605000D03*
D10*
X114681000Y-91958200D03*
X112141000Y-91958200D03*
D11*
X101981000Y-91958200D03*
X96901000Y-91958200D03*
D10*
X114681000Y-106680000D03*
X112141000Y-106680000D03*
D11*
X101981000Y-106680000D03*
X96901000Y-106680000D03*
D12*
X184759600Y-162560000D03*
D13*
X184759600Y-157480000D03*
D15*
X90779600Y-152400000D03*
D13*
X90779600Y-157480000D03*
D10*
X160939800Y-100462000D03*
X163479800Y-100462000D03*
D11*
X173639800Y-100462000D03*
X178719800Y-100462000D03*
D10*
X160939800Y-194340400D03*
X163479800Y-194340400D03*
D11*
X173639800Y-194340400D03*
X178719800Y-194340400D03*
D12*
X184759600Y-194310000D03*
D13*
X184759600Y-189230000D03*
D10*
X114706400Y-152410200D03*
X112166400Y-152410200D03*
D11*
X102006400Y-152410200D03*
X96926400Y-152410200D03*
D10*
X160939800Y-130723600D03*
X163479800Y-130723600D03*
D11*
X173639800Y-130723600D03*
X178719800Y-130723600D03*
D12*
X184759600Y-69824400D03*
D13*
X184759600Y-64744400D03*
D10*
X160775200Y-115636000D03*
X163315200Y-115636000D03*
D11*
X173475200Y-115636000D03*
X178555200Y-115636000D03*
D12*
X184759600Y-100482400D03*
D13*
X184759600Y-95402400D03*
D16*
X176835000Y-204770000D03*
D17*
X174295000Y-204770000D03*
X171755000Y-204770000D03*
X169215000Y-204770000D03*
X166675000Y-204770000D03*
X164135000Y-204770000D03*
D16*
X176835000Y-225090000D03*
D17*
X174295000Y-225090000D03*
X171755000Y-225090000D03*
X169215000Y-225090000D03*
X166675000Y-225090000D03*
X164135000Y-225090000D03*
D10*
X160939800Y-178424800D03*
X163479800Y-178424800D03*
D11*
X173639800Y-178424800D03*
X178719800Y-178424800D03*
D15*
X90779600Y-137160000D03*
D13*
X90779600Y-142240000D03*
D14*
X181838600Y-54940200D03*
D10*
X114681000Y-183195000D03*
X112141000Y-183195000D03*
D11*
X101981000Y-183195000D03*
X96901000Y-183195000D03*
D10*
X114681000Y-213675000D03*
X112141000Y-213675000D03*
D11*
X101981000Y-213675000D03*
X96901000Y-213675000D03*
D18*
X138683600Y-190083200D03*
D19*
X138683600Y-192623200D03*
X138683600Y-195163200D03*
D10*
X114681000Y-198435000D03*
X112141000Y-198435000D03*
D11*
X101981000Y-198435000D03*
X96901000Y-198435000D03*
D14*
X93395800Y-54940200D03*
D10*
X160655000Y-69535000D03*
X163195000Y-69535000D03*
D11*
X173355000Y-69535000D03*
X178435000Y-69535000D03*
D20*
X123645400Y-70038200D03*
X123645400Y-72638200D03*
X123645400Y-68738200D03*
X124945400Y-70038200D03*
X124945400Y-72638200D03*
X124945400Y-68738200D03*
X123645400Y-71338200D03*
X124945400Y-71338200D03*
D18*
X137693400Y-137383600D03*
D19*
X137693400Y-139923600D03*
D15*
X90779600Y-91948000D03*
D13*
X90779600Y-97028000D03*
D15*
X90779600Y-106837400D03*
D13*
X90779600Y-111917400D03*
D15*
X90779600Y-121920000D03*
D13*
X90779600Y-127000000D03*
D15*
X90779600Y-198424800D03*
D13*
X90779600Y-203504800D03*
D14*
X93395800Y-233146600D03*
D15*
X90779600Y-167640000D03*
D13*
X90779600Y-172720000D03*
D10*
X114706400Y-122016600D03*
X112166400Y-122016600D03*
D11*
X102006400Y-122016600D03*
X96926400Y-122016600D03*
D10*
X160939800Y-146740800D03*
X163479800Y-146740800D03*
D11*
X173639800Y-146740800D03*
X178719800Y-146740800D03*
D15*
X90779600Y-73761600D03*
D13*
X90779600Y-78841600D03*
D12*
X184759600Y-130810000D03*
D13*
X184759600Y-125730000D03*
D18*
X91479600Y-65054400D03*
D19*
X91479600Y-62514400D03*
D12*
X184759600Y-178435000D03*
D13*
X184759600Y-173355000D03*
D10*
X114706400Y-137078800D03*
X112166400Y-137078800D03*
D11*
X102006400Y-137078800D03*
X96926400Y-137078800D03*
M02*
