G04 #@! TF.GenerationSoftware,KiCad,Pcbnew,(6.0.11)*
G04 #@! TF.CreationDate,2023-09-27T15:25:24-05:00*
G04 #@! TF.ProjectId,MB,4d422e6b-6963-4616-945f-706362585858,rev?*
G04 #@! TF.SameCoordinates,Original*
G04 #@! TF.FileFunction,Copper,L4,Bot*
G04 #@! TF.FilePolarity,Positive*
%FSLAX46Y46*%
G04 Gerber Fmt 4.6, Leading zero omitted, Abs format (unit mm)*
G04 Created by KiCad (PCBNEW (6.0.11)) date 2023-09-27 15:25:24*
%MOMM*%
%LPD*%
G01*
G04 APERTURE LIST*
G04 Aperture macros list*
%AMRoundRect*
0 Rectangle with rounded corners*
0 $1 Rounding radius*
0 $2 $3 $4 $5 $6 $7 $8 $9 X,Y pos of 4 corners*
0 Add a 4 corners polygon primitive as box body*
4,1,4,$2,$3,$4,$5,$6,$7,$8,$9,$2,$3,0*
0 Add four circle primitives for the rounded corners*
1,1,$1+$1,$2,$3*
1,1,$1+$1,$4,$5*
1,1,$1+$1,$6,$7*
1,1,$1+$1,$8,$9*
0 Add four rect primitives between the rounded corners*
20,1,$1+$1,$2,$3,$4,$5,0*
20,1,$1+$1,$4,$5,$6,$7,0*
20,1,$1+$1,$6,$7,$8,$9,0*
20,1,$1+$1,$8,$9,$2,$3,0*%
G04 Aperture macros list end*
G04 #@! TA.AperFunction,ComponentPad*
%ADD10C,1.500000*%
G04 #@! TD*
G04 #@! TA.AperFunction,ComponentPad*
%ADD11C,1.800000*%
G04 #@! TD*
G04 #@! TA.AperFunction,ComponentPad*
%ADD12RoundRect,0.249999X1.550001X-0.790001X1.550001X0.790001X-1.550001X0.790001X-1.550001X-0.790001X0*%
G04 #@! TD*
G04 #@! TA.AperFunction,ComponentPad*
%ADD13O,3.600000X2.080000*%
G04 #@! TD*
G04 #@! TA.AperFunction,ComponentPad*
%ADD14RoundRect,0.249999X-1.550001X0.790001X-1.550001X-0.790001X1.550001X-0.790001X1.550001X0.790001X0*%
G04 #@! TD*
G04 #@! TA.AperFunction,ComponentPad*
%ADD15R,1.680000X1.680000*%
G04 #@! TD*
G04 #@! TA.AperFunction,ComponentPad*
%ADD16C,1.680000*%
G04 #@! TD*
G04 #@! TA.AperFunction,ComponentPad*
%ADD17R,1.700000X1.700000*%
G04 #@! TD*
G04 #@! TA.AperFunction,ComponentPad*
%ADD18O,1.700000X1.700000*%
G04 #@! TD*
G04 #@! TA.AperFunction,ComponentPad*
%ADD19C,0.400000*%
G04 #@! TD*
G04 #@! TA.AperFunction,ViaPad*
%ADD20C,0.700000*%
G04 #@! TD*
G04 #@! TA.AperFunction,ViaPad*
%ADD21C,1.400000*%
G04 #@! TD*
G04 #@! TA.AperFunction,ViaPad*
%ADD22C,0.550000*%
G04 #@! TD*
G04 #@! TA.AperFunction,ViaPad*
%ADD23C,1.000000*%
G04 #@! TD*
G04 #@! TA.AperFunction,Conductor*
%ADD24C,0.500000*%
G04 #@! TD*
G04 #@! TA.AperFunction,Conductor*
%ADD25C,0.700000*%
G04 #@! TD*
G04 #@! TA.AperFunction,Conductor*
%ADD26C,0.300000*%
G04 #@! TD*
G04 APERTURE END LIST*
D10*
X114681000Y-167558800D03*
X112141000Y-167558800D03*
D11*
X101981000Y-167558800D03*
X96901000Y-167558800D03*
D12*
X184759600Y-115570000D03*
D13*
X184759600Y-110490000D03*
D10*
X160939800Y-162615800D03*
X163479800Y-162615800D03*
D11*
X173639800Y-162615800D03*
X178719800Y-162615800D03*
D14*
X90779600Y-183235600D03*
D13*
X90779600Y-188315600D03*
D10*
X160939800Y-85023000D03*
X163479800Y-85023000D03*
D11*
X173639800Y-85023000D03*
X178719800Y-85023000D03*
D14*
X90779600Y-213807000D03*
D13*
X90779600Y-218887000D03*
D12*
X184759600Y-84963000D03*
D13*
X184759600Y-79883000D03*
D12*
X184759600Y-146685000D03*
D13*
X184759600Y-141605000D03*
D10*
X114681000Y-91958200D03*
X112141000Y-91958200D03*
D11*
X101981000Y-91958200D03*
X96901000Y-91958200D03*
D10*
X114681000Y-106680000D03*
X112141000Y-106680000D03*
D11*
X101981000Y-106680000D03*
X96901000Y-106680000D03*
D12*
X184759600Y-162560000D03*
D13*
X184759600Y-157480000D03*
D14*
X90779600Y-152400000D03*
D13*
X90779600Y-157480000D03*
D10*
X160939800Y-100462000D03*
X163479800Y-100462000D03*
D11*
X173639800Y-100462000D03*
X178719800Y-100462000D03*
D10*
X160939800Y-194340400D03*
X163479800Y-194340400D03*
D11*
X173639800Y-194340400D03*
X178719800Y-194340400D03*
D12*
X184759600Y-194310000D03*
D13*
X184759600Y-189230000D03*
D10*
X114706400Y-152410200D03*
X112166400Y-152410200D03*
D11*
X102006400Y-152410200D03*
X96926400Y-152410200D03*
D10*
X160939800Y-130723600D03*
X163479800Y-130723600D03*
D11*
X173639800Y-130723600D03*
X178719800Y-130723600D03*
D12*
X184759600Y-69824400D03*
D13*
X184759600Y-64744400D03*
D10*
X160775200Y-115636000D03*
X163315200Y-115636000D03*
D11*
X173475200Y-115636000D03*
X178555200Y-115636000D03*
D12*
X184759600Y-100482400D03*
D13*
X184759600Y-95402400D03*
D15*
X176835000Y-204770000D03*
D16*
X174295000Y-204770000D03*
X171755000Y-204770000D03*
X169215000Y-204770000D03*
X166675000Y-204770000D03*
X164135000Y-204770000D03*
D15*
X176835000Y-225090000D03*
D16*
X174295000Y-225090000D03*
X171755000Y-225090000D03*
X169215000Y-225090000D03*
X166675000Y-225090000D03*
X164135000Y-225090000D03*
D10*
X160939800Y-178424800D03*
X163479800Y-178424800D03*
D11*
X173639800Y-178424800D03*
X178719800Y-178424800D03*
D14*
X90779600Y-137160000D03*
D13*
X90779600Y-142240000D03*
D10*
X114681000Y-183195000D03*
X112141000Y-183195000D03*
D11*
X101981000Y-183195000D03*
X96901000Y-183195000D03*
D10*
X114681000Y-213675000D03*
X112141000Y-213675000D03*
D11*
X101981000Y-213675000D03*
X96901000Y-213675000D03*
D17*
X138683600Y-190083200D03*
D18*
X138683600Y-192623200D03*
X138683600Y-195163200D03*
D10*
X114681000Y-198435000D03*
X112141000Y-198435000D03*
D11*
X101981000Y-198435000D03*
X96901000Y-198435000D03*
D10*
X160655000Y-69535000D03*
X163195000Y-69535000D03*
D11*
X173355000Y-69535000D03*
X178435000Y-69535000D03*
D19*
X123645400Y-70038200D03*
X123645400Y-72638200D03*
X123645400Y-68738200D03*
X124945400Y-70038200D03*
X124945400Y-72638200D03*
X124945400Y-68738200D03*
X123645400Y-71338200D03*
X124945400Y-71338200D03*
D17*
X137693400Y-137383600D03*
D18*
X137693400Y-139923600D03*
D14*
X90779600Y-91948000D03*
D13*
X90779600Y-97028000D03*
D14*
X90779600Y-106837400D03*
D13*
X90779600Y-111917400D03*
D14*
X90779600Y-121920000D03*
D13*
X90779600Y-127000000D03*
D14*
X90779600Y-198424800D03*
D13*
X90779600Y-203504800D03*
D14*
X90779600Y-167640000D03*
D13*
X90779600Y-172720000D03*
D10*
X114706400Y-122016600D03*
X112166400Y-122016600D03*
D11*
X102006400Y-122016600D03*
X96926400Y-122016600D03*
D10*
X160939800Y-146740800D03*
X163479800Y-146740800D03*
D11*
X173639800Y-146740800D03*
X178719800Y-146740800D03*
D14*
X90779600Y-73761600D03*
D13*
X90779600Y-78841600D03*
D12*
X184759600Y-130810000D03*
D13*
X184759600Y-125730000D03*
D17*
X91479600Y-65054400D03*
D18*
X91479600Y-62514400D03*
D12*
X184759600Y-178435000D03*
D13*
X184759600Y-173355000D03*
D10*
X114706400Y-137078800D03*
X112166400Y-137078800D03*
D11*
X102006400Y-137078800D03*
X96926400Y-137078800D03*
D20*
X110210600Y-229184200D03*
X110210600Y-227838000D03*
X175260000Y-236220000D03*
X175260000Y-233680000D03*
X172720000Y-233680000D03*
X172720000Y-236220000D03*
X170180000Y-236220000D03*
X170180000Y-233680000D03*
X167640000Y-233680000D03*
X167640000Y-236220000D03*
X165100000Y-236220000D03*
X165100000Y-233680000D03*
X162560000Y-233680000D03*
X160020000Y-236220000D03*
X160020000Y-233680000D03*
X162560000Y-236220000D03*
X157480000Y-236220000D03*
X157480000Y-233680000D03*
X154940000Y-233680000D03*
X154940000Y-236220000D03*
X152400000Y-236220000D03*
X149860000Y-236220000D03*
X147320000Y-236220000D03*
X149860000Y-233680000D03*
X152400000Y-233680000D03*
X147320000Y-233680000D03*
X167640000Y-228600000D03*
X165100000Y-228600000D03*
X162560000Y-228600000D03*
X160020000Y-228600000D03*
X157480000Y-228600000D03*
X154940000Y-228600000D03*
X152400000Y-228600000D03*
X149860000Y-228600000D03*
X147320000Y-228600000D03*
X144780000Y-228600000D03*
X96520000Y-228600000D03*
X96520000Y-226060000D03*
X99060000Y-220980000D03*
X104140000Y-236220000D03*
X101600000Y-236220000D03*
X99060000Y-236220000D03*
X99060000Y-233680000D03*
X99060000Y-231140000D03*
X99060000Y-228600000D03*
X99060000Y-226060000D03*
X99060000Y-223520000D03*
X96520000Y-223520000D03*
X129540000Y-223520000D03*
X127000000Y-223520000D03*
X121920000Y-228600000D03*
X124460000Y-228600000D03*
X127000000Y-228600000D03*
X129540000Y-228600000D03*
X129540000Y-226060000D03*
X127000000Y-226060000D03*
X124460000Y-226060000D03*
X121920000Y-226060000D03*
X119380000Y-226060000D03*
X116840000Y-226060000D03*
X119380000Y-218440000D03*
X127000000Y-218440000D03*
X124460000Y-218440000D03*
X121920000Y-218440000D03*
X119380000Y-215900000D03*
X121920000Y-215900000D03*
X124460000Y-215900000D03*
X127000000Y-215900000D03*
X127000000Y-213360000D03*
X124460000Y-213360000D03*
X121920000Y-213360000D03*
X119380000Y-213360000D03*
X121920000Y-203200000D03*
X121920000Y-200660000D03*
X119380000Y-200660000D03*
X119380000Y-198120000D03*
X121920000Y-198120000D03*
X119380000Y-195580000D03*
X121920000Y-195580000D03*
X119380000Y-182880000D03*
X119380000Y-185420000D03*
X121920000Y-187960000D03*
X121920000Y-185420000D03*
X121920000Y-182880000D03*
X121920000Y-180340000D03*
X119380000Y-180340000D03*
X119380000Y-170180000D03*
X119380000Y-167640000D03*
X121920000Y-172720000D03*
X121920000Y-170180000D03*
X121920000Y-167640000D03*
X124460000Y-167640000D03*
X124460000Y-170180000D03*
X124460000Y-172720000D03*
X127000000Y-172720000D03*
X127000000Y-170180000D03*
X127000000Y-167640000D03*
X127000000Y-165100000D03*
X124460000Y-165100000D03*
X121920000Y-165100000D03*
X119380000Y-165100000D03*
X139700000Y-180340000D03*
X139700000Y-182880000D03*
X139700000Y-185420000D03*
X137160000Y-185420000D03*
X137160000Y-182880000D03*
X137160000Y-180340000D03*
X139700000Y-175260000D03*
X139700000Y-172720000D03*
X139700000Y-170180000D03*
X139700000Y-165100000D03*
X139700000Y-167640000D03*
X137160000Y-167640000D03*
X137160000Y-175260000D03*
X137160000Y-172720000D03*
X137160000Y-170180000D03*
X137160000Y-165100000D03*
X139700000Y-160020000D03*
X139700000Y-157480000D03*
X139700000Y-154940000D03*
X139700000Y-152400000D03*
X139700000Y-149860000D03*
X137160000Y-160020000D03*
X137160000Y-157480000D03*
X137160000Y-154940000D03*
X137160000Y-152400000D03*
X137160000Y-149860000D03*
X119380000Y-154940000D03*
X119380000Y-152400000D03*
X121920000Y-157480000D03*
X121920000Y-154940000D03*
X121920000Y-152400000D03*
X124460000Y-152400000D03*
X124460000Y-154940000D03*
X124460000Y-157480000D03*
X127000000Y-157480000D03*
X127000000Y-154940000D03*
X127000000Y-152400000D03*
X127000000Y-149860000D03*
X124460000Y-149860000D03*
X121920000Y-149860000D03*
X119380000Y-149860000D03*
X121920000Y-142240000D03*
X124460000Y-142240000D03*
X129540000Y-142240000D03*
X127000000Y-142240000D03*
X127000000Y-139700000D03*
X129540000Y-139700000D03*
X129540000Y-137160000D03*
X127000000Y-137160000D03*
X124460000Y-137160000D03*
X124460000Y-139700000D03*
X119380000Y-139700000D03*
X121920000Y-139700000D03*
X121920000Y-137160000D03*
X119380000Y-137160000D03*
X119380000Y-134620000D03*
X121920000Y-134620000D03*
X124460000Y-134620000D03*
X127000000Y-134620000D03*
X129540000Y-134620000D03*
X121920000Y-127000000D03*
X124460000Y-127000000D03*
X124460000Y-124460000D03*
X124460000Y-121920000D03*
X121920000Y-121920000D03*
X121920000Y-124460000D03*
X119380000Y-124460000D03*
X119380000Y-121920000D03*
X119380000Y-119380000D03*
X121920000Y-119380000D03*
X124460000Y-119380000D03*
X127000000Y-119380000D03*
X127000000Y-121920000D03*
X127000000Y-124460000D03*
X127000000Y-127000000D03*
X129540000Y-127000000D03*
X129540000Y-124460000D03*
X129540000Y-121920000D03*
X129540000Y-119380000D03*
X132080000Y-119380000D03*
X132080000Y-121920000D03*
X132080000Y-124460000D03*
X132080000Y-127000000D03*
X139700000Y-119380000D03*
X139700000Y-121920000D03*
X139700000Y-124460000D03*
X139700000Y-127000000D03*
X137160000Y-127000000D03*
X137160000Y-124460000D03*
X137160000Y-121920000D03*
X137160000Y-119380000D03*
X157480000Y-175260000D03*
X157480000Y-177800000D03*
X180340000Y-185420000D03*
X177800000Y-185420000D03*
X175260000Y-187960000D03*
X175260000Y-185420000D03*
X175260000Y-172720000D03*
X177800000Y-170180000D03*
X180340000Y-170180000D03*
X175260000Y-170180000D03*
X154940000Y-157480000D03*
X157480000Y-160020000D03*
X157480000Y-162560000D03*
X154940000Y-162560000D03*
X154940000Y-160020000D03*
X175260000Y-157480000D03*
X177800000Y-154940000D03*
X180340000Y-152400000D03*
X180340000Y-154940000D03*
X177800000Y-152400000D03*
X175260000Y-152400000D03*
X175260000Y-154940000D03*
X154940000Y-142240000D03*
X157480000Y-144780000D03*
X157480000Y-147320000D03*
X154940000Y-147320000D03*
X154940000Y-144780000D03*
X157480000Y-132080000D03*
X157480000Y-129540000D03*
X157480000Y-127000000D03*
X154940000Y-127000000D03*
X154940000Y-129540000D03*
X154940000Y-132080000D03*
X152400000Y-132080000D03*
X152400000Y-129540000D03*
X152400000Y-127000000D03*
X154940000Y-114300000D03*
X154940000Y-116840000D03*
X157480000Y-116840000D03*
X157480000Y-114300000D03*
X157480000Y-111760000D03*
X154940000Y-111760000D03*
X149860000Y-111760000D03*
X149860000Y-114300000D03*
X149860000Y-116840000D03*
X152400000Y-116840000D03*
X152400000Y-114300000D03*
X152400000Y-111760000D03*
X175260000Y-142240000D03*
X175260000Y-139700000D03*
X177800000Y-139700000D03*
X180340000Y-139700000D03*
X180340000Y-137160000D03*
X177800000Y-137160000D03*
X175260000Y-137160000D03*
X175260000Y-124460000D03*
X180340000Y-121920000D03*
X177800000Y-121920000D03*
X175260000Y-121920000D03*
X172720000Y-121920000D03*
X172720000Y-124460000D03*
X172720000Y-127000000D03*
X172720000Y-111760000D03*
X172720000Y-109220000D03*
X175260000Y-106680000D03*
X175260000Y-109220000D03*
X180340000Y-106680000D03*
X177800000Y-106680000D03*
X172720000Y-106680000D03*
X175260000Y-91440000D03*
X177800000Y-91440000D03*
X177800000Y-93980000D03*
X175260000Y-93980000D03*
X124460000Y-111760000D03*
X121920000Y-111760000D03*
X119380000Y-111760000D03*
X119380000Y-109220000D03*
X121920000Y-109220000D03*
X124460000Y-109220000D03*
X127000000Y-109220000D03*
X127000000Y-111760000D03*
X129540000Y-111760000D03*
X129540000Y-109220000D03*
X132080000Y-109220000D03*
X132080000Y-111760000D03*
X134620000Y-114300000D03*
X134620000Y-111760000D03*
X134620000Y-109220000D03*
X137160000Y-109220000D03*
X137160000Y-111760000D03*
X137160000Y-114300000D03*
X139700000Y-114300000D03*
X139700000Y-111760000D03*
X139700000Y-109220000D03*
X139700000Y-106680000D03*
X137160000Y-106680000D03*
X134620000Y-106680000D03*
X129540000Y-106680000D03*
X132080000Y-106680000D03*
X124460000Y-106680000D03*
X127000000Y-106680000D03*
X121920000Y-106680000D03*
X119380000Y-106680000D03*
X157480000Y-99060000D03*
X157480000Y-101600000D03*
X154940000Y-101600000D03*
X154940000Y-99060000D03*
X152400000Y-99060000D03*
X152400000Y-101600000D03*
X149860000Y-101600000D03*
X149860000Y-99060000D03*
X149860000Y-96520000D03*
X152400000Y-96520000D03*
X154940000Y-96520000D03*
X157480000Y-91440000D03*
X154940000Y-91440000D03*
X152400000Y-91440000D03*
X149860000Y-91440000D03*
X147320000Y-91440000D03*
X149860000Y-78740000D03*
X152400000Y-78740000D03*
X154940000Y-78740000D03*
X147320000Y-86360000D03*
X147320000Y-83820000D03*
X149860000Y-83820000D03*
X149860000Y-86360000D03*
X152400000Y-86360000D03*
X152400000Y-83820000D03*
X154940000Y-83820000D03*
X154940000Y-86360000D03*
X157480000Y-86360000D03*
X157480000Y-83820000D03*
X157480000Y-81280000D03*
X154940000Y-81280000D03*
X152400000Y-81280000D03*
X149860000Y-81280000D03*
X147320000Y-81280000D03*
X180340000Y-76200000D03*
X177800000Y-78740000D03*
X177800000Y-76200000D03*
X175260000Y-78740000D03*
X175260000Y-76200000D03*
X157480000Y-66040000D03*
X157480000Y-68580000D03*
X157480000Y-71120000D03*
X152400000Y-71120000D03*
X154940000Y-71120000D03*
X154940000Y-68580000D03*
X119380000Y-96520000D03*
X119380000Y-93980000D03*
X119380000Y-91440000D03*
X119380000Y-88900000D03*
X121920000Y-88900000D03*
X121920000Y-91440000D03*
X121920000Y-93980000D03*
X121920000Y-96520000D03*
X124460000Y-96520000D03*
X124460000Y-93980000D03*
X124460000Y-91440000D03*
X124460000Y-88900000D03*
X127000000Y-88900000D03*
X127000000Y-91440000D03*
X127000000Y-93980000D03*
X127000000Y-96520000D03*
X129540000Y-96520000D03*
X129540000Y-93980000D03*
X129540000Y-91440000D03*
X129540000Y-88900000D03*
X132080000Y-88900000D03*
X132080000Y-91440000D03*
X132080000Y-93980000D03*
X132080000Y-96520000D03*
X134620000Y-96520000D03*
X134620000Y-93980000D03*
X134620000Y-91440000D03*
X134620000Y-88900000D03*
X137160000Y-88900000D03*
X137160000Y-91440000D03*
X137160000Y-93980000D03*
X137160000Y-96520000D03*
X139700000Y-96520000D03*
X139700000Y-93980000D03*
X139700000Y-91440000D03*
X139700000Y-88900000D03*
X147320000Y-68580000D03*
X147320000Y-66040000D03*
X106680000Y-86360000D03*
X109220000Y-86360000D03*
X101600000Y-71120000D03*
X142240000Y-76200000D03*
X142240000Y-78740000D03*
X142240000Y-81280000D03*
X142240000Y-83820000D03*
X139700000Y-83820000D03*
X139700000Y-76200000D03*
X142240000Y-73660000D03*
X139700000Y-73660000D03*
X137160000Y-73660000D03*
X137160000Y-71120000D03*
X134620000Y-71120000D03*
X134620000Y-68580000D03*
X137160000Y-68580000D03*
X139700000Y-68580000D03*
X139700000Y-71120000D03*
X142240000Y-71120000D03*
X142240000Y-68580000D03*
X142240000Y-66040000D03*
X137160000Y-66040000D03*
X139700000Y-66040000D03*
X134620000Y-66040000D03*
X180340000Y-60960000D03*
X177800000Y-60960000D03*
X175260000Y-63500000D03*
X175260000Y-60960000D03*
X154940000Y-60960000D03*
X149860000Y-66040000D03*
X149860000Y-63500000D03*
X152400000Y-63500000D03*
X152400000Y-60960000D03*
X149860000Y-60960000D03*
X172720000Y-55880000D03*
X170180000Y-55880000D03*
X167640000Y-55880000D03*
X165100000Y-55880000D03*
X162560000Y-55880000D03*
X160020000Y-55880000D03*
X157480000Y-55880000D03*
X154940000Y-55880000D03*
X152400000Y-55880000D03*
X149860000Y-55880000D03*
X144780000Y-55880000D03*
X147320000Y-55880000D03*
X147320000Y-53340000D03*
X144780000Y-53340000D03*
X149860000Y-53340000D03*
X152400000Y-53340000D03*
X154940000Y-53340000D03*
X157480000Y-53340000D03*
X160020000Y-53340000D03*
X162560000Y-53340000D03*
X165100000Y-53340000D03*
X167640000Y-53340000D03*
X170180000Y-53340000D03*
X172720000Y-53340000D03*
X175260000Y-53340000D03*
X175260000Y-55880000D03*
X175260000Y-58420000D03*
X172720000Y-58420000D03*
X170180000Y-58420000D03*
X167640000Y-58420000D03*
X165100000Y-58420000D03*
X162560000Y-58420000D03*
X160020000Y-58420000D03*
X157480000Y-58420000D03*
X154940000Y-58420000D03*
X152400000Y-58420000D03*
X149860000Y-58420000D03*
X147320000Y-58420000D03*
X144780000Y-58420000D03*
X142240000Y-58420000D03*
X139700000Y-58420000D03*
X137160000Y-58420000D03*
X124460000Y-58420000D03*
X127000000Y-58420000D03*
X129540000Y-58420000D03*
X132080000Y-58420000D03*
X134620000Y-58420000D03*
X134620000Y-55880000D03*
X129540000Y-55880000D03*
X124460000Y-55880000D03*
X127000000Y-55880000D03*
X132080000Y-55880000D03*
X137160000Y-55880000D03*
X139700000Y-55880000D03*
X139700000Y-53340000D03*
X142240000Y-53340000D03*
X142240000Y-55880000D03*
X137160000Y-53340000D03*
X134620000Y-53340000D03*
X132080000Y-53340000D03*
X129540000Y-53340000D03*
X127000000Y-53340000D03*
X124460000Y-53340000D03*
X111760000Y-53340000D03*
X109220000Y-53340000D03*
X106680000Y-53340000D03*
X104140000Y-53340000D03*
X101600000Y-53340000D03*
X99060000Y-53340000D03*
X99060000Y-58420000D03*
X101600000Y-58420000D03*
X104140000Y-58420000D03*
X106680000Y-58420000D03*
X109220000Y-58420000D03*
X111760000Y-58420000D03*
X111760000Y-55880000D03*
X109220000Y-55880000D03*
X106680000Y-55880000D03*
X104140000Y-55880000D03*
X101600000Y-55880000D03*
X99060000Y-55880000D03*
X145008600Y-204012800D03*
D21*
X138201400Y-80035400D03*
D20*
X108839000Y-227838000D03*
D22*
X126746000Y-66294000D03*
D20*
X154025600Y-204343000D03*
D22*
X122936000Y-67310000D03*
D20*
X157835600Y-189433200D03*
D23*
X113575600Y-72034400D03*
D20*
X156591000Y-123977400D03*
X156819600Y-156387800D03*
D22*
X122936000Y-65278000D03*
D20*
X139852400Y-208534000D03*
D22*
X122936000Y-66294000D03*
D20*
X118985800Y-204483200D03*
X137312400Y-233527600D03*
X108839000Y-229209600D03*
X149758400Y-201447400D03*
X157099000Y-140741400D03*
X157353000Y-79070200D03*
X157302200Y-172466000D03*
D22*
X148564600Y-210896200D03*
X144805400Y-212471000D03*
D20*
X118821200Y-128117600D03*
D22*
X139649200Y-218922600D03*
X125476000Y-65278000D03*
D20*
X108839000Y-226568000D03*
X176834800Y-206552800D03*
X176834800Y-223291400D03*
D23*
X121767600Y-54279800D03*
D20*
X119761000Y-189560200D03*
D22*
X128016000Y-67310000D03*
D20*
X132613400Y-213156800D03*
X117881400Y-97713800D03*
X118338600Y-113258600D03*
D22*
X150571200Y-216484200D03*
X126746000Y-67310000D03*
D20*
X137693400Y-134645400D03*
X157530800Y-64185800D03*
D22*
X136753600Y-221589600D03*
D23*
X99212400Y-69088000D03*
D22*
X126746000Y-65278000D03*
D21*
X145923000Y-62026800D03*
D20*
X156845000Y-109474000D03*
D22*
X124206000Y-66294000D03*
D20*
X136067800Y-192608200D03*
X98501200Y-85852000D03*
X157734000Y-94996000D03*
X129260600Y-208457800D03*
X108839000Y-230632000D03*
D22*
X139623800Y-225247200D03*
X138049000Y-212852000D03*
D20*
X118795800Y-142697200D03*
D22*
X124206000Y-67310000D03*
D21*
X98171000Y-77800200D03*
D20*
X143281400Y-208965800D03*
D22*
X124206000Y-65278000D03*
D20*
X136931400Y-201218800D03*
X120751600Y-220497400D03*
X171932600Y-230886000D03*
D22*
X125476000Y-67310000D03*
D20*
X119507000Y-173786800D03*
X110210600Y-226568000D03*
D22*
X125476000Y-66294000D03*
D20*
X119151400Y-158064200D03*
X140309600Y-203581000D03*
D21*
X144373600Y-63042800D03*
D20*
X136931400Y-200050400D03*
X143789400Y-212445600D03*
X139598400Y-224256600D03*
X131445000Y-213131400D03*
X150749000Y-202057000D03*
X170992800Y-230301800D03*
X154863800Y-205155800D03*
X149275800Y-210185000D03*
D24*
X137693400Y-137383600D02*
X137693400Y-134645400D01*
D25*
X145034000Y-181711600D02*
X145034000Y-181584600D01*
X144373600Y-166573200D02*
X144373600Y-167233600D01*
X143764000Y-130987800D02*
X144373600Y-131597400D01*
X143738600Y-147142200D02*
X143738600Y-147040600D01*
X125704600Y-178079400D02*
X125704600Y-178765200D01*
X112141000Y-105003600D02*
X112141000Y-106680000D01*
X144373600Y-116560600D02*
X144373600Y-117043200D01*
X144373600Y-74295000D02*
X144373600Y-85877400D01*
X144373600Y-162534600D02*
X144373600Y-163042600D01*
X145211800Y-104419400D02*
X144373600Y-103581200D01*
X143713200Y-102870000D02*
X144297400Y-102285800D01*
X144373600Y-118592600D02*
X144932400Y-119151400D01*
X112141000Y-212394800D02*
X112141000Y-213675000D01*
X145008600Y-134696200D02*
X144373600Y-135331200D01*
X144373600Y-135331200D02*
X144373600Y-135458200D01*
X144373600Y-119684800D02*
X144373600Y-130276600D01*
X144373600Y-177190400D02*
X144373600Y-178079400D01*
X145008600Y-119151400D02*
X144907000Y-119151400D01*
X144297400Y-102285800D02*
X144373600Y-102285800D01*
X125704600Y-191084200D02*
X125704600Y-191617600D01*
X112141000Y-89611200D02*
X112141000Y-91958200D01*
X144373600Y-181711600D02*
X144373600Y-182626000D01*
X144373600Y-178587400D02*
X144373600Y-180924200D01*
X144373600Y-163372800D02*
X144373600Y-165582600D01*
X124968000Y-178079400D02*
X125653800Y-178765200D01*
X144373600Y-134696200D02*
X144373600Y-135458200D01*
X144373600Y-104521000D02*
X144373600Y-105486200D01*
X125704600Y-192379600D02*
X125704600Y-207111600D01*
X112166400Y-133654800D02*
X112166400Y-137078800D01*
X143764000Y-130987800D02*
X114833400Y-130987800D01*
X144373600Y-73355200D02*
X144373600Y-74295000D01*
X163479800Y-180309200D02*
X163479800Y-178424800D01*
X112141000Y-195199000D02*
X112141000Y-198435000D01*
X112141000Y-165303200D02*
X112141000Y-167558800D01*
X143865600Y-163042600D02*
X144195800Y-163372800D01*
X143687800Y-86791800D02*
X114960400Y-86791800D01*
X144373600Y-89763600D02*
X144373600Y-89941400D01*
X143814800Y-163042600D02*
X114401600Y-163042600D01*
X126339600Y-178079400D02*
X126441200Y-178079400D01*
X145034000Y-89103200D02*
X144373600Y-88442800D01*
X163479800Y-102864600D02*
X163479800Y-100462000D01*
X144373600Y-63042800D02*
X144373600Y-72517000D01*
X125653800Y-178765200D02*
X125704600Y-178765200D01*
X144373600Y-178079400D02*
X143840200Y-178079400D01*
X163479800Y-148660800D02*
X163479800Y-146740800D01*
X124968000Y-178079400D02*
X113995200Y-178079400D01*
X115722400Y-191617600D02*
X112141000Y-195199000D01*
X144373600Y-181711600D02*
X145034000Y-181711600D01*
X125704600Y-191617600D02*
X125704600Y-192379600D01*
X145211800Y-104521000D02*
X145211800Y-104419400D01*
X144373600Y-131597400D02*
X144373600Y-133654800D01*
X163479800Y-86811800D02*
X163479800Y-85105200D01*
X144373600Y-73355200D02*
X145161000Y-73355200D01*
D24*
X137693400Y-139923600D02*
X137693400Y-147091400D01*
D25*
X144373600Y-177546000D02*
X144373600Y-177190400D01*
X144373600Y-178079400D02*
X144373600Y-178587400D01*
X145034000Y-89103200D02*
X144373600Y-89763600D01*
X143687800Y-86791800D02*
X144373600Y-87477600D01*
X144907000Y-119151400D02*
X144373600Y-119684800D01*
X144373600Y-150368000D02*
X145110200Y-150368000D01*
X163315200Y-117253200D02*
X163315200Y-115636000D01*
X144373600Y-119151400D02*
X145008600Y-119151400D01*
X114401600Y-163042600D02*
X112141000Y-165303200D01*
X144957800Y-166573200D02*
X144957800Y-166649400D01*
X113995200Y-178079400D02*
X112141000Y-179933600D01*
X145211800Y-104648000D02*
X144373600Y-105486200D01*
X143840200Y-178079400D02*
X144373600Y-177546000D01*
X143764000Y-130987800D02*
X143764000Y-130886200D01*
X144373600Y-74142600D02*
X144373600Y-74295000D01*
X144373600Y-163042600D02*
X143814800Y-163042600D01*
X144373600Y-182372000D02*
X144373600Y-182626000D01*
X143764000Y-116560600D02*
X143891000Y-116560600D01*
X144221200Y-116103400D02*
X144373600Y-116103400D01*
X144373600Y-150368000D02*
X144373600Y-151003000D01*
X144373600Y-116103400D02*
X144373600Y-116560600D01*
X144373600Y-130276600D02*
X144373600Y-130987800D01*
X144373600Y-151003000D02*
X144373600Y-162534600D01*
X122555000Y-210261200D02*
X114274600Y-210261200D01*
X145008600Y-119151400D02*
X161417000Y-119151400D01*
X161417000Y-119151400D02*
X163315200Y-117253200D01*
X144373600Y-147142200D02*
X143738600Y-147142200D01*
X145034000Y-181711600D02*
X144373600Y-182372000D01*
X144475200Y-151003000D02*
X144373600Y-151003000D01*
X114630200Y-147142200D02*
X112166400Y-149606000D01*
X114274600Y-210261200D02*
X112141000Y-212394800D01*
X145110200Y-150368000D02*
X144475200Y-151003000D01*
X161645600Y-73355200D02*
X163195000Y-71805800D01*
X144373600Y-130987800D02*
X143764000Y-130987800D01*
X143738600Y-147040600D02*
X144373600Y-146405600D01*
X145034000Y-181584600D02*
X144373600Y-180924200D01*
X125704600Y-178765200D02*
X125704600Y-191084200D01*
X143840200Y-178079400D02*
X143865600Y-178079400D01*
X114833400Y-130987800D02*
X112166400Y-133654800D01*
X145110200Y-150368000D02*
X161772600Y-150368000D01*
X144373600Y-102870000D02*
X143713200Y-102870000D01*
X143687800Y-86791800D02*
X144373600Y-86106000D01*
X163195000Y-71805800D02*
X163195000Y-69535000D01*
X144373600Y-72567800D02*
X144373600Y-72517000D01*
X125704600Y-191617600D02*
X125018800Y-191617600D01*
X125018800Y-191617600D02*
X115722400Y-191617600D01*
X145161000Y-73355200D02*
X144373600Y-74142600D01*
X144957800Y-166573200D02*
X161950400Y-166573200D01*
X143764000Y-116560600D02*
X115443000Y-116560600D01*
X125018800Y-191617600D02*
X125018800Y-191693800D01*
X144373600Y-133654800D02*
X144373600Y-134061200D01*
X144373600Y-119151400D02*
X144373600Y-119684800D01*
X161772600Y-150368000D02*
X163479800Y-148660800D01*
X145211800Y-104521000D02*
X161823400Y-104521000D01*
X143713200Y-102870000D02*
X143713200Y-102920800D01*
X143814800Y-163042600D02*
X143865600Y-163042600D01*
X125704600Y-178079400D02*
X124968000Y-178079400D01*
X125653800Y-178765200D02*
X126339600Y-178079400D01*
X144373600Y-147777200D02*
X144373600Y-147802600D01*
X143891000Y-116560600D02*
X144373600Y-117043200D01*
X144373600Y-134061200D02*
X145008600Y-134696200D01*
X144373600Y-102870000D02*
X144373600Y-103581200D01*
X144373600Y-86791800D02*
X144373600Y-87503000D01*
X143764000Y-130886200D02*
X144373600Y-130276600D01*
X144373600Y-86791800D02*
X143687800Y-86791800D01*
X144373600Y-117043200D02*
X144373600Y-118592600D01*
X114960400Y-86791800D02*
X112141000Y-89611200D01*
X114274600Y-102870000D02*
X112141000Y-105003600D01*
X161950400Y-166573200D02*
X163479800Y-165043800D01*
X162077400Y-181711600D02*
X163479800Y-180309200D01*
X145161000Y-73355200D02*
X161645600Y-73355200D01*
X144399000Y-149656800D02*
X144373600Y-149656800D01*
X163479800Y-195625400D02*
X163479800Y-194340400D01*
X143865600Y-163042600D02*
X144373600Y-162534600D01*
X145034000Y-89103200D02*
X161188400Y-89103200D01*
X163479800Y-133065200D02*
X163479800Y-130723600D01*
X144373600Y-149656800D02*
X144373600Y-150368000D01*
X144373600Y-163042600D02*
X144373600Y-163372800D01*
X144957800Y-166573200D02*
X144373600Y-165989000D01*
X144373600Y-72517000D02*
X144373600Y-73355200D01*
X143865600Y-178079400D02*
X144373600Y-178587400D01*
X144373600Y-85877400D02*
X144373600Y-86791800D01*
X144373600Y-165582600D02*
X144373600Y-166573200D01*
X125018800Y-191617600D02*
X125552200Y-191084200D01*
X143840200Y-178079400D02*
X126441200Y-178079400D01*
X144373600Y-135458200D02*
X144373600Y-146405600D01*
X161188400Y-89103200D02*
X163479800Y-86811800D01*
X143738600Y-147142200D02*
X144373600Y-147777200D01*
X144932400Y-119151400D02*
X145008600Y-119151400D01*
X144373600Y-134696200D02*
X145008600Y-134696200D01*
X112166400Y-149606000D02*
X112166400Y-152410200D01*
X125018800Y-191693800D02*
X125704600Y-192379600D01*
X144373600Y-147802600D02*
X144373600Y-149656800D01*
X144373600Y-104521000D02*
X145211800Y-104521000D01*
X144373600Y-147142200D02*
X144373600Y-147802600D01*
X144373600Y-188823600D02*
X152425400Y-196875400D01*
X145008600Y-134696200D02*
X161848800Y-134696200D01*
X144373600Y-167233600D02*
X144373600Y-177190400D01*
X143764000Y-116560600D02*
X144221200Y-116103400D01*
X144373600Y-105486200D02*
X144373600Y-116103400D01*
X144373600Y-165989000D02*
X144373600Y-165582600D01*
X143713200Y-102870000D02*
X114274600Y-102870000D01*
X144195800Y-163372800D02*
X144373600Y-163372800D01*
D24*
X137693400Y-147091400D02*
X137744200Y-147142200D01*
D25*
X145211800Y-104521000D02*
X145211800Y-104648000D01*
X144373600Y-118592600D02*
X144373600Y-119151400D01*
X152425400Y-196875400D02*
X162229800Y-196875400D01*
X145034000Y-181711600D02*
X162077400Y-181711600D01*
X163479800Y-165043800D02*
X163479800Y-162615800D01*
X144373600Y-103581200D02*
X144373600Y-104521000D01*
X137744200Y-147142200D02*
X114630200Y-147142200D01*
X144373600Y-87477600D02*
X144373600Y-87503000D01*
X125552200Y-191084200D02*
X125704600Y-191084200D01*
X144373600Y-88442800D02*
X144373600Y-88366600D01*
X144373600Y-89103200D02*
X144373600Y-89941400D01*
X144373600Y-86106000D02*
X144373600Y-85877400D01*
X112141000Y-179933600D02*
X112141000Y-183195000D01*
X144373600Y-146405600D02*
X144373600Y-147142200D01*
X144373600Y-166573200D02*
X144957800Y-166573200D01*
X144373600Y-180924200D02*
X144373600Y-181711600D01*
X161823400Y-104521000D02*
X163479800Y-102864600D01*
X162229800Y-196875400D02*
X163479800Y-195625400D01*
X125704600Y-207111600D02*
X122555000Y-210261200D01*
X144373600Y-116560600D02*
X143764000Y-116560600D01*
X144373600Y-88366600D02*
X144373600Y-89103200D01*
X126441200Y-178079400D02*
X125704600Y-178079400D01*
X144373600Y-182626000D02*
X144373600Y-188823600D01*
X144373600Y-87503000D02*
X144373600Y-88366600D01*
X112166400Y-119837200D02*
X112166400Y-122016600D01*
X145110200Y-150368000D02*
X144399000Y-149656800D01*
X144373600Y-102285800D02*
X144373600Y-102870000D01*
X143713200Y-102920800D02*
X144373600Y-103581200D01*
X144373600Y-89103200D02*
X145034000Y-89103200D01*
X144373600Y-130987800D02*
X144373600Y-131597400D01*
X143738600Y-147142200D02*
X137744200Y-147142200D01*
X145161000Y-73355200D02*
X144373600Y-72567800D01*
X144373600Y-133654800D02*
X144373600Y-134696200D01*
X115443000Y-116560600D02*
X112166400Y-119837200D01*
X144957800Y-166649400D02*
X144373600Y-167233600D01*
X144373600Y-89941400D02*
X144373600Y-102285800D01*
X161848800Y-134696200D02*
X163479800Y-133065200D01*
D26*
X141859000Y-224256600D02*
X143789400Y-222326200D01*
X131826000Y-200050400D02*
X131470400Y-200050400D01*
X131927600Y-197967600D02*
X148742400Y-197967600D01*
X143789400Y-212445600D02*
X143789400Y-222326200D01*
X131445000Y-213131400D02*
X131445000Y-200380600D01*
X131445000Y-200380600D02*
X131445000Y-200075800D01*
X148742400Y-197967600D02*
X150749000Y-199974200D01*
X131470400Y-200050400D02*
X131445000Y-200075800D01*
X131445000Y-198450200D02*
X131927600Y-197967600D01*
X131445000Y-199618600D02*
X131445000Y-198450200D01*
X131775200Y-200050400D02*
X131826000Y-200050400D01*
X131826000Y-200050400D02*
X131445000Y-199669400D01*
X171755000Y-229539600D02*
X171755000Y-225090000D01*
X131445000Y-199669400D02*
X131445000Y-199618600D01*
X141859000Y-224256600D02*
X139598400Y-224256600D01*
X136931400Y-200050400D02*
X131826000Y-200050400D01*
X150749000Y-199974200D02*
X150749000Y-202057000D01*
X131445000Y-200075800D02*
X131445000Y-199618600D01*
X170992800Y-230301800D02*
X171755000Y-229539600D01*
X131445000Y-200380600D02*
X131775200Y-200050400D01*
X154863800Y-205155800D02*
X157657800Y-202361800D01*
X166675000Y-203174800D02*
X166675000Y-204770000D01*
X157657800Y-202361800D02*
X165862000Y-202361800D01*
X165862000Y-202361800D02*
X166675000Y-203174800D01*
X164388800Y-221716600D02*
X166675000Y-224002800D01*
X160807400Y-221716600D02*
X164388800Y-221716600D01*
X166675000Y-224002800D02*
X166675000Y-225090000D01*
X149275800Y-210185000D02*
X160807400Y-221716600D01*
M02*
