G04 #@! TF.GenerationSoftware,KiCad,Pcbnew,(6.0.11)*
G04 #@! TF.CreationDate,2023-09-27T15:25:24-05:00*
G04 #@! TF.ProjectId,MB,4d422e6b-6963-4616-945f-706362585858,rev?*
G04 #@! TF.SameCoordinates,Original*
G04 #@! TF.FileFunction,Legend,Top*
G04 #@! TF.FilePolarity,Positive*
%FSLAX46Y46*%
G04 Gerber Fmt 4.6, Leading zero omitted, Abs format (unit mm)*
G04 Created by KiCad (PCBNEW (6.0.11)) date 2023-09-27 15:25:24*
%MOMM*%
%LPD*%
G01*
G04 APERTURE LIST*
G04 Aperture macros list*
%AMRoundRect*
0 Rectangle with rounded corners*
0 $1 Rounding radius*
0 $2 $3 $4 $5 $6 $7 $8 $9 X,Y pos of 4 corners*
0 Add a 4 corners polygon primitive as box body*
4,1,4,$2,$3,$4,$5,$6,$7,$8,$9,$2,$3,0*
0 Add four circle primitives for the rounded corners*
1,1,$1+$1,$2,$3*
1,1,$1+$1,$4,$5*
1,1,$1+$1,$6,$7*
1,1,$1+$1,$8,$9*
0 Add four rect primitives between the rounded corners*
20,1,$1+$1,$2,$3,$4,$5,0*
20,1,$1+$1,$4,$5,$6,$7,0*
20,1,$1+$1,$6,$7,$8,$9,0*
20,1,$1+$1,$8,$9,$2,$3,0*%
G04 Aperture macros list end*
%ADD10C,0.375000*%
%ADD11C,0.250000*%
%ADD12C,0.175000*%
%ADD13C,0.100000*%
%ADD14C,0.120000*%
%ADD15C,0.127000*%
%ADD16C,0.200000*%
%ADD17C,0.010000*%
%ADD18C,1.500000*%
%ADD19C,1.800000*%
%ADD20RoundRect,0.250000X0.250000X0.475000X-0.250000X0.475000X-0.250000X-0.475000X0.250000X-0.475000X0*%
%ADD21C,2.000000*%
%ADD22RoundRect,0.200000X0.275000X-0.200000X0.275000X0.200000X-0.275000X0.200000X-0.275000X-0.200000X0*%
%ADD23RoundRect,0.249999X1.550001X-0.790001X1.550001X0.790001X-1.550001X0.790001X-1.550001X-0.790001X0*%
%ADD24O,3.600000X2.080000*%
%ADD25C,3.200000*%
%ADD26R,0.910000X1.220000*%
%ADD27RoundRect,0.249999X-1.550001X0.790001X-1.550001X-0.790001X1.550001X-0.790001X1.550001X0.790001X0*%
%ADD28RoundRect,0.150000X-0.150000X0.587500X-0.150000X-0.587500X0.150000X-0.587500X0.150000X0.587500X0*%
%ADD29RoundRect,0.200000X-0.200000X-0.275000X0.200000X-0.275000X0.200000X0.275000X-0.200000X0.275000X0*%
%ADD30RoundRect,0.150000X0.150000X-0.587500X0.150000X0.587500X-0.150000X0.587500X-0.150000X-0.587500X0*%
%ADD31RoundRect,0.200000X0.200000X0.275000X-0.200000X0.275000X-0.200000X-0.275000X0.200000X-0.275000X0*%
%ADD32RoundRect,0.218750X-0.256250X0.218750X-0.256250X-0.218750X0.256250X-0.218750X0.256250X0.218750X0*%
%ADD33RoundRect,0.225000X-0.225000X-0.250000X0.225000X-0.250000X0.225000X0.250000X-0.225000X0.250000X0*%
%ADD34RoundRect,0.135000X-0.185000X0.135000X-0.185000X-0.135000X0.185000X-0.135000X0.185000X0.135000X0*%
%ADD35RoundRect,0.218750X0.256250X-0.218750X0.256250X0.218750X-0.256250X0.218750X-0.256250X-0.218750X0*%
%ADD36RoundRect,0.140000X-0.140000X-0.170000X0.140000X-0.170000X0.140000X0.170000X-0.140000X0.170000X0*%
%ADD37RoundRect,0.140000X0.170000X-0.140000X0.170000X0.140000X-0.170000X0.140000X-0.170000X-0.140000X0*%
%ADD38R,2.000000X1.500000*%
%ADD39R,2.000000X3.800000*%
%ADD40RoundRect,0.250000X0.475000X-0.250000X0.475000X0.250000X-0.475000X0.250000X-0.475000X-0.250000X0*%
%ADD41RoundRect,0.200000X-0.275000X0.200000X-0.275000X-0.200000X0.275000X-0.200000X0.275000X0.200000X0*%
%ADD42R,1.200000X1.400000*%
%ADD43RoundRect,0.250000X0.312500X0.625000X-0.312500X0.625000X-0.312500X-0.625000X0.312500X-0.625000X0*%
%ADD44RoundRect,0.250000X-0.475000X0.250000X-0.475000X-0.250000X0.475000X-0.250000X0.475000X0.250000X0*%
%ADD45RoundRect,0.250000X-0.250000X-0.475000X0.250000X-0.475000X0.250000X0.475000X-0.250000X0.475000X0*%
%ADD46R,1.200000X0.900000*%
%ADD47RoundRect,0.225000X0.225000X0.250000X-0.225000X0.250000X-0.225000X-0.250000X0.225000X-0.250000X0*%
%ADD48RoundRect,0.075000X0.075000X-0.662500X0.075000X0.662500X-0.075000X0.662500X-0.075000X-0.662500X0*%
%ADD49RoundRect,0.075000X0.662500X-0.075000X0.662500X0.075000X-0.662500X0.075000X-0.662500X-0.075000X0*%
%ADD50R,1.680000X1.680000*%
%ADD51C,1.680000*%
%ADD52R,0.750000X1.000000*%
%ADD53RoundRect,0.140000X-0.170000X0.140000X-0.170000X-0.140000X0.170000X-0.140000X0.170000X0.140000X0*%
%ADD54R,1.220000X0.910000*%
%ADD55R,1.700000X1.700000*%
%ADD56O,1.700000X1.700000*%
%ADD57R,3.400000X2.150000*%
%ADD58RoundRect,0.250000X-1.412500X-0.550000X1.412500X-0.550000X1.412500X0.550000X-1.412500X0.550000X0*%
%ADD59RoundRect,0.225000X0.250000X-0.225000X0.250000X0.225000X-0.250000X0.225000X-0.250000X-0.225000X0*%
%ADD60C,0.604000*%
%ADD61RoundRect,0.250000X1.100000X-0.325000X1.100000X0.325000X-1.100000X0.325000X-1.100000X-0.325000X0*%
%ADD62RoundRect,0.150000X0.587500X0.150000X-0.587500X0.150000X-0.587500X-0.150000X0.587500X-0.150000X0*%
%ADD63RoundRect,0.140000X0.140000X0.170000X-0.140000X0.170000X-0.140000X-0.170000X0.140000X-0.170000X0*%
G04 APERTURE END LIST*
D10*
X153737428Y-172813728D02*
X152737428Y-172813728D01*
X154308857Y-172456585D02*
X153237428Y-172099442D01*
X153237428Y-173028014D01*
X153308857Y-173599442D02*
X153308857Y-174742299D01*
X154237428Y-175242299D02*
X154237428Y-176099442D01*
X152737428Y-175670871D02*
X154237428Y-175670871D01*
X153523142Y-176599442D02*
X153523142Y-177099442D01*
X152737428Y-177313728D02*
X152737428Y-176599442D01*
X154237428Y-176599442D01*
X154237428Y-177313728D01*
X152880285Y-178813728D02*
X152808857Y-178742299D01*
X152737428Y-178528014D01*
X152737428Y-178385156D01*
X152808857Y-178170871D01*
X152951714Y-178028014D01*
X153094571Y-177956585D01*
X153380285Y-177885156D01*
X153594571Y-177885156D01*
X153880285Y-177956585D01*
X154023142Y-178028014D01*
X154166000Y-178170871D01*
X154237428Y-178385156D01*
X154237428Y-178528014D01*
X154166000Y-178742299D01*
X154094571Y-178813728D01*
X152737428Y-179456585D02*
X154237428Y-179456585D01*
X153523142Y-179456585D02*
X153523142Y-180313728D01*
X152737428Y-180313728D02*
X154237428Y-180313728D01*
X154237428Y-181313728D02*
X154237428Y-181599442D01*
X154166000Y-181742299D01*
X154023142Y-181885156D01*
X153737428Y-181956585D01*
X153237428Y-181956585D01*
X152951714Y-181885156D01*
X152808857Y-181742299D01*
X152737428Y-181599442D01*
X152737428Y-181313728D01*
X152808857Y-181170871D01*
X152951714Y-181028014D01*
X153237428Y-180956585D01*
X153737428Y-180956585D01*
X154023142Y-181028014D01*
X154166000Y-181170871D01*
X154237428Y-181313728D01*
D11*
X153233380Y-222432380D02*
X152757190Y-222765714D01*
X153233380Y-223003809D02*
X152233380Y-223003809D01*
X152233380Y-222622857D01*
X152281000Y-222527619D01*
X152328619Y-222480000D01*
X152423857Y-222432380D01*
X152566714Y-222432380D01*
X152661952Y-222480000D01*
X152709571Y-222527619D01*
X152757190Y-222622857D01*
X152757190Y-223003809D01*
X152709571Y-222003809D02*
X152709571Y-221670476D01*
X153233380Y-221527619D02*
X153233380Y-222003809D01*
X152233380Y-222003809D01*
X152233380Y-221527619D01*
X153185761Y-221146666D02*
X153233380Y-221003809D01*
X153233380Y-220765714D01*
X153185761Y-220670476D01*
X153138142Y-220622857D01*
X153042904Y-220575238D01*
X152947666Y-220575238D01*
X152852428Y-220622857D01*
X152804809Y-220670476D01*
X152757190Y-220765714D01*
X152709571Y-220956190D01*
X152661952Y-221051428D01*
X152614333Y-221099047D01*
X152519095Y-221146666D01*
X152423857Y-221146666D01*
X152328619Y-221099047D01*
X152281000Y-221051428D01*
X152233380Y-220956190D01*
X152233380Y-220718095D01*
X152281000Y-220575238D01*
X152709571Y-220146666D02*
X152709571Y-219813333D01*
X153233380Y-219670476D02*
X153233380Y-220146666D01*
X152233380Y-220146666D01*
X152233380Y-219670476D01*
X152233380Y-219384761D02*
X152233380Y-218813333D01*
X153233380Y-219099047D02*
X152233380Y-219099047D01*
X141081286Y-195651380D02*
X141081286Y-194651380D01*
X141319381Y-194651380D01*
X141462238Y-194699000D01*
X141557476Y-194794238D01*
X141605096Y-194889476D01*
X141652715Y-195079952D01*
X141652715Y-195222809D01*
X141605096Y-195413285D01*
X141557476Y-195508523D01*
X141462238Y-195603761D01*
X141319381Y-195651380D01*
X141081286Y-195651380D01*
X142081286Y-195651380D02*
X142081286Y-194651380D01*
X142747953Y-194651380D02*
X142938429Y-194651380D01*
X143033667Y-194699000D01*
X143128905Y-194794238D01*
X143176524Y-194984714D01*
X143176524Y-195318047D01*
X143128905Y-195508523D01*
X143033667Y-195603761D01*
X142938429Y-195651380D01*
X142747953Y-195651380D01*
X142652715Y-195603761D01*
X142557476Y-195508523D01*
X142509857Y-195318047D01*
X142509857Y-194984714D01*
X142557476Y-194794238D01*
X142652715Y-194699000D01*
X142747953Y-194651380D01*
X141144809Y-232243380D02*
X141763857Y-232243380D01*
X141430523Y-232624333D01*
X141573380Y-232624333D01*
X141668619Y-232671952D01*
X141716238Y-232719571D01*
X141763857Y-232814809D01*
X141763857Y-233052904D01*
X141716238Y-233148142D01*
X141668619Y-233195761D01*
X141573380Y-233243380D01*
X141287666Y-233243380D01*
X141192428Y-233195761D01*
X141144809Y-233148142D01*
X142192428Y-233148142D02*
X142240047Y-233195761D01*
X142192428Y-233243380D01*
X142144809Y-233195761D01*
X142192428Y-233148142D01*
X142192428Y-233243380D01*
X142573380Y-232243380D02*
X143192428Y-232243380D01*
X142859095Y-232624333D01*
X143001952Y-232624333D01*
X143097190Y-232671952D01*
X143144809Y-232719571D01*
X143192428Y-232814809D01*
X143192428Y-233052904D01*
X143144809Y-233148142D01*
X143097190Y-233195761D01*
X143001952Y-233243380D01*
X142716238Y-233243380D01*
X142621000Y-233195761D01*
X142573380Y-233148142D01*
X143478142Y-232243380D02*
X143811476Y-233243380D01*
X144144809Y-232243380D01*
X140541476Y-139406380D02*
X140065286Y-139406380D01*
X140017667Y-139882571D01*
X140065286Y-139834952D01*
X140160524Y-139787333D01*
X140398619Y-139787333D01*
X140493857Y-139834952D01*
X140541476Y-139882571D01*
X140589095Y-139977809D01*
X140589095Y-140215904D01*
X140541476Y-140311142D01*
X140493857Y-140358761D01*
X140398619Y-140406380D01*
X140160524Y-140406380D01*
X140065286Y-140358761D01*
X140017667Y-140311142D01*
X140874810Y-139406380D02*
X141208143Y-140406380D01*
X141541476Y-139406380D01*
D10*
X154237428Y-190157899D02*
X154237428Y-189443613D01*
X153523142Y-189372185D01*
X153594571Y-189443613D01*
X153666000Y-189586470D01*
X153666000Y-189943613D01*
X153594571Y-190086470D01*
X153523142Y-190157899D01*
X153380285Y-190229327D01*
X153023142Y-190229327D01*
X152880285Y-190157899D01*
X152808857Y-190086470D01*
X152737428Y-189943613D01*
X152737428Y-189586470D01*
X152808857Y-189443613D01*
X152880285Y-189372185D01*
X153308857Y-190872185D02*
X153308857Y-192015042D01*
X152737428Y-192729327D02*
X154237428Y-192729327D01*
X153166000Y-193229327D01*
X154237428Y-193729327D01*
X152737428Y-193729327D01*
X153523142Y-194443613D02*
X153523142Y-194943613D01*
X152737428Y-195157899D02*
X152737428Y-194443613D01*
X154237428Y-194443613D01*
X154237428Y-195157899D01*
X152808857Y-195729327D02*
X152737428Y-195943613D01*
X152737428Y-196300756D01*
X152808857Y-196443613D01*
X152880285Y-196515042D01*
X153023142Y-196586470D01*
X153166000Y-196586470D01*
X153308857Y-196515042D01*
X153380285Y-196443613D01*
X153451714Y-196300756D01*
X153523142Y-196015042D01*
X153594571Y-195872185D01*
X153666000Y-195800756D01*
X153808857Y-195729327D01*
X153951714Y-195729327D01*
X154094571Y-195800756D01*
X154166000Y-195872185D01*
X154237428Y-196015042D01*
X154237428Y-196372185D01*
X154166000Y-196586470D01*
X153166000Y-197157899D02*
X153166000Y-197872185D01*
X152737428Y-197015042D02*
X154237428Y-197515042D01*
X152737428Y-198015042D01*
D11*
X136525095Y-232291000D02*
X136429857Y-232243380D01*
X136287000Y-232243380D01*
X136144142Y-232291000D01*
X136048904Y-232386238D01*
X136001285Y-232481476D01*
X135953666Y-232671952D01*
X135953666Y-232814809D01*
X136001285Y-233005285D01*
X136048904Y-233100523D01*
X136144142Y-233195761D01*
X136287000Y-233243380D01*
X136382238Y-233243380D01*
X136525095Y-233195761D01*
X136572714Y-233148142D01*
X136572714Y-232814809D01*
X136382238Y-232814809D01*
X137001285Y-233243380D02*
X137001285Y-232243380D01*
X137572714Y-233243380D01*
X137572714Y-232243380D01*
X138048904Y-233243380D02*
X138048904Y-232243380D01*
X138287000Y-232243380D01*
X138429857Y-232291000D01*
X138525095Y-232386238D01*
X138572714Y-232481476D01*
X138620333Y-232671952D01*
X138620333Y-232814809D01*
X138572714Y-233005285D01*
X138525095Y-233100523D01*
X138429857Y-233195761D01*
X138287000Y-233243380D01*
X138048904Y-233243380D01*
D10*
X123122428Y-148806985D02*
X123122428Y-149806985D01*
X121622428Y-149164127D01*
X122193857Y-150378413D02*
X122193857Y-151521270D01*
X123122428Y-152021270D02*
X123122428Y-152878413D01*
X121622428Y-152449842D02*
X123122428Y-152449842D01*
X122408142Y-153378413D02*
X122408142Y-153878413D01*
X121622428Y-154092699D02*
X121622428Y-153378413D01*
X123122428Y-153378413D01*
X123122428Y-154092699D01*
X121765285Y-155592699D02*
X121693857Y-155521270D01*
X121622428Y-155306985D01*
X121622428Y-155164127D01*
X121693857Y-154949842D01*
X121836714Y-154806985D01*
X121979571Y-154735556D01*
X122265285Y-154664127D01*
X122479571Y-154664127D01*
X122765285Y-154735556D01*
X122908142Y-154806985D01*
X123051000Y-154949842D01*
X123122428Y-155164127D01*
X123122428Y-155306985D01*
X123051000Y-155521270D01*
X122979571Y-155592699D01*
X121622428Y-156235556D02*
X123122428Y-156235556D01*
X122408142Y-156235556D02*
X122408142Y-157092699D01*
X121622428Y-157092699D02*
X123122428Y-157092699D01*
X123122428Y-158092699D02*
X123122428Y-158378413D01*
X123051000Y-158521270D01*
X122908142Y-158664127D01*
X122622428Y-158735556D01*
X122122428Y-158735556D01*
X121836714Y-158664127D01*
X121693857Y-158521270D01*
X121622428Y-158378413D01*
X121622428Y-158092699D01*
X121693857Y-157949842D01*
X121836714Y-157806985D01*
X122122428Y-157735556D01*
X122622428Y-157735556D01*
X122908142Y-157806985D01*
X123051000Y-157949842D01*
X123122428Y-158092699D01*
X122479571Y-164312728D02*
X122551000Y-164169871D01*
X122622428Y-164098442D01*
X122765285Y-164027014D01*
X122836714Y-164027014D01*
X122979571Y-164098442D01*
X123051000Y-164169871D01*
X123122428Y-164312728D01*
X123122428Y-164598442D01*
X123051000Y-164741299D01*
X122979571Y-164812728D01*
X122836714Y-164884156D01*
X122765285Y-164884156D01*
X122622428Y-164812728D01*
X122551000Y-164741299D01*
X122479571Y-164598442D01*
X122479571Y-164312728D01*
X122408142Y-164169871D01*
X122336714Y-164098442D01*
X122193857Y-164027014D01*
X121908142Y-164027014D01*
X121765285Y-164098442D01*
X121693857Y-164169871D01*
X121622428Y-164312728D01*
X121622428Y-164598442D01*
X121693857Y-164741299D01*
X121765285Y-164812728D01*
X121908142Y-164884156D01*
X122193857Y-164884156D01*
X122336714Y-164812728D01*
X122408142Y-164741299D01*
X122479571Y-164598442D01*
X122193857Y-165527014D02*
X122193857Y-166669871D01*
X121622428Y-167384156D02*
X123122428Y-167384156D01*
X122051000Y-167884156D01*
X123122428Y-168384156D01*
X121622428Y-168384156D01*
X122408142Y-169098442D02*
X122408142Y-169598442D01*
X121622428Y-169812728D02*
X121622428Y-169098442D01*
X123122428Y-169098442D01*
X123122428Y-169812728D01*
X121693857Y-170384156D02*
X121622428Y-170598442D01*
X121622428Y-170955585D01*
X121693857Y-171098442D01*
X121765285Y-171169871D01*
X121908142Y-171241299D01*
X122051000Y-171241299D01*
X122193857Y-171169871D01*
X122265285Y-171098442D01*
X122336714Y-170955585D01*
X122408142Y-170669871D01*
X122479571Y-170527014D01*
X122551000Y-170455585D01*
X122693857Y-170384156D01*
X122836714Y-170384156D01*
X122979571Y-170455585D01*
X123051000Y-170527014D01*
X123122428Y-170669871D01*
X123122428Y-171027014D01*
X123051000Y-171241299D01*
X122051000Y-171812728D02*
X122051000Y-172527014D01*
X121622428Y-171669871D02*
X123122428Y-172169871D01*
X121622428Y-172669871D01*
X154237428Y-140344014D02*
X154237428Y-141272585D01*
X153666000Y-140772585D01*
X153666000Y-140986871D01*
X153594571Y-141129728D01*
X153523142Y-141201156D01*
X153380285Y-141272585D01*
X153023142Y-141272585D01*
X152880285Y-141201156D01*
X152808857Y-141129728D01*
X152737428Y-140986871D01*
X152737428Y-140558299D01*
X152808857Y-140415442D01*
X152880285Y-140344014D01*
X153308857Y-141915442D02*
X153308857Y-143058299D01*
X154237428Y-143558299D02*
X154237428Y-144415442D01*
X152737428Y-143986871D02*
X154237428Y-143986871D01*
X153523142Y-144915442D02*
X153523142Y-145415442D01*
X152737428Y-145629728D02*
X152737428Y-144915442D01*
X154237428Y-144915442D01*
X154237428Y-145629728D01*
X152880285Y-147129728D02*
X152808857Y-147058299D01*
X152737428Y-146844014D01*
X152737428Y-146701156D01*
X152808857Y-146486871D01*
X152951714Y-146344014D01*
X153094571Y-146272585D01*
X153380285Y-146201156D01*
X153594571Y-146201156D01*
X153880285Y-146272585D01*
X154023142Y-146344014D01*
X154166000Y-146486871D01*
X154237428Y-146701156D01*
X154237428Y-146844014D01*
X154166000Y-147058299D01*
X154094571Y-147129728D01*
X152737428Y-147772585D02*
X154237428Y-147772585D01*
X153523142Y-147772585D02*
X153523142Y-148629728D01*
X152737428Y-148629728D02*
X154237428Y-148629728D01*
X154237428Y-149629728D02*
X154237428Y-149915442D01*
X154166000Y-150058299D01*
X154023142Y-150201156D01*
X153737428Y-150272585D01*
X153237428Y-150272585D01*
X152951714Y-150201156D01*
X152808857Y-150058299D01*
X152737428Y-149915442D01*
X152737428Y-149629728D01*
X152808857Y-149486871D01*
X152951714Y-149344014D01*
X153237428Y-149272585D01*
X153737428Y-149272585D01*
X154023142Y-149344014D01*
X154166000Y-149486871D01*
X154237428Y-149629728D01*
X123122428Y-89212127D02*
X123122428Y-88497842D01*
X122408142Y-88426413D01*
X122479571Y-88497842D01*
X122551000Y-88640699D01*
X122551000Y-88997842D01*
X122479571Y-89140699D01*
X122408142Y-89212127D01*
X122265285Y-89283556D01*
X121908142Y-89283556D01*
X121765285Y-89212127D01*
X121693857Y-89140699D01*
X121622428Y-88997842D01*
X121622428Y-88640699D01*
X121693857Y-88497842D01*
X121765285Y-88426413D01*
X122193857Y-89926413D02*
X122193857Y-91069270D01*
X123122428Y-91569270D02*
X123122428Y-92426413D01*
X121622428Y-91997842D02*
X123122428Y-91997842D01*
X122408142Y-92926413D02*
X122408142Y-93426413D01*
X121622428Y-93640699D02*
X121622428Y-92926413D01*
X123122428Y-92926413D01*
X123122428Y-93640699D01*
X121765285Y-95140699D02*
X121693857Y-95069270D01*
X121622428Y-94854985D01*
X121622428Y-94712127D01*
X121693857Y-94497842D01*
X121836714Y-94354985D01*
X121979571Y-94283556D01*
X122265285Y-94212127D01*
X122479571Y-94212127D01*
X122765285Y-94283556D01*
X122908142Y-94354985D01*
X123051000Y-94497842D01*
X123122428Y-94712127D01*
X123122428Y-94854985D01*
X123051000Y-95069270D01*
X122979571Y-95140699D01*
X121622428Y-95783556D02*
X123122428Y-95783556D01*
X122408142Y-95783556D02*
X122408142Y-96640699D01*
X121622428Y-96640699D02*
X123122428Y-96640699D01*
X123122428Y-97640699D02*
X123122428Y-97926413D01*
X123051000Y-98069270D01*
X122908142Y-98212127D01*
X122622428Y-98283556D01*
X122122428Y-98283556D01*
X121836714Y-98212127D01*
X121693857Y-98069270D01*
X121622428Y-97926413D01*
X121622428Y-97640699D01*
X121693857Y-97497842D01*
X121836714Y-97354985D01*
X122122428Y-97283556D01*
X122622428Y-97283556D01*
X122908142Y-97354985D01*
X123051000Y-97497842D01*
X123122428Y-97640699D01*
D11*
X89741523Y-68381619D02*
X89789142Y-68334000D01*
X89884380Y-68286380D01*
X90122476Y-68286380D01*
X90217714Y-68334000D01*
X90265333Y-68381619D01*
X90312952Y-68476857D01*
X90312952Y-68572095D01*
X90265333Y-68714952D01*
X89693904Y-69286380D01*
X90312952Y-69286380D01*
X91170095Y-68619714D02*
X91170095Y-69286380D01*
X90932000Y-68238761D02*
X90693904Y-68953047D01*
X91312952Y-68953047D01*
X91551047Y-68286380D02*
X91884380Y-69286380D01*
X92217714Y-68286380D01*
D10*
X153737428Y-158361870D02*
X152737428Y-158361870D01*
X154308857Y-158004727D02*
X153237428Y-157647585D01*
X153237428Y-158576156D01*
X153308857Y-159147585D02*
X153308857Y-160290442D01*
X152737428Y-161004727D02*
X154237428Y-161004727D01*
X153166000Y-161504727D01*
X154237428Y-162004727D01*
X152737428Y-162004727D01*
X153523142Y-162719013D02*
X153523142Y-163219013D01*
X152737428Y-163433299D02*
X152737428Y-162719013D01*
X154237428Y-162719013D01*
X154237428Y-163433299D01*
X152808857Y-164004727D02*
X152737428Y-164219013D01*
X152737428Y-164576156D01*
X152808857Y-164719013D01*
X152880285Y-164790442D01*
X153023142Y-164861870D01*
X153166000Y-164861870D01*
X153308857Y-164790442D01*
X153380285Y-164719013D01*
X153451714Y-164576156D01*
X153523142Y-164290442D01*
X153594571Y-164147585D01*
X153666000Y-164076156D01*
X153808857Y-164004727D01*
X153951714Y-164004727D01*
X154094571Y-164076156D01*
X154166000Y-164147585D01*
X154237428Y-164290442D01*
X154237428Y-164647585D01*
X154166000Y-164861870D01*
X153166000Y-165433299D02*
X153166000Y-166147585D01*
X152737428Y-165290442D02*
X154237428Y-165790442D01*
X152737428Y-166290442D01*
D12*
X134668000Y-142364666D02*
X134901333Y-143064666D01*
X135134666Y-142364666D01*
X135368000Y-142698000D02*
X135601333Y-142698000D01*
X135701333Y-143064666D02*
X135368000Y-143064666D01*
X135368000Y-142364666D01*
X135701333Y-142364666D01*
X136001333Y-143064666D02*
X136001333Y-142364666D01*
X136401333Y-143064666D01*
X136401333Y-142364666D01*
X136634666Y-142364666D02*
X137034666Y-142364666D01*
X136834666Y-143064666D02*
X136834666Y-142364666D01*
X137268000Y-143064666D02*
X137268000Y-142364666D01*
X137934666Y-143064666D02*
X137601333Y-143064666D01*
X137601333Y-142364666D01*
X138134666Y-142864666D02*
X138468000Y-142864666D01*
X138068000Y-143064666D02*
X138301333Y-142364666D01*
X138534666Y-143064666D01*
X138768000Y-143064666D02*
X138768000Y-142364666D01*
X138934666Y-142364666D01*
X139034666Y-142398000D01*
X139101333Y-142464666D01*
X139134666Y-142531333D01*
X139168000Y-142664666D01*
X139168000Y-142764666D01*
X139134666Y-142898000D01*
X139101333Y-142964666D01*
X139034666Y-143031333D01*
X138934666Y-143064666D01*
X138768000Y-143064666D01*
X139601333Y-142364666D02*
X139734666Y-142364666D01*
X139801333Y-142398000D01*
X139868000Y-142464666D01*
X139901333Y-142598000D01*
X139901333Y-142831333D01*
X139868000Y-142964666D01*
X139801333Y-143031333D01*
X139734666Y-143064666D01*
X139601333Y-143064666D01*
X139534666Y-143031333D01*
X139468000Y-142964666D01*
X139434666Y-142831333D01*
X139434666Y-142598000D01*
X139468000Y-142464666D01*
X139534666Y-142398000D01*
X139601333Y-142364666D01*
X140601333Y-143064666D02*
X140368000Y-142731333D01*
X140201333Y-143064666D02*
X140201333Y-142364666D01*
X140468000Y-142364666D01*
X140534666Y-142398000D01*
X140568000Y-142431333D01*
X140601333Y-142498000D01*
X140601333Y-142598000D01*
X140568000Y-142664666D01*
X140534666Y-142698000D01*
X140468000Y-142731333D01*
X140201333Y-142731333D01*
D10*
X152737428Y-65423927D02*
X152737428Y-64566785D01*
X152737428Y-64995356D02*
X154237428Y-64995356D01*
X154023142Y-64852499D01*
X153880285Y-64709642D01*
X153808857Y-64566785D01*
X153308857Y-66066785D02*
X153308857Y-67209642D01*
X152737428Y-67923927D02*
X154237428Y-67923927D01*
X153166000Y-68423927D01*
X154237428Y-68923927D01*
X152737428Y-68923927D01*
X153523142Y-69638213D02*
X153523142Y-70138213D01*
X152737428Y-70352499D02*
X152737428Y-69638213D01*
X154237428Y-69638213D01*
X154237428Y-70352499D01*
X152808857Y-70923927D02*
X152737428Y-71138213D01*
X152737428Y-71495356D01*
X152808857Y-71638213D01*
X152880285Y-71709642D01*
X153023142Y-71781070D01*
X153166000Y-71781070D01*
X153308857Y-71709642D01*
X153380285Y-71638213D01*
X153451714Y-71495356D01*
X153523142Y-71209642D01*
X153594571Y-71066785D01*
X153666000Y-70995356D01*
X153808857Y-70923927D01*
X153951714Y-70923927D01*
X154094571Y-70995356D01*
X154166000Y-71066785D01*
X154237428Y-71209642D01*
X154237428Y-71566785D01*
X154166000Y-71781070D01*
X153166000Y-72352499D02*
X153166000Y-73066785D01*
X152737428Y-72209642D02*
X154237428Y-72709642D01*
X152737428Y-73209642D01*
X121622428Y-195046071D02*
X121622428Y-195331785D01*
X121693857Y-195474642D01*
X121765285Y-195546071D01*
X121979571Y-195688928D01*
X122265285Y-195760356D01*
X122836714Y-195760356D01*
X122979571Y-195688928D01*
X123051000Y-195617499D01*
X123122428Y-195474642D01*
X123122428Y-195188928D01*
X123051000Y-195046071D01*
X122979571Y-194974642D01*
X122836714Y-194903214D01*
X122479571Y-194903214D01*
X122336714Y-194974642D01*
X122265285Y-195046071D01*
X122193857Y-195188928D01*
X122193857Y-195474642D01*
X122265285Y-195617499D01*
X122336714Y-195688928D01*
X122479571Y-195760356D01*
X122193857Y-196403214D02*
X122193857Y-197546071D01*
X121622428Y-198260356D02*
X123122428Y-198260356D01*
X122051000Y-198760356D01*
X123122428Y-199260356D01*
X121622428Y-199260356D01*
X122408142Y-199974642D02*
X122408142Y-200474642D01*
X121622428Y-200688928D02*
X121622428Y-199974642D01*
X123122428Y-199974642D01*
X123122428Y-200688928D01*
X121693857Y-201260356D02*
X121622428Y-201474642D01*
X121622428Y-201831785D01*
X121693857Y-201974642D01*
X121765285Y-202046071D01*
X121908142Y-202117499D01*
X122051000Y-202117499D01*
X122193857Y-202046071D01*
X122265285Y-201974642D01*
X122336714Y-201831785D01*
X122408142Y-201546071D01*
X122479571Y-201403214D01*
X122551000Y-201331785D01*
X122693857Y-201260356D01*
X122836714Y-201260356D01*
X122979571Y-201331785D01*
X123051000Y-201403214D01*
X123122428Y-201546071D01*
X123122428Y-201903214D01*
X123051000Y-202117499D01*
X122051000Y-202688928D02*
X122051000Y-203403214D01*
X121622428Y-202546071D02*
X123122428Y-203046071D01*
X121622428Y-203546071D01*
D11*
X140589095Y-136914000D02*
X140493857Y-136866380D01*
X140351000Y-136866380D01*
X140208142Y-136914000D01*
X140112904Y-137009238D01*
X140065285Y-137104476D01*
X140017666Y-137294952D01*
X140017666Y-137437809D01*
X140065285Y-137628285D01*
X140112904Y-137723523D01*
X140208142Y-137818761D01*
X140351000Y-137866380D01*
X140446238Y-137866380D01*
X140589095Y-137818761D01*
X140636714Y-137771142D01*
X140636714Y-137437809D01*
X140446238Y-137437809D01*
X141065285Y-137866380D02*
X141065285Y-136866380D01*
X141636714Y-137866380D01*
X141636714Y-136866380D01*
X142112904Y-137866380D02*
X142112904Y-136866380D01*
X142351000Y-136866380D01*
X142493857Y-136914000D01*
X142589095Y-137009238D01*
X142636714Y-137104476D01*
X142684333Y-137294952D01*
X142684333Y-137437809D01*
X142636714Y-137628285D01*
X142589095Y-137723523D01*
X142493857Y-137818761D01*
X142351000Y-137866380D01*
X142112904Y-137866380D01*
D10*
X121622428Y-210286070D02*
X121622428Y-210571785D01*
X121693857Y-210714642D01*
X121765285Y-210786070D01*
X121979571Y-210928927D01*
X122265285Y-211000356D01*
X122836714Y-211000356D01*
X122979571Y-210928927D01*
X123051000Y-210857499D01*
X123122428Y-210714642D01*
X123122428Y-210428927D01*
X123051000Y-210286070D01*
X122979571Y-210214642D01*
X122836714Y-210143213D01*
X122479571Y-210143213D01*
X122336714Y-210214642D01*
X122265285Y-210286070D01*
X122193857Y-210428927D01*
X122193857Y-210714642D01*
X122265285Y-210857499D01*
X122336714Y-210928927D01*
X122479571Y-211000356D01*
X122193857Y-211643213D02*
X122193857Y-212786070D01*
X123122428Y-213286070D02*
X123122428Y-214143213D01*
X121622428Y-213714642D02*
X123122428Y-213714642D01*
X122408142Y-214643213D02*
X122408142Y-215143213D01*
X121622428Y-215357499D02*
X121622428Y-214643213D01*
X123122428Y-214643213D01*
X123122428Y-215357499D01*
X121765285Y-216857499D02*
X121693857Y-216786070D01*
X121622428Y-216571785D01*
X121622428Y-216428927D01*
X121693857Y-216214642D01*
X121836714Y-216071785D01*
X121979571Y-216000356D01*
X122265285Y-215928927D01*
X122479571Y-215928927D01*
X122765285Y-216000356D01*
X122908142Y-216071785D01*
X123051000Y-216214642D01*
X123122428Y-216428927D01*
X123122428Y-216571785D01*
X123051000Y-216786070D01*
X122979571Y-216857499D01*
X121622428Y-217500356D02*
X123122428Y-217500356D01*
X122408142Y-217500356D02*
X122408142Y-218357499D01*
X121622428Y-218357499D02*
X123122428Y-218357499D01*
X123122428Y-219357499D02*
X123122428Y-219643213D01*
X123051000Y-219786070D01*
X122908142Y-219928927D01*
X122622428Y-220000356D01*
X122122428Y-220000356D01*
X121836714Y-219928927D01*
X121693857Y-219786070D01*
X121622428Y-219643213D01*
X121622428Y-219357499D01*
X121693857Y-219214642D01*
X121836714Y-219071785D01*
X122122428Y-219000356D01*
X122622428Y-219000356D01*
X122908142Y-219071785D01*
X123051000Y-219214642D01*
X123122428Y-219357499D01*
D11*
X114696952Y-52114380D02*
X114887428Y-52114380D01*
X114982666Y-52162000D01*
X115077904Y-52257238D01*
X115125523Y-52447714D01*
X115125523Y-52781047D01*
X115077904Y-52971523D01*
X114982666Y-53066761D01*
X114887428Y-53114380D01*
X114696952Y-53114380D01*
X114601714Y-53066761D01*
X114506476Y-52971523D01*
X114458857Y-52781047D01*
X114458857Y-52447714D01*
X114506476Y-52257238D01*
X114601714Y-52162000D01*
X114696952Y-52114380D01*
X115554095Y-53114380D02*
X115554095Y-52114380D01*
X116125523Y-53114380D01*
X116125523Y-52114380D01*
X114363619Y-53724380D02*
X114554095Y-53724380D01*
X114649333Y-53772000D01*
X114744571Y-53867238D01*
X114792190Y-54057714D01*
X114792190Y-54391047D01*
X114744571Y-54581523D01*
X114649333Y-54676761D01*
X114554095Y-54724380D01*
X114363619Y-54724380D01*
X114268380Y-54676761D01*
X114173142Y-54581523D01*
X114125523Y-54391047D01*
X114125523Y-54057714D01*
X114173142Y-53867238D01*
X114268380Y-53772000D01*
X114363619Y-53724380D01*
X115554095Y-54200571D02*
X115220761Y-54200571D01*
X115220761Y-54724380D02*
X115220761Y-53724380D01*
X115696952Y-53724380D01*
X116411238Y-54200571D02*
X116077904Y-54200571D01*
X116077904Y-54724380D02*
X116077904Y-53724380D01*
X116554095Y-53724380D01*
X97790095Y-80526000D02*
X97694857Y-80478380D01*
X97552000Y-80478380D01*
X97409142Y-80526000D01*
X97313904Y-80621238D01*
X97266285Y-80716476D01*
X97218666Y-80906952D01*
X97218666Y-81049809D01*
X97266285Y-81240285D01*
X97313904Y-81335523D01*
X97409142Y-81430761D01*
X97552000Y-81478380D01*
X97647238Y-81478380D01*
X97790095Y-81430761D01*
X97837714Y-81383142D01*
X97837714Y-81049809D01*
X97647238Y-81049809D01*
X98266285Y-81478380D02*
X98266285Y-80478380D01*
X98837714Y-81478380D01*
X98837714Y-80478380D01*
X99313904Y-81478380D02*
X99313904Y-80478380D01*
X99552000Y-80478380D01*
X99694857Y-80526000D01*
X99790095Y-80621238D01*
X99837714Y-80716476D01*
X99885333Y-80906952D01*
X99885333Y-81049809D01*
X99837714Y-81240285D01*
X99790095Y-81335523D01*
X99694857Y-81430761D01*
X99552000Y-81478380D01*
X99313904Y-81478380D01*
X89575000Y-60094761D02*
X89717857Y-60142380D01*
X89955952Y-60142380D01*
X90051190Y-60094761D01*
X90098809Y-60047142D01*
X90146428Y-59951904D01*
X90146428Y-59856666D01*
X90098809Y-59761428D01*
X90051190Y-59713809D01*
X89955952Y-59666190D01*
X89765476Y-59618571D01*
X89670238Y-59570952D01*
X89622619Y-59523333D01*
X89575000Y-59428095D01*
X89575000Y-59332857D01*
X89622619Y-59237619D01*
X89670238Y-59190000D01*
X89765476Y-59142380D01*
X90003571Y-59142380D01*
X90146428Y-59190000D01*
X90479761Y-59142380D02*
X90717857Y-60142380D01*
X90908333Y-59428095D01*
X91098809Y-60142380D01*
X91336904Y-59142380D01*
X91717857Y-60142380D02*
X91717857Y-59142380D01*
X92051190Y-59142380D02*
X92622619Y-59142380D01*
X92336904Y-60142380D02*
X92336904Y-59142380D01*
X93527380Y-60047142D02*
X93479761Y-60094761D01*
X93336904Y-60142380D01*
X93241666Y-60142380D01*
X93098809Y-60094761D01*
X93003571Y-59999523D01*
X92955952Y-59904285D01*
X92908333Y-59713809D01*
X92908333Y-59570952D01*
X92955952Y-59380476D01*
X93003571Y-59285238D01*
X93098809Y-59190000D01*
X93241666Y-59142380D01*
X93336904Y-59142380D01*
X93479761Y-59190000D01*
X93527380Y-59237619D01*
X93955952Y-60142380D02*
X93955952Y-59142380D01*
X93955952Y-59618571D02*
X94527380Y-59618571D01*
X94527380Y-60142380D02*
X94527380Y-59142380D01*
X102695523Y-80573619D02*
X102743142Y-80526000D01*
X102838380Y-80478380D01*
X103076476Y-80478380D01*
X103171714Y-80526000D01*
X103219333Y-80573619D01*
X103266952Y-80668857D01*
X103266952Y-80764095D01*
X103219333Y-80906952D01*
X102647904Y-81478380D01*
X103266952Y-81478380D01*
X104124095Y-80811714D02*
X104124095Y-81478380D01*
X103886000Y-80430761D02*
X103647904Y-81145047D01*
X104266952Y-81145047D01*
X104505047Y-80478380D02*
X104838380Y-81478380D01*
X105171714Y-80478380D01*
X141033666Y-190396761D02*
X141176523Y-190444380D01*
X141414619Y-190444380D01*
X141509857Y-190396761D01*
X141557476Y-190349142D01*
X141605095Y-190253904D01*
X141605095Y-190158666D01*
X141557476Y-190063428D01*
X141509857Y-190015809D01*
X141414619Y-189968190D01*
X141224143Y-189920571D01*
X141128904Y-189872952D01*
X141081285Y-189825333D01*
X141033666Y-189730095D01*
X141033666Y-189634857D01*
X141081285Y-189539619D01*
X141128904Y-189492000D01*
X141224143Y-189444380D01*
X141462238Y-189444380D01*
X141605095Y-189492000D01*
X142605095Y-190349142D02*
X142557476Y-190396761D01*
X142414619Y-190444380D01*
X142319381Y-190444380D01*
X142176523Y-190396761D01*
X142081285Y-190301523D01*
X142033666Y-190206285D01*
X141986047Y-190015809D01*
X141986047Y-189872952D01*
X142033666Y-189682476D01*
X142081285Y-189587238D01*
X142176523Y-189492000D01*
X142319381Y-189444380D01*
X142414619Y-189444380D01*
X142557476Y-189492000D01*
X142605095Y-189539619D01*
X143509857Y-190444380D02*
X143033666Y-190444380D01*
X143033666Y-189444380D01*
X143843190Y-190444380D02*
X143843190Y-189444380D01*
X144414619Y-190444380D02*
X143986047Y-189872952D01*
X144414619Y-189444380D02*
X143843190Y-190015809D01*
D10*
X122479571Y-179948927D02*
X122551000Y-179806070D01*
X122622428Y-179734642D01*
X122765285Y-179663213D01*
X122836714Y-179663213D01*
X122979571Y-179734642D01*
X123051000Y-179806070D01*
X123122428Y-179948927D01*
X123122428Y-180234642D01*
X123051000Y-180377499D01*
X122979571Y-180448927D01*
X122836714Y-180520356D01*
X122765285Y-180520356D01*
X122622428Y-180448927D01*
X122551000Y-180377499D01*
X122479571Y-180234642D01*
X122479571Y-179948927D01*
X122408142Y-179806070D01*
X122336714Y-179734642D01*
X122193857Y-179663213D01*
X121908142Y-179663213D01*
X121765285Y-179734642D01*
X121693857Y-179806070D01*
X121622428Y-179948927D01*
X121622428Y-180234642D01*
X121693857Y-180377499D01*
X121765285Y-180448927D01*
X121908142Y-180520356D01*
X122193857Y-180520356D01*
X122336714Y-180448927D01*
X122408142Y-180377499D01*
X122479571Y-180234642D01*
X122193857Y-181163213D02*
X122193857Y-182306070D01*
X123122428Y-182806070D02*
X123122428Y-183663213D01*
X121622428Y-183234642D02*
X123122428Y-183234642D01*
X122408142Y-184163213D02*
X122408142Y-184663213D01*
X121622428Y-184877499D02*
X121622428Y-184163213D01*
X123122428Y-184163213D01*
X123122428Y-184877499D01*
X121765285Y-186377499D02*
X121693857Y-186306070D01*
X121622428Y-186091785D01*
X121622428Y-185948927D01*
X121693857Y-185734642D01*
X121836714Y-185591785D01*
X121979571Y-185520356D01*
X122265285Y-185448927D01*
X122479571Y-185448927D01*
X122765285Y-185520356D01*
X122908142Y-185591785D01*
X123051000Y-185734642D01*
X123122428Y-185948927D01*
X123122428Y-186091785D01*
X123051000Y-186306070D01*
X122979571Y-186377499D01*
X121622428Y-187020356D02*
X123122428Y-187020356D01*
X122408142Y-187020356D02*
X122408142Y-187877499D01*
X121622428Y-187877499D02*
X123122428Y-187877499D01*
X123122428Y-188877499D02*
X123122428Y-189163213D01*
X123051000Y-189306070D01*
X122908142Y-189448927D01*
X122622428Y-189520356D01*
X122122428Y-189520356D01*
X121836714Y-189448927D01*
X121693857Y-189306070D01*
X121622428Y-189163213D01*
X121622428Y-188877499D01*
X121693857Y-188734642D01*
X121836714Y-188591785D01*
X122122428Y-188520356D01*
X122622428Y-188520356D01*
X122908142Y-188591785D01*
X123051000Y-188734642D01*
X123122428Y-188877499D01*
X123122428Y-103862499D02*
X123122428Y-103576785D01*
X123051000Y-103433928D01*
X122979571Y-103362499D01*
X122765285Y-103219642D01*
X122479571Y-103148214D01*
X121908142Y-103148214D01*
X121765285Y-103219642D01*
X121693857Y-103291071D01*
X121622428Y-103433928D01*
X121622428Y-103719642D01*
X121693857Y-103862499D01*
X121765285Y-103933928D01*
X121908142Y-104005356D01*
X122265285Y-104005356D01*
X122408142Y-103933928D01*
X122479571Y-103862499D01*
X122551000Y-103719642D01*
X122551000Y-103433928D01*
X122479571Y-103291071D01*
X122408142Y-103219642D01*
X122265285Y-103148214D01*
X122193857Y-104648214D02*
X122193857Y-105791071D01*
X121622428Y-106505356D02*
X123122428Y-106505356D01*
X122051000Y-107005356D01*
X123122428Y-107505356D01*
X121622428Y-107505356D01*
X122408142Y-108219642D02*
X122408142Y-108719642D01*
X121622428Y-108933928D02*
X121622428Y-108219642D01*
X123122428Y-108219642D01*
X123122428Y-108933928D01*
X121693857Y-109505356D02*
X121622428Y-109719642D01*
X121622428Y-110076785D01*
X121693857Y-110219642D01*
X121765285Y-110291071D01*
X121908142Y-110362499D01*
X122051000Y-110362499D01*
X122193857Y-110291071D01*
X122265285Y-110219642D01*
X122336714Y-110076785D01*
X122408142Y-109791071D01*
X122479571Y-109648214D01*
X122551000Y-109576785D01*
X122693857Y-109505356D01*
X122836714Y-109505356D01*
X122979571Y-109576785D01*
X123051000Y-109648214D01*
X123122428Y-109791071D01*
X123122428Y-110148214D01*
X123051000Y-110362499D01*
X122051000Y-110933928D02*
X122051000Y-111648214D01*
X121622428Y-110791071D02*
X123122428Y-111291071D01*
X121622428Y-111791071D01*
D11*
X131381523Y-232243380D02*
X130905333Y-232243380D01*
X130857714Y-232719571D01*
X130905333Y-232671952D01*
X131000571Y-232624333D01*
X131238666Y-232624333D01*
X131333904Y-232671952D01*
X131381523Y-232719571D01*
X131429142Y-232814809D01*
X131429142Y-233052904D01*
X131381523Y-233148142D01*
X131333904Y-233195761D01*
X131238666Y-233243380D01*
X131000571Y-233243380D01*
X130905333Y-233195761D01*
X130857714Y-233148142D01*
X131714857Y-232243380D02*
X132048190Y-233243380D01*
X132381523Y-232243380D01*
D10*
X123122428Y-133475585D02*
X123122428Y-134475585D01*
X121622428Y-133832728D01*
X122193857Y-135047014D02*
X122193857Y-136189871D01*
X121622428Y-136904156D02*
X123122428Y-136904156D01*
X122051000Y-137404156D01*
X123122428Y-137904156D01*
X121622428Y-137904156D01*
X122408142Y-138618442D02*
X122408142Y-139118442D01*
X121622428Y-139332728D02*
X121622428Y-138618442D01*
X123122428Y-138618442D01*
X123122428Y-139332728D01*
X121693857Y-139904156D02*
X121622428Y-140118442D01*
X121622428Y-140475585D01*
X121693857Y-140618442D01*
X121765285Y-140689871D01*
X121908142Y-140761299D01*
X122051000Y-140761299D01*
X122193857Y-140689871D01*
X122265285Y-140618442D01*
X122336714Y-140475585D01*
X122408142Y-140189871D01*
X122479571Y-140047014D01*
X122551000Y-139975585D01*
X122693857Y-139904156D01*
X122836714Y-139904156D01*
X122979571Y-139975585D01*
X123051000Y-140047014D01*
X123122428Y-140189871D01*
X123122428Y-140547014D01*
X123051000Y-140761299D01*
X122051000Y-141332728D02*
X122051000Y-142047014D01*
X121622428Y-141189871D02*
X123122428Y-141689871D01*
X121622428Y-142189871D01*
X154094571Y-95493785D02*
X154166000Y-95565213D01*
X154237428Y-95708070D01*
X154237428Y-96065213D01*
X154166000Y-96208070D01*
X154094571Y-96279499D01*
X153951714Y-96350927D01*
X153808857Y-96350927D01*
X153594571Y-96279499D01*
X152737428Y-95422356D01*
X152737428Y-96350927D01*
X153308857Y-96993785D02*
X153308857Y-98136642D01*
X152737428Y-98850927D02*
X154237428Y-98850927D01*
X153166000Y-99350927D01*
X154237428Y-99850927D01*
X152737428Y-99850927D01*
X153523142Y-100565213D02*
X153523142Y-101065213D01*
X152737428Y-101279499D02*
X152737428Y-100565213D01*
X154237428Y-100565213D01*
X154237428Y-101279499D01*
X152808857Y-101850927D02*
X152737428Y-102065213D01*
X152737428Y-102422356D01*
X152808857Y-102565213D01*
X152880285Y-102636642D01*
X153023142Y-102708070D01*
X153166000Y-102708070D01*
X153308857Y-102636642D01*
X153380285Y-102565213D01*
X153451714Y-102422356D01*
X153523142Y-102136642D01*
X153594571Y-101993785D01*
X153666000Y-101922356D01*
X153808857Y-101850927D01*
X153951714Y-101850927D01*
X154094571Y-101922356D01*
X154166000Y-101993785D01*
X154237428Y-102136642D01*
X154237428Y-102493785D01*
X154166000Y-102708070D01*
X153166000Y-103279499D02*
X153166000Y-103993785D01*
X152737428Y-103136642D02*
X154237428Y-103636642D01*
X152737428Y-104136642D01*
D11*
X90170095Y-83447000D02*
X90074857Y-83399380D01*
X89932000Y-83399380D01*
X89789142Y-83447000D01*
X89693904Y-83542238D01*
X89646285Y-83637476D01*
X89598666Y-83827952D01*
X89598666Y-83970809D01*
X89646285Y-84161285D01*
X89693904Y-84256523D01*
X89789142Y-84351761D01*
X89932000Y-84399380D01*
X90027238Y-84399380D01*
X90170095Y-84351761D01*
X90217714Y-84304142D01*
X90217714Y-83970809D01*
X90027238Y-83970809D01*
X90646285Y-84399380D02*
X90646285Y-83399380D01*
X91217714Y-84399380D01*
X91217714Y-83399380D01*
X91693904Y-84399380D02*
X91693904Y-83399380D01*
X91932000Y-83399380D01*
X92074857Y-83447000D01*
X92170095Y-83542238D01*
X92217714Y-83637476D01*
X92265333Y-83827952D01*
X92265333Y-83970809D01*
X92217714Y-84161285D01*
X92170095Y-84256523D01*
X92074857Y-84351761D01*
X91932000Y-84399380D01*
X91693904Y-84399380D01*
D10*
X123122428Y-119199099D02*
X123122428Y-118913385D01*
X123051000Y-118770527D01*
X122979571Y-118699099D01*
X122765285Y-118556242D01*
X122479571Y-118484813D01*
X121908142Y-118484813D01*
X121765285Y-118556242D01*
X121693857Y-118627670D01*
X121622428Y-118770527D01*
X121622428Y-119056242D01*
X121693857Y-119199099D01*
X121765285Y-119270527D01*
X121908142Y-119341956D01*
X122265285Y-119341956D01*
X122408142Y-119270527D01*
X122479571Y-119199099D01*
X122551000Y-119056242D01*
X122551000Y-118770527D01*
X122479571Y-118627670D01*
X122408142Y-118556242D01*
X122265285Y-118484813D01*
X122193857Y-119984813D02*
X122193857Y-121127670D01*
X123122428Y-121627670D02*
X123122428Y-122484813D01*
X121622428Y-122056242D02*
X123122428Y-122056242D01*
X122408142Y-122984813D02*
X122408142Y-123484813D01*
X121622428Y-123699099D02*
X121622428Y-122984813D01*
X123122428Y-122984813D01*
X123122428Y-123699099D01*
X121765285Y-125199099D02*
X121693857Y-125127670D01*
X121622428Y-124913385D01*
X121622428Y-124770527D01*
X121693857Y-124556242D01*
X121836714Y-124413385D01*
X121979571Y-124341956D01*
X122265285Y-124270527D01*
X122479571Y-124270527D01*
X122765285Y-124341956D01*
X122908142Y-124413385D01*
X123051000Y-124556242D01*
X123122428Y-124770527D01*
X123122428Y-124913385D01*
X123051000Y-125127670D01*
X122979571Y-125199099D01*
X121622428Y-125841956D02*
X123122428Y-125841956D01*
X122408142Y-125841956D02*
X122408142Y-126699099D01*
X121622428Y-126699099D02*
X123122428Y-126699099D01*
X123122428Y-127699099D02*
X123122428Y-127984813D01*
X123051000Y-128127670D01*
X122908142Y-128270527D01*
X122622428Y-128341956D01*
X122122428Y-128341956D01*
X121836714Y-128270527D01*
X121693857Y-128127670D01*
X121622428Y-127984813D01*
X121622428Y-127699099D01*
X121693857Y-127556242D01*
X121836714Y-127413385D01*
X122122428Y-127341956D01*
X122622428Y-127341956D01*
X122908142Y-127413385D01*
X123051000Y-127556242D01*
X123122428Y-127699099D01*
D11*
X141605095Y-192032000D02*
X141509857Y-191984380D01*
X141367000Y-191984380D01*
X141224142Y-192032000D01*
X141128904Y-192127238D01*
X141081285Y-192222476D01*
X141033666Y-192412952D01*
X141033666Y-192555809D01*
X141081285Y-192746285D01*
X141128904Y-192841523D01*
X141224142Y-192936761D01*
X141367000Y-192984380D01*
X141462238Y-192984380D01*
X141605095Y-192936761D01*
X141652714Y-192889142D01*
X141652714Y-192555809D01*
X141462238Y-192555809D01*
X142081285Y-192984380D02*
X142081285Y-191984380D01*
X142652714Y-192984380D01*
X142652714Y-191984380D01*
X143128904Y-192984380D02*
X143128904Y-191984380D01*
X143367000Y-191984380D01*
X143509857Y-192032000D01*
X143605095Y-192127238D01*
X143652714Y-192222476D01*
X143700333Y-192412952D01*
X143700333Y-192555809D01*
X143652714Y-192746285D01*
X143605095Y-192841523D01*
X143509857Y-192936761D01*
X143367000Y-192984380D01*
X143128904Y-192984380D01*
D10*
X154094571Y-109310642D02*
X154166000Y-109382071D01*
X154237428Y-109524928D01*
X154237428Y-109882071D01*
X154166000Y-110024928D01*
X154094571Y-110096356D01*
X153951714Y-110167785D01*
X153808857Y-110167785D01*
X153594571Y-110096356D01*
X152737428Y-109239214D01*
X152737428Y-110167785D01*
X153308857Y-110810642D02*
X153308857Y-111953499D01*
X154237428Y-112453499D02*
X154237428Y-113310642D01*
X152737428Y-112882071D02*
X154237428Y-112882071D01*
X153523142Y-113810642D02*
X153523142Y-114310642D01*
X152737428Y-114524928D02*
X152737428Y-113810642D01*
X154237428Y-113810642D01*
X154237428Y-114524928D01*
X152880285Y-116024928D02*
X152808857Y-115953499D01*
X152737428Y-115739214D01*
X152737428Y-115596356D01*
X152808857Y-115382071D01*
X152951714Y-115239214D01*
X153094571Y-115167785D01*
X153380285Y-115096356D01*
X153594571Y-115096356D01*
X153880285Y-115167785D01*
X154023142Y-115239214D01*
X154166000Y-115382071D01*
X154237428Y-115596356D01*
X154237428Y-115739214D01*
X154166000Y-115953499D01*
X154094571Y-116024928D01*
X152737428Y-116667785D02*
X154237428Y-116667785D01*
X153523142Y-116667785D02*
X153523142Y-117524928D01*
X152737428Y-117524928D02*
X154237428Y-117524928D01*
X154237428Y-118524928D02*
X154237428Y-118810642D01*
X154166000Y-118953499D01*
X154023142Y-119096356D01*
X153737428Y-119167785D01*
X153237428Y-119167785D01*
X152951714Y-119096356D01*
X152808857Y-118953499D01*
X152737428Y-118810642D01*
X152737428Y-118524928D01*
X152808857Y-118382071D01*
X152951714Y-118239214D01*
X153237428Y-118167785D01*
X153737428Y-118167785D01*
X154023142Y-118239214D01*
X154166000Y-118382071D01*
X154237428Y-118524928D01*
X154237428Y-125683956D02*
X154237428Y-126612527D01*
X153666000Y-126112527D01*
X153666000Y-126326813D01*
X153594571Y-126469670D01*
X153523142Y-126541099D01*
X153380285Y-126612527D01*
X153023142Y-126612527D01*
X152880285Y-126541099D01*
X152808857Y-126469670D01*
X152737428Y-126326813D01*
X152737428Y-125898242D01*
X152808857Y-125755385D01*
X152880285Y-125683956D01*
X153308857Y-127255385D02*
X153308857Y-128398242D01*
X152737428Y-129112527D02*
X154237428Y-129112527D01*
X153166000Y-129612527D01*
X154237428Y-130112527D01*
X152737428Y-130112527D01*
X153523142Y-130826813D02*
X153523142Y-131326813D01*
X152737428Y-131541099D02*
X152737428Y-130826813D01*
X154237428Y-130826813D01*
X154237428Y-131541099D01*
X152808857Y-132112527D02*
X152737428Y-132326813D01*
X152737428Y-132683956D01*
X152808857Y-132826813D01*
X152880285Y-132898242D01*
X153023142Y-132969670D01*
X153166000Y-132969670D01*
X153308857Y-132898242D01*
X153380285Y-132826813D01*
X153451714Y-132683956D01*
X153523142Y-132398242D01*
X153594571Y-132255385D01*
X153666000Y-132183956D01*
X153808857Y-132112527D01*
X153951714Y-132112527D01*
X154094571Y-132183956D01*
X154166000Y-132255385D01*
X154237428Y-132398242D01*
X154237428Y-132755385D01*
X154166000Y-132969670D01*
X153166000Y-133541099D02*
X153166000Y-134255385D01*
X152737428Y-133398242D02*
X154237428Y-133898242D01*
X152737428Y-134398242D01*
X152737428Y-79554785D02*
X152737428Y-78697642D01*
X152737428Y-79126214D02*
X154237428Y-79126214D01*
X154023142Y-78983356D01*
X153880285Y-78840499D01*
X153808857Y-78697642D01*
X153308857Y-80197642D02*
X153308857Y-81340499D01*
X154237428Y-81840499D02*
X154237428Y-82697642D01*
X152737428Y-82269071D02*
X154237428Y-82269071D01*
X153523142Y-83197642D02*
X153523142Y-83697642D01*
X152737428Y-83911928D02*
X152737428Y-83197642D01*
X154237428Y-83197642D01*
X154237428Y-83911928D01*
X152880285Y-85411928D02*
X152808857Y-85340499D01*
X152737428Y-85126214D01*
X152737428Y-84983356D01*
X152808857Y-84769071D01*
X152951714Y-84626214D01*
X153094571Y-84554785D01*
X153380285Y-84483356D01*
X153594571Y-84483356D01*
X153880285Y-84554785D01*
X154023142Y-84626214D01*
X154166000Y-84769071D01*
X154237428Y-84983356D01*
X154237428Y-85126214D01*
X154166000Y-85340499D01*
X154094571Y-85411928D01*
X152737428Y-86054785D02*
X154237428Y-86054785D01*
X153523142Y-86054785D02*
X153523142Y-86911928D01*
X152737428Y-86911928D02*
X154237428Y-86911928D01*
X154237428Y-87911928D02*
X154237428Y-88197642D01*
X154166000Y-88340499D01*
X154023142Y-88483356D01*
X153737428Y-88554785D01*
X153237428Y-88554785D01*
X152951714Y-88483356D01*
X152808857Y-88340499D01*
X152737428Y-88197642D01*
X152737428Y-87911928D01*
X152808857Y-87769071D01*
X152951714Y-87626214D01*
X153237428Y-87554785D01*
X153737428Y-87554785D01*
X154023142Y-87626214D01*
X154166000Y-87769071D01*
X154237428Y-87911928D01*
D13*
X95791000Y-168758800D02*
X95791000Y-163758800D01*
X115791000Y-168758800D02*
X95791000Y-168758800D01*
X95791000Y-163758800D02*
X115791000Y-163758800D01*
X115791000Y-163758800D02*
X115791000Y-168758800D01*
D14*
X113748452Y-227353800D02*
X113225948Y-227353800D01*
X113748452Y-225883800D02*
X113225948Y-225883800D01*
X143795600Y-235788200D02*
G75*
G03*
X143795600Y-235788200I-1200000J0D01*
G01*
X158379900Y-78494658D02*
X158379900Y-78020142D01*
X159424900Y-78494658D02*
X159424900Y-78020142D01*
X182649600Y-106840000D02*
X186664600Y-106832400D01*
X182650500Y-119231400D02*
X186665500Y-119223800D01*
X182649600Y-106840000D02*
X182649600Y-119220000D01*
X106719900Y-159596858D02*
X106719900Y-159122342D01*
X105674900Y-159596858D02*
X105674900Y-159122342D01*
X170535600Y-82448400D02*
X170535600Y-81508600D01*
D13*
X159829800Y-166415800D02*
X159829800Y-161415800D01*
X179829800Y-166415800D02*
X159829800Y-166415800D01*
X159829800Y-161415800D02*
X179829800Y-161415800D01*
X179829800Y-161415800D02*
X179829800Y-166415800D01*
D14*
X92888700Y-179574200D02*
X88873700Y-179581800D01*
X92889600Y-191965600D02*
X88874600Y-191973200D01*
X92889600Y-191965600D02*
X92889600Y-179585600D01*
D13*
X179829800Y-83823000D02*
X179829800Y-88823000D01*
X159829800Y-83823000D02*
X179829800Y-83823000D01*
X159829800Y-88823000D02*
X159829800Y-83823000D01*
X179829800Y-88823000D02*
X159829800Y-88823000D01*
D14*
X160330200Y-125603000D02*
X160330200Y-124953000D01*
X160330200Y-125603000D02*
X160330200Y-126253000D01*
X163450200Y-125603000D02*
X163450200Y-123928000D01*
X163450200Y-125603000D02*
X163450200Y-126253000D01*
X162761342Y-61006500D02*
X163235858Y-61006500D01*
X162761342Y-62051500D02*
X163235858Y-62051500D01*
X115961600Y-188137800D02*
X115961600Y-187487800D01*
X115961600Y-188137800D02*
X115961600Y-188787800D01*
X112841600Y-188137800D02*
X112841600Y-189812800D01*
X112841600Y-188137800D02*
X112841600Y-187487800D01*
X113699058Y-114285500D02*
X113224542Y-114285500D01*
X113699058Y-115330500D02*
X113224542Y-115330500D01*
X163033942Y-92673700D02*
X163508458Y-92673700D01*
X163033942Y-91628700D02*
X163508458Y-91628700D01*
X108510400Y-203747000D02*
X108510400Y-206032000D01*
X109980400Y-203747000D02*
X108510400Y-203747000D01*
X109980400Y-206032000D02*
X109980400Y-203747000D01*
X116140620Y-71524400D02*
X116421780Y-71524400D01*
X116140620Y-72544400D02*
X116421780Y-72544400D01*
X138512400Y-235788200D02*
G75*
G03*
X138512400Y-235788200I-1200000J0D01*
G01*
X115722800Y-172392100D02*
X115722800Y-173042100D01*
X112602800Y-172392100D02*
X112602800Y-171742100D01*
X112602800Y-172392100D02*
X112602800Y-174067100D01*
X115722800Y-172392100D02*
X115722800Y-171742100D01*
X106030500Y-129243858D02*
X106030500Y-128769342D01*
X107075500Y-129243858D02*
X107075500Y-128769342D01*
X92888700Y-210145600D02*
X88873700Y-210153200D01*
X92889600Y-222537000D02*
X88874600Y-222544600D01*
X92889600Y-222537000D02*
X92889600Y-210157000D01*
X130049000Y-207770759D02*
X130049000Y-208078041D01*
X130809000Y-207770759D02*
X130809000Y-208078041D01*
X107899200Y-217538800D02*
X107899200Y-218478600D01*
X106807000Y-140157200D02*
X106807000Y-141097000D01*
X167133600Y-95338000D02*
X168603600Y-95338000D01*
X167133600Y-93053000D02*
X167133600Y-95338000D01*
X168603600Y-95338000D02*
X168603600Y-93053000D01*
X170174600Y-66786800D02*
X170174600Y-65847000D01*
X148562964Y-225759800D02*
X148778636Y-225759800D01*
X148562964Y-226479800D02*
X148778636Y-226479800D01*
X182649600Y-76233000D02*
X186664600Y-76225400D01*
X182649600Y-76233000D02*
X182649600Y-88613000D01*
X182650500Y-88624400D02*
X186665500Y-88616800D01*
X162412142Y-106919500D02*
X162886658Y-106919500D01*
X162412142Y-107964500D02*
X162886658Y-107964500D01*
X136758000Y-209378436D02*
X136758000Y-209162764D01*
X136038000Y-209378436D02*
X136038000Y-209162764D01*
X114029258Y-129754100D02*
X113554742Y-129754100D01*
X114029258Y-130799100D02*
X113554742Y-130799100D01*
X111190600Y-228593600D02*
X117200600Y-228593600D01*
X117200600Y-235413600D02*
X117200600Y-234153600D01*
X113440600Y-235413600D02*
X117200600Y-235413600D01*
X117200600Y-228593600D02*
X117200600Y-229853600D01*
X108104000Y-233611052D02*
X108104000Y-233088548D01*
X109574000Y-233611052D02*
X109574000Y-233088548D01*
X169365600Y-141032600D02*
X169365600Y-138747600D01*
X167895600Y-138747600D02*
X167895600Y-141032600D01*
X167895600Y-141032600D02*
X169365600Y-141032600D01*
X116850600Y-219189800D02*
X116850600Y-218539800D01*
X116850600Y-219189800D02*
X116850600Y-219839800D01*
X113730600Y-219189800D02*
X113730600Y-218539800D01*
X113730600Y-219189800D02*
X113730600Y-220864800D01*
X182649600Y-137955000D02*
X186664600Y-137947400D01*
X182650500Y-150346400D02*
X186665500Y-150338800D01*
X182649600Y-137955000D02*
X182649600Y-150335000D01*
X117562100Y-174362342D02*
X117562100Y-174836858D01*
X118607100Y-174362342D02*
X118607100Y-174836858D01*
X109069200Y-127521600D02*
X109069200Y-129806600D01*
X110539200Y-127521600D02*
X109069200Y-127521600D01*
X110539200Y-129806600D02*
X110539200Y-127521600D01*
D13*
X95791000Y-93158200D02*
X95791000Y-88158200D01*
X95791000Y-88158200D02*
X115791000Y-88158200D01*
X115791000Y-93158200D02*
X95791000Y-93158200D01*
X115791000Y-88158200D02*
X115791000Y-93158200D01*
D14*
X162754542Y-76566500D02*
X163229058Y-76566500D01*
X162754542Y-77611500D02*
X163229058Y-77611500D01*
X139241800Y-216930400D02*
X135941800Y-216930400D01*
X135941800Y-216930400D02*
X135941800Y-220930400D01*
X107050100Y-174811458D02*
X107050100Y-174336942D01*
X106005100Y-174811458D02*
X106005100Y-174336942D01*
D13*
X115791000Y-102880000D02*
X115791000Y-107880000D01*
X115791000Y-107880000D02*
X95791000Y-107880000D01*
X95791000Y-107880000D02*
X95791000Y-102880000D01*
X95791000Y-102880000D02*
X115791000Y-102880000D01*
D14*
X139388964Y-200410400D02*
X139604636Y-200410400D01*
X139388964Y-199690400D02*
X139604636Y-199690400D01*
X182650500Y-166221400D02*
X186665500Y-166213800D01*
X182649600Y-153830000D02*
X186664600Y-153822400D01*
X182649600Y-153830000D02*
X182649600Y-166210000D01*
X164018400Y-173431200D02*
X164018400Y-174081200D01*
X160898400Y-173431200D02*
X160898400Y-172781200D01*
X160898400Y-173431200D02*
X160898400Y-174081200D01*
X164018400Y-173431200D02*
X164018400Y-171756200D01*
X119877100Y-221086142D02*
X119877100Y-221560658D01*
X118832100Y-221086142D02*
X118832100Y-221560658D01*
X92888700Y-148738600D02*
X88873700Y-148746200D01*
X92889600Y-161130000D02*
X92889600Y-148750000D01*
X92889600Y-161130000D02*
X88874600Y-161137600D01*
X114283258Y-176341300D02*
X113808742Y-176341300D01*
X114283258Y-175296300D02*
X113808742Y-175296300D01*
X158501500Y-63610258D02*
X158501500Y-63135742D01*
X159546500Y-63610258D02*
X159546500Y-63135742D01*
D13*
X179829800Y-104262000D02*
X159829800Y-104262000D01*
X159829800Y-99262000D02*
X179829800Y-99262000D01*
X159829800Y-104262000D02*
X159829800Y-99262000D01*
X179829800Y-99262000D02*
X179829800Y-104262000D01*
D14*
X161992542Y-186044100D02*
X162467058Y-186044100D01*
X161992542Y-184999100D02*
X162467058Y-184999100D01*
X140695000Y-220148036D02*
X140695000Y-219932364D01*
X139975000Y-220148036D02*
X139975000Y-219932364D01*
X168756000Y-157085400D02*
X168756000Y-154800400D01*
X167286000Y-157085400D02*
X168756000Y-157085400D01*
X167286000Y-154800400D02*
X167286000Y-157085400D01*
X101412664Y-67712000D02*
X99958536Y-67712000D01*
X101412664Y-65892000D02*
X99958536Y-65892000D01*
D13*
X159829800Y-193140400D02*
X179829800Y-193140400D01*
X159829800Y-198140400D02*
X159829800Y-193140400D01*
X179829800Y-193140400D02*
X179829800Y-198140400D01*
X179829800Y-198140400D02*
X159829800Y-198140400D01*
D14*
X99675800Y-83515200D02*
G75*
G03*
X99675800Y-83515200I-1200000J0D01*
G01*
X159069300Y-140140458D02*
X159069300Y-139665942D01*
X158024300Y-140140458D02*
X158024300Y-139665942D01*
X107812100Y-221535258D02*
X107812100Y-221060742D01*
X106767100Y-221535258D02*
X106767100Y-221060742D01*
X105446300Y-205443858D02*
X105446300Y-204969342D01*
X106491300Y-205443858D02*
X106491300Y-204969342D01*
X169822800Y-189089400D02*
X169822800Y-186804400D01*
X168352800Y-189089400D02*
X169822800Y-189089400D01*
X168352800Y-186804400D02*
X168352800Y-189089400D01*
X108993000Y-173114600D02*
X108993000Y-175399600D01*
X110463000Y-175399600D02*
X110463000Y-173114600D01*
X110463000Y-173114600D02*
X108993000Y-173114600D01*
X166828800Y-64451600D02*
X168298800Y-64451600D01*
X168298800Y-64451600D02*
X168298800Y-62166600D01*
X166828800Y-62166600D02*
X166828800Y-64451600D01*
X182649600Y-185580000D02*
X182649600Y-197960000D01*
X182650500Y-197971400D02*
X186665500Y-197963800D01*
X182649600Y-185580000D02*
X186664600Y-185572400D01*
X105217700Y-113826058D02*
X105217700Y-113351542D01*
X106262700Y-113826058D02*
X106262700Y-113351542D01*
X161038600Y-110896400D02*
X161038600Y-110246400D01*
X164158600Y-110896400D02*
X164158600Y-111546400D01*
X161038600Y-110896400D02*
X161038600Y-111546400D01*
X164158600Y-110896400D02*
X164158600Y-109221400D01*
X117841500Y-190161142D02*
X117841500Y-190635658D01*
X118886500Y-190161142D02*
X118886500Y-190635658D01*
X109828000Y-114439600D02*
X109828000Y-112154600D01*
X108358000Y-112154600D02*
X108358000Y-114439600D01*
X109828000Y-112154600D02*
X108358000Y-112154600D01*
X166613000Y-124979800D02*
X166613000Y-122694800D01*
X165143000Y-124979800D02*
X166613000Y-124979800D01*
X165143000Y-122694800D02*
X165143000Y-124979800D01*
X122773000Y-62349748D02*
X122773000Y-62872252D01*
X124243000Y-62349748D02*
X124243000Y-62872252D01*
D13*
X115816400Y-148610200D02*
X115816400Y-153610200D01*
X115816400Y-153610200D02*
X95816400Y-153610200D01*
X95816400Y-148610200D02*
X115816400Y-148610200D01*
X95816400Y-153610200D02*
X95816400Y-148610200D01*
D14*
X169913800Y-112471200D02*
X169913800Y-111531400D01*
X117946700Y-128718542D02*
X117946700Y-129193058D01*
X116901700Y-128718542D02*
X116901700Y-129193058D01*
X170063900Y-108423942D02*
X170063900Y-108898458D01*
X171108900Y-108423942D02*
X171108900Y-108898458D01*
X111225000Y-219889200D02*
X109755000Y-219889200D01*
X109755000Y-219889200D02*
X109755000Y-222174200D01*
X111225000Y-222174200D02*
X111225000Y-219889200D01*
X107111800Y-186461400D02*
X107111800Y-187401200D01*
X107213400Y-125120400D02*
X107213400Y-126060200D01*
X117413300Y-113834142D02*
X117413300Y-114308658D01*
X116368300Y-113834142D02*
X116368300Y-114308658D01*
D13*
X179829800Y-129523600D02*
X179829800Y-134523600D01*
X179829800Y-134523600D02*
X159829800Y-134523600D01*
X159829800Y-134523600D02*
X159829800Y-129523600D01*
X159829800Y-129523600D02*
X179829800Y-129523600D01*
D14*
X118293748Y-77951000D02*
X118816252Y-77951000D01*
X118293748Y-76481000D02*
X118816252Y-76481000D01*
X132848200Y-235788200D02*
G75*
G03*
X132848200Y-235788200I-1200000J0D01*
G01*
X158551900Y-123376458D02*
X158551900Y-122901942D01*
X157506900Y-123376458D02*
X157506900Y-122901942D01*
X101158800Y-60411800D02*
X101158800Y-64311800D01*
X103158800Y-60411800D02*
X103158800Y-64311800D01*
X103158800Y-60411800D02*
X101158800Y-60411800D01*
X182649600Y-61094400D02*
X186664600Y-61086800D01*
X182650500Y-73485800D02*
X186665500Y-73478200D01*
X182649600Y-61094400D02*
X182649600Y-73474400D01*
X168418000Y-127279400D02*
X168418000Y-126339600D01*
X170740300Y-155388542D02*
X170740300Y-155863058D01*
X171785300Y-155388542D02*
X171785300Y-155863058D01*
X120385100Y-53704258D02*
X120385100Y-53229742D01*
X119340100Y-53704258D02*
X119340100Y-53229742D01*
X169365600Y-173062000D02*
X169365600Y-170777000D01*
X167895600Y-173062000D02*
X169365600Y-173062000D01*
X167895600Y-170777000D02*
X167895600Y-173062000D01*
X127037000Y-62349748D02*
X127037000Y-62872252D01*
X125567000Y-62349748D02*
X125567000Y-62872252D01*
X106669100Y-144204458D02*
X106669100Y-143729942D01*
X105624100Y-144204458D02*
X105624100Y-143729942D01*
D13*
X179665200Y-114436000D02*
X179665200Y-119436000D01*
X179665200Y-119436000D02*
X159665200Y-119436000D01*
X159665200Y-114436000D02*
X179665200Y-114436000D01*
X159665200Y-119436000D02*
X159665200Y-114436000D01*
D14*
X182649600Y-91752400D02*
X186664600Y-91744800D01*
X182649600Y-91752400D02*
X182649600Y-104132400D01*
X182650500Y-104143800D02*
X186665500Y-104136200D01*
X139459580Y-214479600D02*
X139178420Y-214479600D01*
X139459580Y-213459600D02*
X139178420Y-213459600D01*
X108789800Y-157874600D02*
X108789800Y-160159600D01*
X110259800Y-157874600D02*
X108789800Y-157874600D01*
X110259800Y-160159600D02*
X110259800Y-157874600D01*
X112359000Y-126923800D02*
X112359000Y-126273800D01*
X115479000Y-126923800D02*
X115479000Y-126273800D01*
X112359000Y-126923800D02*
X112359000Y-128598800D01*
X115479000Y-126923800D02*
X115479000Y-127573800D01*
X167209800Y-80174200D02*
X168679800Y-80174200D01*
X168679800Y-80174200D02*
X168679800Y-77889200D01*
X167209800Y-77889200D02*
X167209800Y-80174200D01*
X138934800Y-202663400D02*
X139384800Y-202663400D01*
X139384800Y-209883400D02*
X139384800Y-211173400D01*
X146154800Y-209433400D02*
X146154800Y-209883400D01*
X138934800Y-209433400D02*
X138934800Y-209883400D01*
X146154800Y-209883400D02*
X145704800Y-209883400D01*
X146154800Y-203113400D02*
X146154800Y-202663400D01*
X146154800Y-202663400D02*
X145704800Y-202663400D01*
X138934800Y-209883400D02*
X139384800Y-209883400D01*
X138934800Y-203113400D02*
X138934800Y-202663400D01*
D13*
X178085000Y-227630000D02*
X158235000Y-227630000D01*
D14*
X158235000Y-202230000D02*
X178085000Y-202230000D01*
D13*
X158235000Y-227630000D02*
X158235000Y-202230000D01*
D14*
X164094600Y-141960600D02*
X164094600Y-142610600D01*
X160974600Y-141960600D02*
X160974600Y-141310600D01*
X164094600Y-141960600D02*
X164094600Y-140285600D01*
X160974600Y-141960600D02*
X160974600Y-142610600D01*
X172429700Y-139411942D02*
X172429700Y-139886458D01*
X171384700Y-139411942D02*
X171384700Y-139886458D01*
D15*
X149876200Y-218413600D02*
X147516200Y-218413600D01*
X151246200Y-223213600D02*
X151246200Y-218713600D01*
X146146200Y-223213600D02*
X146146200Y-218713600D01*
X147516200Y-223513600D02*
X149876200Y-223513600D01*
D14*
X139975000Y-217697164D02*
X139975000Y-217912836D01*
X140695000Y-217697164D02*
X140695000Y-217912836D01*
D13*
X179829800Y-177224800D02*
X179829800Y-182224800D01*
X159829800Y-182224800D02*
X159829800Y-177224800D01*
X179829800Y-182224800D02*
X159829800Y-182224800D01*
X159829800Y-177224800D02*
X179829800Y-177224800D01*
D14*
X114613458Y-191095100D02*
X114138942Y-191095100D01*
X114613458Y-192140100D02*
X114138942Y-192140100D01*
X118317742Y-74280500D02*
X118792258Y-74280500D01*
X118317742Y-75325500D02*
X118792258Y-75325500D01*
X92889600Y-145890000D02*
X88874600Y-145897600D01*
X92888700Y-133498600D02*
X88873700Y-133506200D01*
X92889600Y-145890000D02*
X92889600Y-133510000D01*
X161324800Y-65161200D02*
X161324800Y-65811200D01*
X161324800Y-65161200D02*
X161324800Y-64511200D01*
X164444800Y-65161200D02*
X164444800Y-65811200D01*
X164444800Y-65161200D02*
X164444800Y-63486200D01*
X96367600Y-75209400D02*
X95427800Y-75209400D01*
X157758100Y-108898458D02*
X157758100Y-108423942D01*
X158803100Y-108898458D02*
X158803100Y-108423942D01*
X105907100Y-98814558D02*
X105907100Y-98340042D01*
X104862100Y-98814558D02*
X104862100Y-98340042D01*
X113965258Y-206055700D02*
X113490742Y-206055700D01*
X113965258Y-207100700D02*
X113490742Y-207100700D01*
X171333900Y-171339742D02*
X171333900Y-171814258D01*
X172378900Y-171339742D02*
X172378900Y-171814258D01*
X118276900Y-158665142D02*
X118276900Y-159139658D01*
X117231900Y-158665142D02*
X117231900Y-159139658D01*
X118226100Y-205070942D02*
X118226100Y-205545458D01*
X117181100Y-205070942D02*
X117181100Y-205545458D01*
D13*
X95791000Y-184395000D02*
X95791000Y-179395000D01*
X95791000Y-179395000D02*
X115791000Y-179395000D01*
X115791000Y-179395000D02*
X115791000Y-184395000D01*
X115791000Y-184395000D02*
X95791000Y-184395000D01*
D14*
X170597300Y-93615742D02*
X170597300Y-94090258D01*
X171642300Y-93615742D02*
X171642300Y-94090258D01*
D13*
X115791000Y-209875000D02*
X115791000Y-214875000D01*
X95791000Y-209875000D02*
X115791000Y-209875000D01*
X95791000Y-214875000D02*
X95791000Y-209875000D01*
X115791000Y-214875000D02*
X95791000Y-214875000D01*
D14*
X106857800Y-155702000D02*
X106857800Y-156641800D01*
X137353600Y-196493200D02*
X140013600Y-196493200D01*
X138683600Y-188753200D02*
X140013600Y-188753200D01*
X137353600Y-191353200D02*
X140013600Y-191353200D01*
X137353600Y-191353200D02*
X137353600Y-196493200D01*
X140013600Y-188753200D02*
X140013600Y-190083200D01*
X140013600Y-191353200D02*
X140013600Y-196493200D01*
X171246800Y-143408400D02*
X171246800Y-142468600D01*
X106578400Y-201422000D02*
X106578400Y-202361800D01*
X162373542Y-170169100D02*
X162848058Y-170169100D01*
X162373542Y-169124100D02*
X162848058Y-169124100D01*
X110132800Y-144767200D02*
X110132800Y-142482200D01*
X108662800Y-142482200D02*
X108662800Y-144767200D01*
X110132800Y-142482200D02*
X108662800Y-142482200D01*
X161754542Y-121219700D02*
X162229058Y-121219700D01*
X161754542Y-122264700D02*
X162229058Y-122264700D01*
X168555900Y-123308342D02*
X168555900Y-123782858D01*
X169600900Y-123308342D02*
X169600900Y-123782858D01*
X162221142Y-153680900D02*
X162695658Y-153680900D01*
X162221142Y-154725900D02*
X162695658Y-154725900D01*
X114620000Y-65864200D02*
X121220000Y-65864200D01*
X121220000Y-65864200D02*
X121220000Y-59764200D01*
X121220000Y-59764200D02*
X114620000Y-59764200D01*
X114620000Y-59764200D02*
X114620000Y-65864200D01*
X105111400Y-83515200D02*
G75*
G03*
X105111400Y-83515200I-1200000J0D01*
G01*
D13*
X95791000Y-199635000D02*
X95791000Y-194635000D01*
X115791000Y-194635000D02*
X115791000Y-199635000D01*
X95791000Y-194635000D02*
X115791000Y-194635000D01*
X115791000Y-199635000D02*
X95791000Y-199635000D01*
D14*
X128797000Y-77689837D02*
X128797000Y-78975400D01*
X129861437Y-83445400D02*
X135617000Y-83445400D01*
X135617000Y-83445400D02*
X135617000Y-81095400D01*
X128797000Y-82380963D02*
X128797000Y-81095400D01*
X128797000Y-82380963D02*
X129861437Y-83445400D01*
X135617000Y-76625400D02*
X135617000Y-78975400D01*
X129861437Y-76625400D02*
X135617000Y-76625400D01*
X128797000Y-77689837D02*
X129861437Y-76625400D01*
X117994200Y-69431780D02*
X117994200Y-69150620D01*
X119014200Y-69431780D02*
X119014200Y-69150620D01*
X115453600Y-203098400D02*
X115453600Y-202448400D01*
X115453600Y-203098400D02*
X115453600Y-203748400D01*
X112333600Y-203098400D02*
X112333600Y-202448400D01*
X112333600Y-203098400D02*
X112333600Y-204773400D01*
D13*
X179545000Y-68335000D02*
X179545000Y-73335000D01*
X159545000Y-73335000D02*
X159545000Y-68335000D01*
X159545000Y-68335000D02*
X179545000Y-68335000D01*
X179545000Y-73335000D02*
X159545000Y-73335000D01*
D16*
X120325400Y-68783200D02*
G75*
G03*
X120325400Y-68783200I-100000J0D01*
G01*
D15*
X122345400Y-73213200D02*
X126245400Y-73213200D01*
X122345400Y-68163200D02*
X126245400Y-68163200D01*
D14*
X105954300Y-190483258D02*
X105954300Y-190008742D01*
X106999300Y-190483258D02*
X106999300Y-190008742D01*
X160847600Y-157835600D02*
X160847600Y-157185600D01*
X160847600Y-157835600D02*
X160847600Y-158485600D01*
X163967600Y-157835600D02*
X163967600Y-158485600D01*
X163967600Y-157835600D02*
X163967600Y-156160600D01*
X170602400Y-159232600D02*
X170602400Y-158292800D01*
X171332100Y-62815742D02*
X171332100Y-63290258D01*
X170287100Y-62815742D02*
X170287100Y-63290258D01*
X117032300Y-98314742D02*
X117032300Y-98789258D01*
X115987300Y-98314742D02*
X115987300Y-98789258D01*
X136363400Y-138653600D02*
X136363400Y-141253600D01*
X136363400Y-136053600D02*
X137693400Y-136053600D01*
X136363400Y-138653600D02*
X139023400Y-138653600D01*
X136363400Y-141253600D02*
X139023400Y-141253600D01*
X139023400Y-138653600D02*
X139023400Y-141253600D01*
X136363400Y-137383600D02*
X136363400Y-136053600D01*
X122737342Y-75300100D02*
X123211858Y-75300100D01*
X122737342Y-74255100D02*
X123211858Y-74255100D01*
X158789900Y-155812258D02*
X158789900Y-155337742D01*
X157744900Y-155812258D02*
X157744900Y-155337742D01*
X115477058Y-222248700D02*
X115002542Y-222248700D01*
X115477058Y-223293700D02*
X115002542Y-223293700D01*
X92889600Y-100678000D02*
X92889600Y-88298000D01*
X92888700Y-88286600D02*
X88873700Y-88294200D01*
X92889600Y-100678000D02*
X88874600Y-100685600D01*
X92888700Y-103176000D02*
X88873700Y-103183600D01*
X92889600Y-115567400D02*
X92889600Y-103187400D01*
X92889600Y-115567400D02*
X88874600Y-115575000D01*
X158608500Y-94395058D02*
X158608500Y-93920542D01*
X159653500Y-94395058D02*
X159653500Y-93920542D01*
X92889600Y-130650000D02*
X88874600Y-130657600D01*
X92889600Y-130650000D02*
X92889600Y-118270000D01*
X92888700Y-118258600D02*
X88873700Y-118266200D01*
X118692600Y-54241600D02*
X118692600Y-51956600D01*
X118692600Y-51956600D02*
X117222600Y-51956600D01*
X117222600Y-51956600D02*
X117222600Y-54241600D01*
X107850000Y-97168500D02*
X107850000Y-99453500D01*
X109320000Y-97168500D02*
X107850000Y-97168500D01*
X109320000Y-99453500D02*
X109320000Y-97168500D01*
X92888700Y-194763400D02*
X88873700Y-194771000D01*
X92889600Y-207154800D02*
X92889600Y-194774800D01*
X92889600Y-207154800D02*
X88874600Y-207162400D01*
X129475400Y-69291252D02*
X129475400Y-67868748D01*
X132195400Y-69291252D02*
X132195400Y-67868748D01*
X166588000Y-107810400D02*
X166588000Y-110095400D01*
X166588000Y-110095400D02*
X168058000Y-110095400D01*
X168058000Y-110095400D02*
X168058000Y-107810400D01*
X172886900Y-187506342D02*
X172886900Y-187980858D01*
X171841900Y-187506342D02*
X171841900Y-187980858D01*
X112079600Y-141782800D02*
X112079600Y-143457800D01*
X115199600Y-141782800D02*
X115199600Y-141132800D01*
X112079600Y-141782800D02*
X112079600Y-141132800D01*
X115199600Y-141782800D02*
X115199600Y-142432800D01*
X148950000Y-203676364D02*
X148950000Y-203892036D01*
X148230000Y-203676364D02*
X148230000Y-203892036D01*
X97612200Y-61000200D02*
X98262200Y-61000200D01*
X97612200Y-64120200D02*
X96962200Y-64120200D01*
X97612200Y-64120200D02*
X99287200Y-64120200D01*
X97612200Y-61000200D02*
X96962200Y-61000200D01*
X170459400Y-97688400D02*
X170459400Y-96748600D01*
X92889600Y-176370000D02*
X88874600Y-176377600D01*
X92889600Y-176370000D02*
X92889600Y-163990000D01*
X92888700Y-163978600D02*
X88873700Y-163986200D01*
D13*
X95816400Y-118216600D02*
X115816400Y-118216600D01*
X115816400Y-118216600D02*
X115816400Y-123216600D01*
X115816400Y-123216600D02*
X95816400Y-123216600D01*
X95816400Y-123216600D02*
X95816400Y-118216600D01*
X159829800Y-150540800D02*
X159829800Y-145540800D01*
X179829800Y-150540800D02*
X159829800Y-150540800D01*
X159829800Y-145540800D02*
X179829800Y-145540800D01*
X179829800Y-145540800D02*
X179829800Y-150540800D01*
D14*
X110463000Y-191096800D02*
X110463000Y-188811800D01*
X110463000Y-188811800D02*
X108993000Y-188811800D01*
X108993000Y-188811800D02*
X108993000Y-191096800D01*
X112028800Y-111531400D02*
X112028800Y-113206400D01*
X115148800Y-111531400D02*
X115148800Y-112181400D01*
X112028800Y-111531400D02*
X112028800Y-110881400D01*
X115148800Y-111531400D02*
X115148800Y-110881400D01*
X113749858Y-145835900D02*
X113275342Y-145835900D01*
X113749858Y-144790900D02*
X113275342Y-144790900D01*
X170698900Y-78502742D02*
X170698900Y-78977258D01*
X171743900Y-78502742D02*
X171743900Y-78977258D01*
X92888700Y-70100200D02*
X88873700Y-70107800D01*
X92889600Y-82491600D02*
X92889600Y-70111600D01*
X92889600Y-82491600D02*
X88874600Y-82499200D01*
X164780400Y-95935800D02*
X164780400Y-94260800D01*
X161660400Y-95935800D02*
X161660400Y-96585800D01*
X161660400Y-95935800D02*
X161660400Y-95285800D01*
X164780400Y-95935800D02*
X164780400Y-96585800D01*
X158358100Y-187575458D02*
X158358100Y-187100942D01*
X157313100Y-187575458D02*
X157313100Y-187100942D01*
X182650500Y-134471400D02*
X186665500Y-134463800D01*
X182649600Y-122080000D02*
X182649600Y-134460000D01*
X182649600Y-122080000D02*
X186664600Y-122072400D01*
X160822200Y-189128400D02*
X160822200Y-189778400D01*
X163942200Y-189128400D02*
X163942200Y-187453400D01*
X160822200Y-189128400D02*
X160822200Y-188478400D01*
X163942200Y-189128400D02*
X163942200Y-189778400D01*
X113953058Y-161329900D02*
X113478542Y-161329900D01*
X113953058Y-160284900D02*
X113478542Y-160284900D01*
X92809600Y-65054400D02*
X92809600Y-66384400D01*
X92809600Y-66384400D02*
X91479600Y-66384400D01*
X92809600Y-63784400D02*
X92809600Y-61184400D01*
X92809600Y-63784400D02*
X90149600Y-63784400D01*
X92809600Y-61184400D02*
X90149600Y-61184400D01*
X90149600Y-63784400D02*
X90149600Y-61184400D01*
X106426000Y-109956600D02*
X106426000Y-110896400D01*
X107188000Y-170764200D02*
X107188000Y-171704000D01*
X158151300Y-171865058D02*
X158151300Y-171390542D01*
X159196300Y-171865058D02*
X159196300Y-171390542D01*
X106070400Y-95249900D02*
X106070400Y-96189700D01*
X171678600Y-191668400D02*
X171678600Y-190728600D01*
X182650500Y-182096400D02*
X186665500Y-182088800D01*
X182649600Y-169705000D02*
X186664600Y-169697400D01*
X182649600Y-169705000D02*
X182649600Y-182085000D01*
X171196000Y-175641000D02*
X171196000Y-174701200D01*
X139426836Y-212805600D02*
X139211164Y-212805600D01*
X139426836Y-212085600D02*
X139211164Y-212085600D01*
X113305858Y-100369900D02*
X112831342Y-100369900D01*
X113305858Y-99324900D02*
X112831342Y-99324900D01*
X116800100Y-143272742D02*
X116800100Y-143747258D01*
X117845100Y-143272742D02*
X117845100Y-143747258D01*
X162246542Y-138698500D02*
X162721058Y-138698500D01*
X162246542Y-137653500D02*
X162721058Y-137653500D01*
X115352000Y-157378400D02*
X115352000Y-158028400D01*
X112232000Y-157378400D02*
X112232000Y-159053400D01*
X112232000Y-157378400D02*
X112232000Y-156728400D01*
X115352000Y-157378400D02*
X115352000Y-156728400D01*
D13*
X115816400Y-138278800D02*
X95816400Y-138278800D01*
X95816400Y-138278800D02*
X95816400Y-133278800D01*
X95816400Y-133278800D02*
X115816400Y-133278800D01*
X115816400Y-133278800D02*
X115816400Y-138278800D01*
D14*
X114767800Y-96596200D02*
X114767800Y-97246200D01*
X111647800Y-96596200D02*
X111647800Y-98271200D01*
X114767800Y-96596200D02*
X114767800Y-95946200D01*
X111647800Y-96596200D02*
X111647800Y-95946200D01*
X161381000Y-80594200D02*
X161381000Y-81244200D01*
X164501000Y-80594200D02*
X164501000Y-81244200D01*
X164501000Y-80594200D02*
X164501000Y-78919200D01*
X161381000Y-80594200D02*
X161381000Y-79944200D01*
%LPC*%
G36*
X127798400Y-70954200D02*
G01*
X127800400Y-70954200D01*
X127803400Y-70955200D01*
X127805400Y-70955200D01*
X127808400Y-70956200D01*
X127810400Y-70957200D01*
X127813400Y-70958200D01*
X127815400Y-70960200D01*
X127817400Y-70961200D01*
X127819400Y-70963200D01*
X127821400Y-70964200D01*
X127829400Y-70972200D01*
X127830400Y-70974200D01*
X127832400Y-70976200D01*
X127833400Y-70978200D01*
X127835400Y-70980200D01*
X127836400Y-70983200D01*
X127837400Y-70985200D01*
X127838400Y-70988200D01*
X127838400Y-70990200D01*
X127839400Y-70993200D01*
X127839400Y-70995200D01*
X127840400Y-70998200D01*
X127840400Y-71648200D01*
X127839400Y-71651200D01*
X127839400Y-71653200D01*
X127838400Y-71656200D01*
X127838400Y-71658200D01*
X127837400Y-71661200D01*
X127836400Y-71663200D01*
X127835400Y-71666200D01*
X127833400Y-71668200D01*
X127832400Y-71670200D01*
X127830400Y-71672200D01*
X127829400Y-71674200D01*
X127821400Y-71682200D01*
X127819400Y-71683200D01*
X127817400Y-71685200D01*
X127815400Y-71686200D01*
X127813400Y-71688200D01*
X127810400Y-71689200D01*
X127808400Y-71690200D01*
X127805400Y-71691200D01*
X127803400Y-71691200D01*
X127800400Y-71692200D01*
X127798400Y-71692200D01*
X127795400Y-71693200D01*
X126195400Y-71693200D01*
X126192400Y-71692200D01*
X126190400Y-71692200D01*
X126187400Y-71691200D01*
X126185400Y-71691200D01*
X126182400Y-71690200D01*
X126180400Y-71689200D01*
X126177400Y-71688200D01*
X126175400Y-71686200D01*
X126173400Y-71685200D01*
X126171400Y-71683200D01*
X126169400Y-71682200D01*
X126161400Y-71674200D01*
X126160400Y-71672200D01*
X126158400Y-71670200D01*
X126157400Y-71668200D01*
X126155400Y-71666200D01*
X126154400Y-71663200D01*
X126153400Y-71661200D01*
X126152400Y-71658200D01*
X126152400Y-71656200D01*
X126151400Y-71653200D01*
X126151400Y-71651200D01*
X126150400Y-71648200D01*
X126150400Y-70998200D01*
X126151400Y-70995200D01*
X126151400Y-70993200D01*
X126152400Y-70990200D01*
X126152400Y-70988200D01*
X126153400Y-70985200D01*
X126154400Y-70983200D01*
X126155400Y-70980200D01*
X126157400Y-70978200D01*
X126158400Y-70976200D01*
X126160400Y-70974200D01*
X126161400Y-70972200D01*
X126169400Y-70964200D01*
X126171400Y-70963200D01*
X126173400Y-70961200D01*
X126175400Y-70960200D01*
X126177400Y-70958200D01*
X126180400Y-70957200D01*
X126182400Y-70956200D01*
X126185400Y-70955200D01*
X126187400Y-70955200D01*
X126190400Y-70954200D01*
X126192400Y-70954200D01*
X126195400Y-70953200D01*
X127795400Y-70953200D01*
X127798400Y-70954200D01*
G37*
D17*
X127798400Y-70954200D02*
X127800400Y-70954200D01*
X127803400Y-70955200D01*
X127805400Y-70955200D01*
X127808400Y-70956200D01*
X127810400Y-70957200D01*
X127813400Y-70958200D01*
X127815400Y-70960200D01*
X127817400Y-70961200D01*
X127819400Y-70963200D01*
X127821400Y-70964200D01*
X127829400Y-70972200D01*
X127830400Y-70974200D01*
X127832400Y-70976200D01*
X127833400Y-70978200D01*
X127835400Y-70980200D01*
X127836400Y-70983200D01*
X127837400Y-70985200D01*
X127838400Y-70988200D01*
X127838400Y-70990200D01*
X127839400Y-70993200D01*
X127839400Y-70995200D01*
X127840400Y-70998200D01*
X127840400Y-71648200D01*
X127839400Y-71651200D01*
X127839400Y-71653200D01*
X127838400Y-71656200D01*
X127838400Y-71658200D01*
X127837400Y-71661200D01*
X127836400Y-71663200D01*
X127835400Y-71666200D01*
X127833400Y-71668200D01*
X127832400Y-71670200D01*
X127830400Y-71672200D01*
X127829400Y-71674200D01*
X127821400Y-71682200D01*
X127819400Y-71683200D01*
X127817400Y-71685200D01*
X127815400Y-71686200D01*
X127813400Y-71688200D01*
X127810400Y-71689200D01*
X127808400Y-71690200D01*
X127805400Y-71691200D01*
X127803400Y-71691200D01*
X127800400Y-71692200D01*
X127798400Y-71692200D01*
X127795400Y-71693200D01*
X126195400Y-71693200D01*
X126192400Y-71692200D01*
X126190400Y-71692200D01*
X126187400Y-71691200D01*
X126185400Y-71691200D01*
X126182400Y-71690200D01*
X126180400Y-71689200D01*
X126177400Y-71688200D01*
X126175400Y-71686200D01*
X126173400Y-71685200D01*
X126171400Y-71683200D01*
X126169400Y-71682200D01*
X126161400Y-71674200D01*
X126160400Y-71672200D01*
X126158400Y-71670200D01*
X126157400Y-71668200D01*
X126155400Y-71666200D01*
X126154400Y-71663200D01*
X126153400Y-71661200D01*
X126152400Y-71658200D01*
X126152400Y-71656200D01*
X126151400Y-71653200D01*
X126151400Y-71651200D01*
X126150400Y-71648200D01*
X126150400Y-70998200D01*
X126151400Y-70995200D01*
X126151400Y-70993200D01*
X126152400Y-70990200D01*
X126152400Y-70988200D01*
X126153400Y-70985200D01*
X126154400Y-70983200D01*
X126155400Y-70980200D01*
X126157400Y-70978200D01*
X126158400Y-70976200D01*
X126160400Y-70974200D01*
X126161400Y-70972200D01*
X126169400Y-70964200D01*
X126171400Y-70963200D01*
X126173400Y-70961200D01*
X126175400Y-70960200D01*
X126177400Y-70958200D01*
X126180400Y-70957200D01*
X126182400Y-70956200D01*
X126185400Y-70955200D01*
X126187400Y-70955200D01*
X126190400Y-70954200D01*
X126192400Y-70954200D01*
X126195400Y-70953200D01*
X127795400Y-70953200D01*
X127798400Y-70954200D01*
G36*
X122398400Y-72224200D02*
G01*
X122400400Y-72224200D01*
X122403400Y-72225200D01*
X122405400Y-72225200D01*
X122408400Y-72226200D01*
X122410400Y-72227200D01*
X122413400Y-72228200D01*
X122415400Y-72230200D01*
X122417400Y-72231200D01*
X122419400Y-72233200D01*
X122421400Y-72234200D01*
X122429400Y-72242200D01*
X122430400Y-72244200D01*
X122432400Y-72246200D01*
X122433400Y-72248200D01*
X122435400Y-72250200D01*
X122436400Y-72253200D01*
X122437400Y-72255200D01*
X122438400Y-72258200D01*
X122438400Y-72260200D01*
X122439400Y-72263200D01*
X122439400Y-72265200D01*
X122440400Y-72268200D01*
X122440400Y-72918200D01*
X122439400Y-72921200D01*
X122439400Y-72923200D01*
X122438400Y-72926200D01*
X122438400Y-72928200D01*
X122437400Y-72931200D01*
X122436400Y-72933200D01*
X122435400Y-72936200D01*
X122433400Y-72938200D01*
X122432400Y-72940200D01*
X122430400Y-72942200D01*
X122429400Y-72944200D01*
X122421400Y-72952200D01*
X122419400Y-72953200D01*
X122417400Y-72955200D01*
X122415400Y-72956200D01*
X122413400Y-72958200D01*
X122410400Y-72959200D01*
X122408400Y-72960200D01*
X122405400Y-72961200D01*
X122403400Y-72961200D01*
X122400400Y-72962200D01*
X122398400Y-72962200D01*
X122395400Y-72963200D01*
X120795400Y-72963200D01*
X120792400Y-72962200D01*
X120790400Y-72962200D01*
X120787400Y-72961200D01*
X120785400Y-72961200D01*
X120782400Y-72960200D01*
X120780400Y-72959200D01*
X120777400Y-72958200D01*
X120775400Y-72956200D01*
X120773400Y-72955200D01*
X120771400Y-72953200D01*
X120769400Y-72952200D01*
X120761400Y-72944200D01*
X120760400Y-72942200D01*
X120758400Y-72940200D01*
X120757400Y-72938200D01*
X120755400Y-72936200D01*
X120754400Y-72933200D01*
X120753400Y-72931200D01*
X120752400Y-72928200D01*
X120752400Y-72926200D01*
X120751400Y-72923200D01*
X120751400Y-72921200D01*
X120750400Y-72918200D01*
X120750400Y-72268200D01*
X120751400Y-72265200D01*
X120751400Y-72263200D01*
X120752400Y-72260200D01*
X120752400Y-72258200D01*
X120753400Y-72255200D01*
X120754400Y-72253200D01*
X120755400Y-72250200D01*
X120757400Y-72248200D01*
X120758400Y-72246200D01*
X120760400Y-72244200D01*
X120761400Y-72242200D01*
X120769400Y-72234200D01*
X120771400Y-72233200D01*
X120773400Y-72231200D01*
X120775400Y-72230200D01*
X120777400Y-72228200D01*
X120780400Y-72227200D01*
X120782400Y-72226200D01*
X120785400Y-72225200D01*
X120787400Y-72225200D01*
X120790400Y-72224200D01*
X120792400Y-72224200D01*
X120795400Y-72223200D01*
X122395400Y-72223200D01*
X122398400Y-72224200D01*
G37*
X122398400Y-72224200D02*
X122400400Y-72224200D01*
X122403400Y-72225200D01*
X122405400Y-72225200D01*
X122408400Y-72226200D01*
X122410400Y-72227200D01*
X122413400Y-72228200D01*
X122415400Y-72230200D01*
X122417400Y-72231200D01*
X122419400Y-72233200D01*
X122421400Y-72234200D01*
X122429400Y-72242200D01*
X122430400Y-72244200D01*
X122432400Y-72246200D01*
X122433400Y-72248200D01*
X122435400Y-72250200D01*
X122436400Y-72253200D01*
X122437400Y-72255200D01*
X122438400Y-72258200D01*
X122438400Y-72260200D01*
X122439400Y-72263200D01*
X122439400Y-72265200D01*
X122440400Y-72268200D01*
X122440400Y-72918200D01*
X122439400Y-72921200D01*
X122439400Y-72923200D01*
X122438400Y-72926200D01*
X122438400Y-72928200D01*
X122437400Y-72931200D01*
X122436400Y-72933200D01*
X122435400Y-72936200D01*
X122433400Y-72938200D01*
X122432400Y-72940200D01*
X122430400Y-72942200D01*
X122429400Y-72944200D01*
X122421400Y-72952200D01*
X122419400Y-72953200D01*
X122417400Y-72955200D01*
X122415400Y-72956200D01*
X122413400Y-72958200D01*
X122410400Y-72959200D01*
X122408400Y-72960200D01*
X122405400Y-72961200D01*
X122403400Y-72961200D01*
X122400400Y-72962200D01*
X122398400Y-72962200D01*
X122395400Y-72963200D01*
X120795400Y-72963200D01*
X120792400Y-72962200D01*
X120790400Y-72962200D01*
X120787400Y-72961200D01*
X120785400Y-72961200D01*
X120782400Y-72960200D01*
X120780400Y-72959200D01*
X120777400Y-72958200D01*
X120775400Y-72956200D01*
X120773400Y-72955200D01*
X120771400Y-72953200D01*
X120769400Y-72952200D01*
X120761400Y-72944200D01*
X120760400Y-72942200D01*
X120758400Y-72940200D01*
X120757400Y-72938200D01*
X120755400Y-72936200D01*
X120754400Y-72933200D01*
X120753400Y-72931200D01*
X120752400Y-72928200D01*
X120752400Y-72926200D01*
X120751400Y-72923200D01*
X120751400Y-72921200D01*
X120750400Y-72918200D01*
X120750400Y-72268200D01*
X120751400Y-72265200D01*
X120751400Y-72263200D01*
X120752400Y-72260200D01*
X120752400Y-72258200D01*
X120753400Y-72255200D01*
X120754400Y-72253200D01*
X120755400Y-72250200D01*
X120757400Y-72248200D01*
X120758400Y-72246200D01*
X120760400Y-72244200D01*
X120761400Y-72242200D01*
X120769400Y-72234200D01*
X120771400Y-72233200D01*
X120773400Y-72231200D01*
X120775400Y-72230200D01*
X120777400Y-72228200D01*
X120780400Y-72227200D01*
X120782400Y-72226200D01*
X120785400Y-72225200D01*
X120787400Y-72225200D01*
X120790400Y-72224200D01*
X120792400Y-72224200D01*
X120795400Y-72223200D01*
X122395400Y-72223200D01*
X122398400Y-72224200D01*
G36*
X122398400Y-70954200D02*
G01*
X122400400Y-70954200D01*
X122403400Y-70955200D01*
X122405400Y-70955200D01*
X122408400Y-70956200D01*
X122410400Y-70957200D01*
X122413400Y-70958200D01*
X122415400Y-70960200D01*
X122417400Y-70961200D01*
X122419400Y-70963200D01*
X122421400Y-70964200D01*
X122429400Y-70972200D01*
X122430400Y-70974200D01*
X122432400Y-70976200D01*
X122433400Y-70978200D01*
X122435400Y-70980200D01*
X122436400Y-70983200D01*
X122437400Y-70985200D01*
X122438400Y-70988200D01*
X122438400Y-70990200D01*
X122439400Y-70993200D01*
X122439400Y-70995200D01*
X122440400Y-70998200D01*
X122440400Y-71648200D01*
X122439400Y-71651200D01*
X122439400Y-71653200D01*
X122438400Y-71656200D01*
X122438400Y-71658200D01*
X122437400Y-71661200D01*
X122436400Y-71663200D01*
X122435400Y-71666200D01*
X122433400Y-71668200D01*
X122432400Y-71670200D01*
X122430400Y-71672200D01*
X122429400Y-71674200D01*
X122421400Y-71682200D01*
X122419400Y-71683200D01*
X122417400Y-71685200D01*
X122415400Y-71686200D01*
X122413400Y-71688200D01*
X122410400Y-71689200D01*
X122408400Y-71690200D01*
X122405400Y-71691200D01*
X122403400Y-71691200D01*
X122400400Y-71692200D01*
X122398400Y-71692200D01*
X122395400Y-71693200D01*
X120795400Y-71693200D01*
X120792400Y-71692200D01*
X120790400Y-71692200D01*
X120787400Y-71691200D01*
X120785400Y-71691200D01*
X120782400Y-71690200D01*
X120780400Y-71689200D01*
X120777400Y-71688200D01*
X120775400Y-71686200D01*
X120773400Y-71685200D01*
X120771400Y-71683200D01*
X120769400Y-71682200D01*
X120761400Y-71674200D01*
X120760400Y-71672200D01*
X120758400Y-71670200D01*
X120757400Y-71668200D01*
X120755400Y-71666200D01*
X120754400Y-71663200D01*
X120753400Y-71661200D01*
X120752400Y-71658200D01*
X120752400Y-71656200D01*
X120751400Y-71653200D01*
X120751400Y-71651200D01*
X120750400Y-71648200D01*
X120750400Y-70998200D01*
X120751400Y-70995200D01*
X120751400Y-70993200D01*
X120752400Y-70990200D01*
X120752400Y-70988200D01*
X120753400Y-70985200D01*
X120754400Y-70983200D01*
X120755400Y-70980200D01*
X120757400Y-70978200D01*
X120758400Y-70976200D01*
X120760400Y-70974200D01*
X120761400Y-70972200D01*
X120769400Y-70964200D01*
X120771400Y-70963200D01*
X120773400Y-70961200D01*
X120775400Y-70960200D01*
X120777400Y-70958200D01*
X120780400Y-70957200D01*
X120782400Y-70956200D01*
X120785400Y-70955200D01*
X120787400Y-70955200D01*
X120790400Y-70954200D01*
X120792400Y-70954200D01*
X120795400Y-70953200D01*
X122395400Y-70953200D01*
X122398400Y-70954200D01*
G37*
X122398400Y-70954200D02*
X122400400Y-70954200D01*
X122403400Y-70955200D01*
X122405400Y-70955200D01*
X122408400Y-70956200D01*
X122410400Y-70957200D01*
X122413400Y-70958200D01*
X122415400Y-70960200D01*
X122417400Y-70961200D01*
X122419400Y-70963200D01*
X122421400Y-70964200D01*
X122429400Y-70972200D01*
X122430400Y-70974200D01*
X122432400Y-70976200D01*
X122433400Y-70978200D01*
X122435400Y-70980200D01*
X122436400Y-70983200D01*
X122437400Y-70985200D01*
X122438400Y-70988200D01*
X122438400Y-70990200D01*
X122439400Y-70993200D01*
X122439400Y-70995200D01*
X122440400Y-70998200D01*
X122440400Y-71648200D01*
X122439400Y-71651200D01*
X122439400Y-71653200D01*
X122438400Y-71656200D01*
X122438400Y-71658200D01*
X122437400Y-71661200D01*
X122436400Y-71663200D01*
X122435400Y-71666200D01*
X122433400Y-71668200D01*
X122432400Y-71670200D01*
X122430400Y-71672200D01*
X122429400Y-71674200D01*
X122421400Y-71682200D01*
X122419400Y-71683200D01*
X122417400Y-71685200D01*
X122415400Y-71686200D01*
X122413400Y-71688200D01*
X122410400Y-71689200D01*
X122408400Y-71690200D01*
X122405400Y-71691200D01*
X122403400Y-71691200D01*
X122400400Y-71692200D01*
X122398400Y-71692200D01*
X122395400Y-71693200D01*
X120795400Y-71693200D01*
X120792400Y-71692200D01*
X120790400Y-71692200D01*
X120787400Y-71691200D01*
X120785400Y-71691200D01*
X120782400Y-71690200D01*
X120780400Y-71689200D01*
X120777400Y-71688200D01*
X120775400Y-71686200D01*
X120773400Y-71685200D01*
X120771400Y-71683200D01*
X120769400Y-71682200D01*
X120761400Y-71674200D01*
X120760400Y-71672200D01*
X120758400Y-71670200D01*
X120757400Y-71668200D01*
X120755400Y-71666200D01*
X120754400Y-71663200D01*
X120753400Y-71661200D01*
X120752400Y-71658200D01*
X120752400Y-71656200D01*
X120751400Y-71653200D01*
X120751400Y-71651200D01*
X120750400Y-71648200D01*
X120750400Y-70998200D01*
X120751400Y-70995200D01*
X120751400Y-70993200D01*
X120752400Y-70990200D01*
X120752400Y-70988200D01*
X120753400Y-70985200D01*
X120754400Y-70983200D01*
X120755400Y-70980200D01*
X120757400Y-70978200D01*
X120758400Y-70976200D01*
X120760400Y-70974200D01*
X120761400Y-70972200D01*
X120769400Y-70964200D01*
X120771400Y-70963200D01*
X120773400Y-70961200D01*
X120775400Y-70960200D01*
X120777400Y-70958200D01*
X120780400Y-70957200D01*
X120782400Y-70956200D01*
X120785400Y-70955200D01*
X120787400Y-70955200D01*
X120790400Y-70954200D01*
X120792400Y-70954200D01*
X120795400Y-70953200D01*
X122395400Y-70953200D01*
X122398400Y-70954200D01*
G36*
X122398400Y-68414200D02*
G01*
X122400400Y-68414200D01*
X122403400Y-68415200D01*
X122405400Y-68415200D01*
X122408400Y-68416200D01*
X122410400Y-68417200D01*
X122413400Y-68418200D01*
X122415400Y-68420200D01*
X122417400Y-68421200D01*
X122419400Y-68423200D01*
X122421400Y-68424200D01*
X122429400Y-68432200D01*
X122430400Y-68434200D01*
X122432400Y-68436200D01*
X122433400Y-68438200D01*
X122435400Y-68440200D01*
X122436400Y-68443200D01*
X122437400Y-68445200D01*
X122438400Y-68448200D01*
X122438400Y-68450200D01*
X122439400Y-68453200D01*
X122439400Y-68455200D01*
X122440400Y-68458200D01*
X122440400Y-69108200D01*
X122439400Y-69111200D01*
X122439400Y-69113200D01*
X122438400Y-69116200D01*
X122438400Y-69118200D01*
X122437400Y-69121200D01*
X122436400Y-69123200D01*
X122435400Y-69126200D01*
X122433400Y-69128200D01*
X122432400Y-69130200D01*
X122430400Y-69132200D01*
X122429400Y-69134200D01*
X122421400Y-69142200D01*
X122419400Y-69143200D01*
X122417400Y-69145200D01*
X122415400Y-69146200D01*
X122413400Y-69148200D01*
X122410400Y-69149200D01*
X122408400Y-69150200D01*
X122405400Y-69151200D01*
X122403400Y-69151200D01*
X122400400Y-69152200D01*
X122398400Y-69152200D01*
X122395400Y-69153200D01*
X120795400Y-69153200D01*
X120792400Y-69152200D01*
X120790400Y-69152200D01*
X120787400Y-69151200D01*
X120785400Y-69151200D01*
X120782400Y-69150200D01*
X120780400Y-69149200D01*
X120777400Y-69148200D01*
X120775400Y-69146200D01*
X120773400Y-69145200D01*
X120771400Y-69143200D01*
X120769400Y-69142200D01*
X120761400Y-69134200D01*
X120760400Y-69132200D01*
X120758400Y-69130200D01*
X120757400Y-69128200D01*
X120755400Y-69126200D01*
X120754400Y-69123200D01*
X120753400Y-69121200D01*
X120752400Y-69118200D01*
X120752400Y-69116200D01*
X120751400Y-69113200D01*
X120751400Y-69111200D01*
X120750400Y-69108200D01*
X120750400Y-68458200D01*
X120751400Y-68455200D01*
X120751400Y-68453200D01*
X120752400Y-68450200D01*
X120752400Y-68448200D01*
X120753400Y-68445200D01*
X120754400Y-68443200D01*
X120755400Y-68440200D01*
X120757400Y-68438200D01*
X120758400Y-68436200D01*
X120760400Y-68434200D01*
X120761400Y-68432200D01*
X120769400Y-68424200D01*
X120771400Y-68423200D01*
X120773400Y-68421200D01*
X120775400Y-68420200D01*
X120777400Y-68418200D01*
X120780400Y-68417200D01*
X120782400Y-68416200D01*
X120785400Y-68415200D01*
X120787400Y-68415200D01*
X120790400Y-68414200D01*
X120792400Y-68414200D01*
X120795400Y-68413200D01*
X122395400Y-68413200D01*
X122398400Y-68414200D01*
G37*
X122398400Y-68414200D02*
X122400400Y-68414200D01*
X122403400Y-68415200D01*
X122405400Y-68415200D01*
X122408400Y-68416200D01*
X122410400Y-68417200D01*
X122413400Y-68418200D01*
X122415400Y-68420200D01*
X122417400Y-68421200D01*
X122419400Y-68423200D01*
X122421400Y-68424200D01*
X122429400Y-68432200D01*
X122430400Y-68434200D01*
X122432400Y-68436200D01*
X122433400Y-68438200D01*
X122435400Y-68440200D01*
X122436400Y-68443200D01*
X122437400Y-68445200D01*
X122438400Y-68448200D01*
X122438400Y-68450200D01*
X122439400Y-68453200D01*
X122439400Y-68455200D01*
X122440400Y-68458200D01*
X122440400Y-69108200D01*
X122439400Y-69111200D01*
X122439400Y-69113200D01*
X122438400Y-69116200D01*
X122438400Y-69118200D01*
X122437400Y-69121200D01*
X122436400Y-69123200D01*
X122435400Y-69126200D01*
X122433400Y-69128200D01*
X122432400Y-69130200D01*
X122430400Y-69132200D01*
X122429400Y-69134200D01*
X122421400Y-69142200D01*
X122419400Y-69143200D01*
X122417400Y-69145200D01*
X122415400Y-69146200D01*
X122413400Y-69148200D01*
X122410400Y-69149200D01*
X122408400Y-69150200D01*
X122405400Y-69151200D01*
X122403400Y-69151200D01*
X122400400Y-69152200D01*
X122398400Y-69152200D01*
X122395400Y-69153200D01*
X120795400Y-69153200D01*
X120792400Y-69152200D01*
X120790400Y-69152200D01*
X120787400Y-69151200D01*
X120785400Y-69151200D01*
X120782400Y-69150200D01*
X120780400Y-69149200D01*
X120777400Y-69148200D01*
X120775400Y-69146200D01*
X120773400Y-69145200D01*
X120771400Y-69143200D01*
X120769400Y-69142200D01*
X120761400Y-69134200D01*
X120760400Y-69132200D01*
X120758400Y-69130200D01*
X120757400Y-69128200D01*
X120755400Y-69126200D01*
X120754400Y-69123200D01*
X120753400Y-69121200D01*
X120752400Y-69118200D01*
X120752400Y-69116200D01*
X120751400Y-69113200D01*
X120751400Y-69111200D01*
X120750400Y-69108200D01*
X120750400Y-68458200D01*
X120751400Y-68455200D01*
X120751400Y-68453200D01*
X120752400Y-68450200D01*
X120752400Y-68448200D01*
X120753400Y-68445200D01*
X120754400Y-68443200D01*
X120755400Y-68440200D01*
X120757400Y-68438200D01*
X120758400Y-68436200D01*
X120760400Y-68434200D01*
X120761400Y-68432200D01*
X120769400Y-68424200D01*
X120771400Y-68423200D01*
X120773400Y-68421200D01*
X120775400Y-68420200D01*
X120777400Y-68418200D01*
X120780400Y-68417200D01*
X120782400Y-68416200D01*
X120785400Y-68415200D01*
X120787400Y-68415200D01*
X120790400Y-68414200D01*
X120792400Y-68414200D01*
X120795400Y-68413200D01*
X122395400Y-68413200D01*
X122398400Y-68414200D01*
G36*
X125650400Y-72388200D02*
G01*
X122940400Y-72388200D01*
X122940400Y-68988200D01*
X125650400Y-68988200D01*
X125650400Y-72388200D01*
G37*
X125650400Y-72388200D02*
X122940400Y-72388200D01*
X122940400Y-68988200D01*
X125650400Y-68988200D01*
X125650400Y-72388200D01*
G36*
X127798400Y-68414200D02*
G01*
X127800400Y-68414200D01*
X127803400Y-68415200D01*
X127805400Y-68415200D01*
X127808400Y-68416200D01*
X127810400Y-68417200D01*
X127813400Y-68418200D01*
X127815400Y-68420200D01*
X127817400Y-68421200D01*
X127819400Y-68423200D01*
X127821400Y-68424200D01*
X127829400Y-68432200D01*
X127830400Y-68434200D01*
X127832400Y-68436200D01*
X127833400Y-68438200D01*
X127835400Y-68440200D01*
X127836400Y-68443200D01*
X127837400Y-68445200D01*
X127838400Y-68448200D01*
X127838400Y-68450200D01*
X127839400Y-68453200D01*
X127839400Y-68455200D01*
X127840400Y-68458200D01*
X127840400Y-69108200D01*
X127839400Y-69111200D01*
X127839400Y-69113200D01*
X127838400Y-69116200D01*
X127838400Y-69118200D01*
X127837400Y-69121200D01*
X127836400Y-69123200D01*
X127835400Y-69126200D01*
X127833400Y-69128200D01*
X127832400Y-69130200D01*
X127830400Y-69132200D01*
X127829400Y-69134200D01*
X127821400Y-69142200D01*
X127819400Y-69143200D01*
X127817400Y-69145200D01*
X127815400Y-69146200D01*
X127813400Y-69148200D01*
X127810400Y-69149200D01*
X127808400Y-69150200D01*
X127805400Y-69151200D01*
X127803400Y-69151200D01*
X127800400Y-69152200D01*
X127798400Y-69152200D01*
X127795400Y-69153200D01*
X126195400Y-69153200D01*
X126192400Y-69152200D01*
X126190400Y-69152200D01*
X126187400Y-69151200D01*
X126185400Y-69151200D01*
X126182400Y-69150200D01*
X126180400Y-69149200D01*
X126177400Y-69148200D01*
X126175400Y-69146200D01*
X126173400Y-69145200D01*
X126171400Y-69143200D01*
X126169400Y-69142200D01*
X126161400Y-69134200D01*
X126160400Y-69132200D01*
X126158400Y-69130200D01*
X126157400Y-69128200D01*
X126155400Y-69126200D01*
X126154400Y-69123200D01*
X126153400Y-69121200D01*
X126152400Y-69118200D01*
X126152400Y-69116200D01*
X126151400Y-69113200D01*
X126151400Y-69111200D01*
X126150400Y-69108200D01*
X126150400Y-68458200D01*
X126151400Y-68455200D01*
X126151400Y-68453200D01*
X126152400Y-68450200D01*
X126152400Y-68448200D01*
X126153400Y-68445200D01*
X126154400Y-68443200D01*
X126155400Y-68440200D01*
X126157400Y-68438200D01*
X126158400Y-68436200D01*
X126160400Y-68434200D01*
X126161400Y-68432200D01*
X126169400Y-68424200D01*
X126171400Y-68423200D01*
X126173400Y-68421200D01*
X126175400Y-68420200D01*
X126177400Y-68418200D01*
X126180400Y-68417200D01*
X126182400Y-68416200D01*
X126185400Y-68415200D01*
X126187400Y-68415200D01*
X126190400Y-68414200D01*
X126192400Y-68414200D01*
X126195400Y-68413200D01*
X127795400Y-68413200D01*
X127798400Y-68414200D01*
G37*
X127798400Y-68414200D02*
X127800400Y-68414200D01*
X127803400Y-68415200D01*
X127805400Y-68415200D01*
X127808400Y-68416200D01*
X127810400Y-68417200D01*
X127813400Y-68418200D01*
X127815400Y-68420200D01*
X127817400Y-68421200D01*
X127819400Y-68423200D01*
X127821400Y-68424200D01*
X127829400Y-68432200D01*
X127830400Y-68434200D01*
X127832400Y-68436200D01*
X127833400Y-68438200D01*
X127835400Y-68440200D01*
X127836400Y-68443200D01*
X127837400Y-68445200D01*
X127838400Y-68448200D01*
X127838400Y-68450200D01*
X127839400Y-68453200D01*
X127839400Y-68455200D01*
X127840400Y-68458200D01*
X127840400Y-69108200D01*
X127839400Y-69111200D01*
X127839400Y-69113200D01*
X127838400Y-69116200D01*
X127838400Y-69118200D01*
X127837400Y-69121200D01*
X127836400Y-69123200D01*
X127835400Y-69126200D01*
X127833400Y-69128200D01*
X127832400Y-69130200D01*
X127830400Y-69132200D01*
X127829400Y-69134200D01*
X127821400Y-69142200D01*
X127819400Y-69143200D01*
X127817400Y-69145200D01*
X127815400Y-69146200D01*
X127813400Y-69148200D01*
X127810400Y-69149200D01*
X127808400Y-69150200D01*
X127805400Y-69151200D01*
X127803400Y-69151200D01*
X127800400Y-69152200D01*
X127798400Y-69152200D01*
X127795400Y-69153200D01*
X126195400Y-69153200D01*
X126192400Y-69152200D01*
X126190400Y-69152200D01*
X126187400Y-69151200D01*
X126185400Y-69151200D01*
X126182400Y-69150200D01*
X126180400Y-69149200D01*
X126177400Y-69148200D01*
X126175400Y-69146200D01*
X126173400Y-69145200D01*
X126171400Y-69143200D01*
X126169400Y-69142200D01*
X126161400Y-69134200D01*
X126160400Y-69132200D01*
X126158400Y-69130200D01*
X126157400Y-69128200D01*
X126155400Y-69126200D01*
X126154400Y-69123200D01*
X126153400Y-69121200D01*
X126152400Y-69118200D01*
X126152400Y-69116200D01*
X126151400Y-69113200D01*
X126151400Y-69111200D01*
X126150400Y-69108200D01*
X126150400Y-68458200D01*
X126151400Y-68455200D01*
X126151400Y-68453200D01*
X126152400Y-68450200D01*
X126152400Y-68448200D01*
X126153400Y-68445200D01*
X126154400Y-68443200D01*
X126155400Y-68440200D01*
X126157400Y-68438200D01*
X126158400Y-68436200D01*
X126160400Y-68434200D01*
X126161400Y-68432200D01*
X126169400Y-68424200D01*
X126171400Y-68423200D01*
X126173400Y-68421200D01*
X126175400Y-68420200D01*
X126177400Y-68418200D01*
X126180400Y-68417200D01*
X126182400Y-68416200D01*
X126185400Y-68415200D01*
X126187400Y-68415200D01*
X126190400Y-68414200D01*
X126192400Y-68414200D01*
X126195400Y-68413200D01*
X127795400Y-68413200D01*
X127798400Y-68414200D01*
G36*
X122398400Y-69684200D02*
G01*
X122400400Y-69684200D01*
X122403400Y-69685200D01*
X122405400Y-69685200D01*
X122408400Y-69686200D01*
X122410400Y-69687200D01*
X122413400Y-69688200D01*
X122415400Y-69690200D01*
X122417400Y-69691200D01*
X122419400Y-69693200D01*
X122421400Y-69694200D01*
X122429400Y-69702200D01*
X122430400Y-69704200D01*
X122432400Y-69706200D01*
X122433400Y-69708200D01*
X122435400Y-69710200D01*
X122436400Y-69713200D01*
X122437400Y-69715200D01*
X122438400Y-69718200D01*
X122438400Y-69720200D01*
X122439400Y-69723200D01*
X122439400Y-69725200D01*
X122440400Y-69728200D01*
X122440400Y-70378200D01*
X122439400Y-70381200D01*
X122439400Y-70383200D01*
X122438400Y-70386200D01*
X122438400Y-70388200D01*
X122437400Y-70391200D01*
X122436400Y-70393200D01*
X122435400Y-70396200D01*
X122433400Y-70398200D01*
X122432400Y-70400200D01*
X122430400Y-70402200D01*
X122429400Y-70404200D01*
X122421400Y-70412200D01*
X122419400Y-70413200D01*
X122417400Y-70415200D01*
X122415400Y-70416200D01*
X122413400Y-70418200D01*
X122410400Y-70419200D01*
X122408400Y-70420200D01*
X122405400Y-70421200D01*
X122403400Y-70421200D01*
X122400400Y-70422200D01*
X122398400Y-70422200D01*
X122395400Y-70423200D01*
X120795400Y-70423200D01*
X120792400Y-70422200D01*
X120790400Y-70422200D01*
X120787400Y-70421200D01*
X120785400Y-70421200D01*
X120782400Y-70420200D01*
X120780400Y-70419200D01*
X120777400Y-70418200D01*
X120775400Y-70416200D01*
X120773400Y-70415200D01*
X120771400Y-70413200D01*
X120769400Y-70412200D01*
X120761400Y-70404200D01*
X120760400Y-70402200D01*
X120758400Y-70400200D01*
X120757400Y-70398200D01*
X120755400Y-70396200D01*
X120754400Y-70393200D01*
X120753400Y-70391200D01*
X120752400Y-70388200D01*
X120752400Y-70386200D01*
X120751400Y-70383200D01*
X120751400Y-70381200D01*
X120750400Y-70378200D01*
X120750400Y-69728200D01*
X120751400Y-69725200D01*
X120751400Y-69723200D01*
X120752400Y-69720200D01*
X120752400Y-69718200D01*
X120753400Y-69715200D01*
X120754400Y-69713200D01*
X120755400Y-69710200D01*
X120757400Y-69708200D01*
X120758400Y-69706200D01*
X120760400Y-69704200D01*
X120761400Y-69702200D01*
X120769400Y-69694200D01*
X120771400Y-69693200D01*
X120773400Y-69691200D01*
X120775400Y-69690200D01*
X120777400Y-69688200D01*
X120780400Y-69687200D01*
X120782400Y-69686200D01*
X120785400Y-69685200D01*
X120787400Y-69685200D01*
X120790400Y-69684200D01*
X120792400Y-69684200D01*
X120795400Y-69683200D01*
X122395400Y-69683200D01*
X122398400Y-69684200D01*
G37*
X122398400Y-69684200D02*
X122400400Y-69684200D01*
X122403400Y-69685200D01*
X122405400Y-69685200D01*
X122408400Y-69686200D01*
X122410400Y-69687200D01*
X122413400Y-69688200D01*
X122415400Y-69690200D01*
X122417400Y-69691200D01*
X122419400Y-69693200D01*
X122421400Y-69694200D01*
X122429400Y-69702200D01*
X122430400Y-69704200D01*
X122432400Y-69706200D01*
X122433400Y-69708200D01*
X122435400Y-69710200D01*
X122436400Y-69713200D01*
X122437400Y-69715200D01*
X122438400Y-69718200D01*
X122438400Y-69720200D01*
X122439400Y-69723200D01*
X122439400Y-69725200D01*
X122440400Y-69728200D01*
X122440400Y-70378200D01*
X122439400Y-70381200D01*
X122439400Y-70383200D01*
X122438400Y-70386200D01*
X122438400Y-70388200D01*
X122437400Y-70391200D01*
X122436400Y-70393200D01*
X122435400Y-70396200D01*
X122433400Y-70398200D01*
X122432400Y-70400200D01*
X122430400Y-70402200D01*
X122429400Y-70404200D01*
X122421400Y-70412200D01*
X122419400Y-70413200D01*
X122417400Y-70415200D01*
X122415400Y-70416200D01*
X122413400Y-70418200D01*
X122410400Y-70419200D01*
X122408400Y-70420200D01*
X122405400Y-70421200D01*
X122403400Y-70421200D01*
X122400400Y-70422200D01*
X122398400Y-70422200D01*
X122395400Y-70423200D01*
X120795400Y-70423200D01*
X120792400Y-70422200D01*
X120790400Y-70422200D01*
X120787400Y-70421200D01*
X120785400Y-70421200D01*
X120782400Y-70420200D01*
X120780400Y-70419200D01*
X120777400Y-70418200D01*
X120775400Y-70416200D01*
X120773400Y-70415200D01*
X120771400Y-70413200D01*
X120769400Y-70412200D01*
X120761400Y-70404200D01*
X120760400Y-70402200D01*
X120758400Y-70400200D01*
X120757400Y-70398200D01*
X120755400Y-70396200D01*
X120754400Y-70393200D01*
X120753400Y-70391200D01*
X120752400Y-70388200D01*
X120752400Y-70386200D01*
X120751400Y-70383200D01*
X120751400Y-70381200D01*
X120750400Y-70378200D01*
X120750400Y-69728200D01*
X120751400Y-69725200D01*
X120751400Y-69723200D01*
X120752400Y-69720200D01*
X120752400Y-69718200D01*
X120753400Y-69715200D01*
X120754400Y-69713200D01*
X120755400Y-69710200D01*
X120757400Y-69708200D01*
X120758400Y-69706200D01*
X120760400Y-69704200D01*
X120761400Y-69702200D01*
X120769400Y-69694200D01*
X120771400Y-69693200D01*
X120773400Y-69691200D01*
X120775400Y-69690200D01*
X120777400Y-69688200D01*
X120780400Y-69687200D01*
X120782400Y-69686200D01*
X120785400Y-69685200D01*
X120787400Y-69685200D01*
X120790400Y-69684200D01*
X120792400Y-69684200D01*
X120795400Y-69683200D01*
X122395400Y-69683200D01*
X122398400Y-69684200D01*
G36*
X127798400Y-69684200D02*
G01*
X127800400Y-69684200D01*
X127803400Y-69685200D01*
X127805400Y-69685200D01*
X127808400Y-69686200D01*
X127810400Y-69687200D01*
X127813400Y-69688200D01*
X127815400Y-69690200D01*
X127817400Y-69691200D01*
X127819400Y-69693200D01*
X127821400Y-69694200D01*
X127829400Y-69702200D01*
X127830400Y-69704200D01*
X127832400Y-69706200D01*
X127833400Y-69708200D01*
X127835400Y-69710200D01*
X127836400Y-69713200D01*
X127837400Y-69715200D01*
X127838400Y-69718200D01*
X127838400Y-69720200D01*
X127839400Y-69723200D01*
X127839400Y-69725200D01*
X127840400Y-69728200D01*
X127840400Y-70378200D01*
X127839400Y-70381200D01*
X127839400Y-70383200D01*
X127838400Y-70386200D01*
X127838400Y-70388200D01*
X127837400Y-70391200D01*
X127836400Y-70393200D01*
X127835400Y-70396200D01*
X127833400Y-70398200D01*
X127832400Y-70400200D01*
X127830400Y-70402200D01*
X127829400Y-70404200D01*
X127821400Y-70412200D01*
X127819400Y-70413200D01*
X127817400Y-70415200D01*
X127815400Y-70416200D01*
X127813400Y-70418200D01*
X127810400Y-70419200D01*
X127808400Y-70420200D01*
X127805400Y-70421200D01*
X127803400Y-70421200D01*
X127800400Y-70422200D01*
X127798400Y-70422200D01*
X127795400Y-70423200D01*
X126195400Y-70423200D01*
X126192400Y-70422200D01*
X126190400Y-70422200D01*
X126187400Y-70421200D01*
X126185400Y-70421200D01*
X126182400Y-70420200D01*
X126180400Y-70419200D01*
X126177400Y-70418200D01*
X126175400Y-70416200D01*
X126173400Y-70415200D01*
X126171400Y-70413200D01*
X126169400Y-70412200D01*
X126161400Y-70404200D01*
X126160400Y-70402200D01*
X126158400Y-70400200D01*
X126157400Y-70398200D01*
X126155400Y-70396200D01*
X126154400Y-70393200D01*
X126153400Y-70391200D01*
X126152400Y-70388200D01*
X126152400Y-70386200D01*
X126151400Y-70383200D01*
X126151400Y-70381200D01*
X126150400Y-70378200D01*
X126150400Y-69728200D01*
X126151400Y-69725200D01*
X126151400Y-69723200D01*
X126152400Y-69720200D01*
X126152400Y-69718200D01*
X126153400Y-69715200D01*
X126154400Y-69713200D01*
X126155400Y-69710200D01*
X126157400Y-69708200D01*
X126158400Y-69706200D01*
X126160400Y-69704200D01*
X126161400Y-69702200D01*
X126169400Y-69694200D01*
X126171400Y-69693200D01*
X126173400Y-69691200D01*
X126175400Y-69690200D01*
X126177400Y-69688200D01*
X126180400Y-69687200D01*
X126182400Y-69686200D01*
X126185400Y-69685200D01*
X126187400Y-69685200D01*
X126190400Y-69684200D01*
X126192400Y-69684200D01*
X126195400Y-69683200D01*
X127795400Y-69683200D01*
X127798400Y-69684200D01*
G37*
X127798400Y-69684200D02*
X127800400Y-69684200D01*
X127803400Y-69685200D01*
X127805400Y-69685200D01*
X127808400Y-69686200D01*
X127810400Y-69687200D01*
X127813400Y-69688200D01*
X127815400Y-69690200D01*
X127817400Y-69691200D01*
X127819400Y-69693200D01*
X127821400Y-69694200D01*
X127829400Y-69702200D01*
X127830400Y-69704200D01*
X127832400Y-69706200D01*
X127833400Y-69708200D01*
X127835400Y-69710200D01*
X127836400Y-69713200D01*
X127837400Y-69715200D01*
X127838400Y-69718200D01*
X127838400Y-69720200D01*
X127839400Y-69723200D01*
X127839400Y-69725200D01*
X127840400Y-69728200D01*
X127840400Y-70378200D01*
X127839400Y-70381200D01*
X127839400Y-70383200D01*
X127838400Y-70386200D01*
X127838400Y-70388200D01*
X127837400Y-70391200D01*
X127836400Y-70393200D01*
X127835400Y-70396200D01*
X127833400Y-70398200D01*
X127832400Y-70400200D01*
X127830400Y-70402200D01*
X127829400Y-70404200D01*
X127821400Y-70412200D01*
X127819400Y-70413200D01*
X127817400Y-70415200D01*
X127815400Y-70416200D01*
X127813400Y-70418200D01*
X127810400Y-70419200D01*
X127808400Y-70420200D01*
X127805400Y-70421200D01*
X127803400Y-70421200D01*
X127800400Y-70422200D01*
X127798400Y-70422200D01*
X127795400Y-70423200D01*
X126195400Y-70423200D01*
X126192400Y-70422200D01*
X126190400Y-70422200D01*
X126187400Y-70421200D01*
X126185400Y-70421200D01*
X126182400Y-70420200D01*
X126180400Y-70419200D01*
X126177400Y-70418200D01*
X126175400Y-70416200D01*
X126173400Y-70415200D01*
X126171400Y-70413200D01*
X126169400Y-70412200D01*
X126161400Y-70404200D01*
X126160400Y-70402200D01*
X126158400Y-70400200D01*
X126157400Y-70398200D01*
X126155400Y-70396200D01*
X126154400Y-70393200D01*
X126153400Y-70391200D01*
X126152400Y-70388200D01*
X126152400Y-70386200D01*
X126151400Y-70383200D01*
X126151400Y-70381200D01*
X126150400Y-70378200D01*
X126150400Y-69728200D01*
X126151400Y-69725200D01*
X126151400Y-69723200D01*
X126152400Y-69720200D01*
X126152400Y-69718200D01*
X126153400Y-69715200D01*
X126154400Y-69713200D01*
X126155400Y-69710200D01*
X126157400Y-69708200D01*
X126158400Y-69706200D01*
X126160400Y-69704200D01*
X126161400Y-69702200D01*
X126169400Y-69694200D01*
X126171400Y-69693200D01*
X126173400Y-69691200D01*
X126175400Y-69690200D01*
X126177400Y-69688200D01*
X126180400Y-69687200D01*
X126182400Y-69686200D01*
X126185400Y-69685200D01*
X126187400Y-69685200D01*
X126190400Y-69684200D01*
X126192400Y-69684200D01*
X126195400Y-69683200D01*
X127795400Y-69683200D01*
X127798400Y-69684200D01*
G36*
X127798400Y-72224200D02*
G01*
X127800400Y-72224200D01*
X127803400Y-72225200D01*
X127805400Y-72225200D01*
X127808400Y-72226200D01*
X127810400Y-72227200D01*
X127813400Y-72228200D01*
X127815400Y-72230200D01*
X127817400Y-72231200D01*
X127819400Y-72233200D01*
X127821400Y-72234200D01*
X127829400Y-72242200D01*
X127830400Y-72244200D01*
X127832400Y-72246200D01*
X127833400Y-72248200D01*
X127835400Y-72250200D01*
X127836400Y-72253200D01*
X127837400Y-72255200D01*
X127838400Y-72258200D01*
X127838400Y-72260200D01*
X127839400Y-72263200D01*
X127839400Y-72265200D01*
X127840400Y-72268200D01*
X127840400Y-72918200D01*
X127839400Y-72921200D01*
X127839400Y-72923200D01*
X127838400Y-72926200D01*
X127838400Y-72928200D01*
X127837400Y-72931200D01*
X127836400Y-72933200D01*
X127835400Y-72936200D01*
X127833400Y-72938200D01*
X127832400Y-72940200D01*
X127830400Y-72942200D01*
X127829400Y-72944200D01*
X127821400Y-72952200D01*
X127819400Y-72953200D01*
X127817400Y-72955200D01*
X127815400Y-72956200D01*
X127813400Y-72958200D01*
X127810400Y-72959200D01*
X127808400Y-72960200D01*
X127805400Y-72961200D01*
X127803400Y-72961200D01*
X127800400Y-72962200D01*
X127798400Y-72962200D01*
X127795400Y-72963200D01*
X126195400Y-72963200D01*
X126192400Y-72962200D01*
X126190400Y-72962200D01*
X126187400Y-72961200D01*
X126185400Y-72961200D01*
X126182400Y-72960200D01*
X126180400Y-72959200D01*
X126177400Y-72958200D01*
X126175400Y-72956200D01*
X126173400Y-72955200D01*
X126171400Y-72953200D01*
X126169400Y-72952200D01*
X126161400Y-72944200D01*
X126160400Y-72942200D01*
X126158400Y-72940200D01*
X126157400Y-72938200D01*
X126155400Y-72936200D01*
X126154400Y-72933200D01*
X126153400Y-72931200D01*
X126152400Y-72928200D01*
X126152400Y-72926200D01*
X126151400Y-72923200D01*
X126151400Y-72921200D01*
X126150400Y-72918200D01*
X126150400Y-72268200D01*
X126151400Y-72265200D01*
X126151400Y-72263200D01*
X126152400Y-72260200D01*
X126152400Y-72258200D01*
X126153400Y-72255200D01*
X126154400Y-72253200D01*
X126155400Y-72250200D01*
X126157400Y-72248200D01*
X126158400Y-72246200D01*
X126160400Y-72244200D01*
X126161400Y-72242200D01*
X126169400Y-72234200D01*
X126171400Y-72233200D01*
X126173400Y-72231200D01*
X126175400Y-72230200D01*
X126177400Y-72228200D01*
X126180400Y-72227200D01*
X126182400Y-72226200D01*
X126185400Y-72225200D01*
X126187400Y-72225200D01*
X126190400Y-72224200D01*
X126192400Y-72224200D01*
X126195400Y-72223200D01*
X127795400Y-72223200D01*
X127798400Y-72224200D01*
G37*
X127798400Y-72224200D02*
X127800400Y-72224200D01*
X127803400Y-72225200D01*
X127805400Y-72225200D01*
X127808400Y-72226200D01*
X127810400Y-72227200D01*
X127813400Y-72228200D01*
X127815400Y-72230200D01*
X127817400Y-72231200D01*
X127819400Y-72233200D01*
X127821400Y-72234200D01*
X127829400Y-72242200D01*
X127830400Y-72244200D01*
X127832400Y-72246200D01*
X127833400Y-72248200D01*
X127835400Y-72250200D01*
X127836400Y-72253200D01*
X127837400Y-72255200D01*
X127838400Y-72258200D01*
X127838400Y-72260200D01*
X127839400Y-72263200D01*
X127839400Y-72265200D01*
X127840400Y-72268200D01*
X127840400Y-72918200D01*
X127839400Y-72921200D01*
X127839400Y-72923200D01*
X127838400Y-72926200D01*
X127838400Y-72928200D01*
X127837400Y-72931200D01*
X127836400Y-72933200D01*
X127835400Y-72936200D01*
X127833400Y-72938200D01*
X127832400Y-72940200D01*
X127830400Y-72942200D01*
X127829400Y-72944200D01*
X127821400Y-72952200D01*
X127819400Y-72953200D01*
X127817400Y-72955200D01*
X127815400Y-72956200D01*
X127813400Y-72958200D01*
X127810400Y-72959200D01*
X127808400Y-72960200D01*
X127805400Y-72961200D01*
X127803400Y-72961200D01*
X127800400Y-72962200D01*
X127798400Y-72962200D01*
X127795400Y-72963200D01*
X126195400Y-72963200D01*
X126192400Y-72962200D01*
X126190400Y-72962200D01*
X126187400Y-72961200D01*
X126185400Y-72961200D01*
X126182400Y-72960200D01*
X126180400Y-72959200D01*
X126177400Y-72958200D01*
X126175400Y-72956200D01*
X126173400Y-72955200D01*
X126171400Y-72953200D01*
X126169400Y-72952200D01*
X126161400Y-72944200D01*
X126160400Y-72942200D01*
X126158400Y-72940200D01*
X126157400Y-72938200D01*
X126155400Y-72936200D01*
X126154400Y-72933200D01*
X126153400Y-72931200D01*
X126152400Y-72928200D01*
X126152400Y-72926200D01*
X126151400Y-72923200D01*
X126151400Y-72921200D01*
X126150400Y-72918200D01*
X126150400Y-72268200D01*
X126151400Y-72265200D01*
X126151400Y-72263200D01*
X126152400Y-72260200D01*
X126152400Y-72258200D01*
X126153400Y-72255200D01*
X126154400Y-72253200D01*
X126155400Y-72250200D01*
X126157400Y-72248200D01*
X126158400Y-72246200D01*
X126160400Y-72244200D01*
X126161400Y-72242200D01*
X126169400Y-72234200D01*
X126171400Y-72233200D01*
X126173400Y-72231200D01*
X126175400Y-72230200D01*
X126177400Y-72228200D01*
X126180400Y-72227200D01*
X126182400Y-72226200D01*
X126185400Y-72225200D01*
X126187400Y-72225200D01*
X126190400Y-72224200D01*
X126192400Y-72224200D01*
X126195400Y-72223200D01*
X127795400Y-72223200D01*
X127798400Y-72224200D01*
D18*
X114681000Y-167558800D03*
X112141000Y-167558800D03*
D19*
X101981000Y-167558800D03*
X96901000Y-167558800D03*
D20*
X114437200Y-226618800D03*
X112537200Y-226618800D03*
D21*
X142595600Y-235788200D03*
D22*
X158902400Y-79082400D03*
X158902400Y-77432400D03*
D23*
X184759600Y-115570000D03*
D24*
X184759600Y-110490000D03*
D25*
X181838600Y-233146600D03*
D22*
X106197400Y-160184600D03*
X106197400Y-158534600D03*
D26*
X171205400Y-81965800D03*
X167935400Y-81965800D03*
D18*
X160939800Y-162615800D03*
X163479800Y-162615800D03*
D19*
X173639800Y-162615800D03*
X178719800Y-162615800D03*
D27*
X90779600Y-183235600D03*
D24*
X90779600Y-188315600D03*
D18*
X160939800Y-85023000D03*
X163479800Y-85023000D03*
D19*
X173639800Y-85023000D03*
X178719800Y-85023000D03*
D28*
X162840200Y-124665500D03*
X160940200Y-124665500D03*
X161890200Y-126540500D03*
D29*
X162173600Y-61529000D03*
X163823600Y-61529000D03*
D30*
X113451600Y-189075300D03*
X115351600Y-189075300D03*
X114401600Y-187200300D03*
D31*
X114286800Y-114808000D03*
X112636800Y-114808000D03*
D29*
X162446200Y-92151200D03*
X164096200Y-92151200D03*
D32*
X109245400Y-204444500D03*
X109245400Y-206019500D03*
D33*
X115506200Y-72034400D03*
X117056200Y-72034400D03*
D21*
X137312400Y-235788200D03*
D30*
X113212800Y-173329600D03*
X115112800Y-173329600D03*
X114162800Y-171454600D03*
D22*
X106553000Y-129831600D03*
X106553000Y-128181600D03*
D27*
X90779600Y-213807000D03*
D24*
X90779600Y-218887000D03*
D34*
X130429000Y-207414400D03*
X130429000Y-208434400D03*
D26*
X107229400Y-218021400D03*
X110499400Y-218021400D03*
X106137200Y-140639800D03*
X109407200Y-140639800D03*
D35*
X167868600Y-94640500D03*
X167868600Y-93065500D03*
D26*
X170844400Y-66304200D03*
X167574400Y-66304200D03*
D36*
X148190800Y-226119800D03*
X149150800Y-226119800D03*
D23*
X184759600Y-84963000D03*
D24*
X184759600Y-79883000D03*
D29*
X161824400Y-107442000D03*
X163474400Y-107442000D03*
D37*
X136398000Y-209750600D03*
X136398000Y-208790600D03*
D31*
X114617000Y-130276600D03*
X112967000Y-130276600D03*
D38*
X112140600Y-229703600D03*
D39*
X118440600Y-232003600D03*
D38*
X112140600Y-232003600D03*
X112140600Y-234303600D03*
D40*
X108839000Y-234299800D03*
X108839000Y-232399800D03*
D35*
X168630600Y-140335100D03*
X168630600Y-138760100D03*
D30*
X114340600Y-220127300D03*
X116240600Y-220127300D03*
X115290600Y-218252300D03*
D23*
X184759600Y-146685000D03*
D24*
X184759600Y-141605000D03*
D41*
X118084600Y-173774600D03*
X118084600Y-175424600D03*
D32*
X109804200Y-128219100D03*
X109804200Y-129794100D03*
D18*
X114681000Y-91958200D03*
X112141000Y-91958200D03*
D19*
X101981000Y-91958200D03*
X96901000Y-91958200D03*
D29*
X162166800Y-77089000D03*
X163816800Y-77089000D03*
D42*
X136741800Y-217830400D03*
X136741800Y-220030400D03*
X138441800Y-220030400D03*
X138441800Y-217830400D03*
D22*
X106527600Y-175399200D03*
X106527600Y-173749200D03*
D18*
X114681000Y-106680000D03*
X112141000Y-106680000D03*
D19*
X101981000Y-106680000D03*
X96901000Y-106680000D03*
D36*
X139016800Y-200050400D03*
X139976800Y-200050400D03*
D23*
X184759600Y-162560000D03*
D24*
X184759600Y-157480000D03*
D28*
X163408400Y-172493700D03*
X161508400Y-172493700D03*
X162458400Y-174368700D03*
D41*
X119354600Y-220498400D03*
X119354600Y-222148400D03*
D27*
X90779600Y-152400000D03*
D24*
X90779600Y-157480000D03*
D31*
X114871000Y-175818800D03*
X113221000Y-175818800D03*
D22*
X159024000Y-64198000D03*
X159024000Y-62548000D03*
D18*
X160939800Y-100462000D03*
X163479800Y-100462000D03*
D19*
X173639800Y-100462000D03*
X178719800Y-100462000D03*
D29*
X161404800Y-185521600D03*
X163054800Y-185521600D03*
D37*
X140335000Y-220520200D03*
X140335000Y-219560200D03*
D35*
X168021000Y-156387900D03*
X168021000Y-154812900D03*
D43*
X102148100Y-66802000D03*
X99223100Y-66802000D03*
D18*
X160939800Y-194340400D03*
X163479800Y-194340400D03*
D19*
X173639800Y-194340400D03*
X178719800Y-194340400D03*
D21*
X98475800Y-83515200D03*
D22*
X158546800Y-140728200D03*
X158546800Y-139078200D03*
X107289600Y-222123000D03*
X107289600Y-220473000D03*
X105968800Y-206031600D03*
X105968800Y-204381600D03*
D35*
X169087800Y-188391900D03*
X169087800Y-186816900D03*
D32*
X109728000Y-173812100D03*
X109728000Y-175387100D03*
D35*
X167563800Y-63754100D03*
X167563800Y-62179100D03*
D23*
X184759600Y-194310000D03*
D24*
X184759600Y-189230000D03*
D22*
X105740200Y-114413800D03*
X105740200Y-112763800D03*
D28*
X163548600Y-109958900D03*
X161648600Y-109958900D03*
X162598600Y-111833900D03*
D41*
X118364000Y-189573400D03*
X118364000Y-191223400D03*
D32*
X109093000Y-112852100D03*
X109093000Y-114427100D03*
D35*
X165878000Y-124282300D03*
X165878000Y-122707300D03*
D44*
X123508000Y-61661000D03*
X123508000Y-63561000D03*
D18*
X114706400Y-152410200D03*
X112166400Y-152410200D03*
D19*
X102006400Y-152410200D03*
X96926400Y-152410200D03*
D26*
X170583600Y-111988600D03*
X167313600Y-111988600D03*
D41*
X117424200Y-128130800D03*
X117424200Y-129780800D03*
X170586400Y-107836200D03*
X170586400Y-109486200D03*
D32*
X110490000Y-220586700D03*
X110490000Y-222161700D03*
D26*
X106442000Y-186944000D03*
X109712000Y-186944000D03*
X106543600Y-125603000D03*
X109813600Y-125603000D03*
D41*
X116890800Y-113246400D03*
X116890800Y-114896400D03*
D18*
X160939800Y-130723600D03*
X163479800Y-130723600D03*
D19*
X173639800Y-130723600D03*
X178719800Y-130723600D03*
D45*
X117605000Y-77216000D03*
X119505000Y-77216000D03*
D21*
X131648200Y-235788200D03*
D22*
X158029400Y-123964200D03*
X158029400Y-122314200D03*
D46*
X102158800Y-61011800D03*
X102158800Y-64311800D03*
D23*
X184759600Y-69824400D03*
D24*
X184759600Y-64744400D03*
D26*
X169087800Y-126796800D03*
X165817800Y-126796800D03*
D41*
X171262800Y-154800800D03*
X171262800Y-156450800D03*
D22*
X119862600Y-54292000D03*
X119862600Y-52642000D03*
D35*
X168630600Y-172364500D03*
X168630600Y-170789500D03*
D44*
X126302000Y-61661000D03*
X126302000Y-63561000D03*
D22*
X106146600Y-144792200D03*
X106146600Y-143142200D03*
D18*
X160775200Y-115636000D03*
X163315200Y-115636000D03*
D19*
X173475200Y-115636000D03*
X178555200Y-115636000D03*
D23*
X184759600Y-100482400D03*
D24*
X184759600Y-95402400D03*
D47*
X140094000Y-213969600D03*
X138544000Y-213969600D03*
D32*
X109524800Y-158572100D03*
X109524800Y-160147100D03*
D30*
X112969000Y-127861300D03*
X114869000Y-127861300D03*
X113919000Y-125986300D03*
D35*
X167944800Y-79476700D03*
X167944800Y-77901700D03*
D48*
X139794800Y-210435900D03*
X140294800Y-210435900D03*
X140794800Y-210435900D03*
X141294800Y-210435900D03*
X141794800Y-210435900D03*
X142294800Y-210435900D03*
X142794800Y-210435900D03*
X143294800Y-210435900D03*
X143794800Y-210435900D03*
X144294800Y-210435900D03*
X144794800Y-210435900D03*
X145294800Y-210435900D03*
D49*
X146707300Y-209023400D03*
X146707300Y-208523400D03*
X146707300Y-208023400D03*
X146707300Y-207523400D03*
X146707300Y-207023400D03*
X146707300Y-206523400D03*
X146707300Y-206023400D03*
X146707300Y-205523400D03*
X146707300Y-205023400D03*
X146707300Y-204523400D03*
X146707300Y-204023400D03*
X146707300Y-203523400D03*
D48*
X145294800Y-202110900D03*
X144794800Y-202110900D03*
X144294800Y-202110900D03*
X143794800Y-202110900D03*
X143294800Y-202110900D03*
X142794800Y-202110900D03*
X142294800Y-202110900D03*
X141794800Y-202110900D03*
X141294800Y-202110900D03*
X140794800Y-202110900D03*
X140294800Y-202110900D03*
X139794800Y-202110900D03*
D49*
X138382300Y-203523400D03*
X138382300Y-204023400D03*
X138382300Y-204523400D03*
X138382300Y-205023400D03*
X138382300Y-205523400D03*
X138382300Y-206023400D03*
X138382300Y-206523400D03*
X138382300Y-207023400D03*
X138382300Y-207523400D03*
X138382300Y-208023400D03*
X138382300Y-208523400D03*
X138382300Y-209023400D03*
D50*
X176835000Y-204770000D03*
D51*
X174295000Y-204770000D03*
X171755000Y-204770000D03*
X169215000Y-204770000D03*
X166675000Y-204770000D03*
X164135000Y-204770000D03*
D50*
X176835000Y-225090000D03*
D51*
X174295000Y-225090000D03*
X171755000Y-225090000D03*
X169215000Y-225090000D03*
X166675000Y-225090000D03*
X164135000Y-225090000D03*
D28*
X163484600Y-141023100D03*
X161584600Y-141023100D03*
X162534600Y-142898100D03*
D41*
X171907200Y-138824200D03*
X171907200Y-140474200D03*
D52*
X150571200Y-217963600D03*
X150571200Y-223963600D03*
X146821200Y-217963600D03*
X146821200Y-223963600D03*
D53*
X140335000Y-217325000D03*
X140335000Y-218285000D03*
D18*
X160939800Y-178424800D03*
X163479800Y-178424800D03*
D19*
X173639800Y-178424800D03*
X178719800Y-178424800D03*
D31*
X115201200Y-191617600D03*
X113551200Y-191617600D03*
D29*
X117730000Y-74803000D03*
X119380000Y-74803000D03*
D27*
X90779600Y-137160000D03*
D24*
X90779600Y-142240000D03*
D28*
X163834800Y-64223700D03*
X161934800Y-64223700D03*
X162884800Y-66098700D03*
D25*
X181838600Y-54940200D03*
D54*
X95885000Y-74539600D03*
X95885000Y-77809600D03*
D22*
X158280600Y-109486200D03*
X158280600Y-107836200D03*
X105384600Y-99402300D03*
X105384600Y-97752300D03*
D31*
X114553000Y-206578200D03*
X112903000Y-206578200D03*
D41*
X171856400Y-170752000D03*
X171856400Y-172402000D03*
X117754400Y-158077400D03*
X117754400Y-159727400D03*
X117703600Y-204483200D03*
X117703600Y-206133200D03*
D18*
X114681000Y-183195000D03*
X112141000Y-183195000D03*
D19*
X101981000Y-183195000D03*
X96901000Y-183195000D03*
D41*
X171119800Y-93028000D03*
X171119800Y-94678000D03*
D18*
X114681000Y-213675000D03*
X112141000Y-213675000D03*
D19*
X101981000Y-213675000D03*
X96901000Y-213675000D03*
D26*
X106188000Y-156184600D03*
X109458000Y-156184600D03*
D55*
X138683600Y-190083200D03*
D56*
X138683600Y-192623200D03*
X138683600Y-195163200D03*
D26*
X171916600Y-142925800D03*
X168646600Y-142925800D03*
X105908600Y-201904600D03*
X109178600Y-201904600D03*
D29*
X161785800Y-169646600D03*
X163435800Y-169646600D03*
D32*
X109397800Y-143179700D03*
X109397800Y-144754700D03*
D29*
X161166800Y-121742200D03*
X162816800Y-121742200D03*
D41*
X169078400Y-122720600D03*
X169078400Y-124370600D03*
D29*
X161633400Y-154203400D03*
X163283400Y-154203400D03*
D57*
X117920000Y-65739200D03*
X117920000Y-59889200D03*
D21*
X103911400Y-83515200D03*
D18*
X114681000Y-198435000D03*
X112141000Y-198435000D03*
D19*
X101981000Y-198435000D03*
X96901000Y-198435000D03*
D58*
X129669500Y-80035400D03*
X134744500Y-80035400D03*
D59*
X118504200Y-70066200D03*
X118504200Y-68516200D03*
D30*
X112943600Y-204035900D03*
X114843600Y-204035900D03*
X113893600Y-202160900D03*
D25*
X93395800Y-54940200D03*
D18*
X160655000Y-69535000D03*
X163195000Y-69535000D03*
D19*
X173355000Y-69535000D03*
X178435000Y-69535000D03*
D60*
X123645400Y-70038200D03*
X123645400Y-72638200D03*
X123645400Y-68738200D03*
X124945400Y-70038200D03*
X124945400Y-72638200D03*
X124945400Y-68738200D03*
X123645400Y-71338200D03*
X124945400Y-71338200D03*
D22*
X106476800Y-191071000D03*
X106476800Y-189421000D03*
D28*
X163357600Y-156898100D03*
X161457600Y-156898100D03*
X162407600Y-158773100D03*
D26*
X171272200Y-158750000D03*
X168002200Y-158750000D03*
D41*
X170809600Y-62228000D03*
X170809600Y-63878000D03*
X116509800Y-97727000D03*
X116509800Y-99377000D03*
D55*
X137693400Y-137383600D03*
D56*
X137693400Y-139923600D03*
D29*
X122149600Y-74777600D03*
X123799600Y-74777600D03*
D22*
X158267400Y-156400000D03*
X158267400Y-154750000D03*
D31*
X116064800Y-222771200D03*
X114414800Y-222771200D03*
D27*
X90779600Y-91948000D03*
D24*
X90779600Y-97028000D03*
D27*
X90779600Y-106837400D03*
D24*
X90779600Y-111917400D03*
D22*
X159131000Y-94982800D03*
X159131000Y-93332800D03*
D27*
X90779600Y-121920000D03*
D24*
X90779600Y-127000000D03*
D32*
X117957600Y-52654100D03*
X117957600Y-54229100D03*
X108585000Y-97866000D03*
X108585000Y-99441000D03*
D27*
X90779600Y-198424800D03*
D24*
X90779600Y-203504800D03*
D61*
X130835400Y-70055000D03*
X130835400Y-67105000D03*
D35*
X167323000Y-109397900D03*
X167323000Y-107822900D03*
D41*
X172364400Y-186918600D03*
X172364400Y-188568600D03*
D30*
X112689600Y-142720300D03*
X114589600Y-142720300D03*
X113639600Y-140845300D03*
D53*
X148590000Y-203304200D03*
X148590000Y-204264200D03*
D62*
X98549700Y-63510200D03*
X98549700Y-61610200D03*
X96674700Y-62560200D03*
D25*
X93395800Y-233146600D03*
D26*
X171129200Y-97205800D03*
X167859200Y-97205800D03*
D27*
X90779600Y-167640000D03*
D24*
X90779600Y-172720000D03*
D18*
X114706400Y-122016600D03*
X112166400Y-122016600D03*
D19*
X102006400Y-122016600D03*
X96926400Y-122016600D03*
D18*
X160939800Y-146740800D03*
X163479800Y-146740800D03*
D19*
X173639800Y-146740800D03*
X178719800Y-146740800D03*
D32*
X109728000Y-189509300D03*
X109728000Y-191084300D03*
D30*
X112638800Y-112468900D03*
X114538800Y-112468900D03*
X113588800Y-110593900D03*
D31*
X114337600Y-145313400D03*
X112687600Y-145313400D03*
D41*
X171221400Y-77915000D03*
X171221400Y-79565000D03*
D27*
X90779600Y-73761600D03*
D24*
X90779600Y-78841600D03*
D28*
X164170400Y-94998300D03*
X162270400Y-94998300D03*
X163220400Y-96873300D03*
D22*
X157835600Y-188163200D03*
X157835600Y-186513200D03*
D23*
X184759600Y-130810000D03*
D24*
X184759600Y-125730000D03*
D28*
X163332200Y-188190900D03*
X161432200Y-188190900D03*
X162382200Y-190065900D03*
D31*
X114540800Y-160807400D03*
X112890800Y-160807400D03*
D55*
X91479600Y-65054400D03*
D56*
X91479600Y-62514400D03*
D26*
X105756200Y-110439200D03*
X109026200Y-110439200D03*
X106518200Y-171246800D03*
X109788200Y-171246800D03*
D22*
X158673800Y-172452800D03*
X158673800Y-170802800D03*
D26*
X105400600Y-95732500D03*
X108670600Y-95732500D03*
X172348400Y-191185800D03*
X169078400Y-191185800D03*
D23*
X184759600Y-178435000D03*
D24*
X184759600Y-173355000D03*
D26*
X171865800Y-175158400D03*
X168595800Y-175158400D03*
D63*
X139799000Y-212445600D03*
X138839000Y-212445600D03*
D31*
X113893600Y-99847400D03*
X112243600Y-99847400D03*
D41*
X117322600Y-142685000D03*
X117322600Y-144335000D03*
D29*
X161658800Y-138176000D03*
X163308800Y-138176000D03*
D30*
X112842000Y-158315900D03*
X114742000Y-158315900D03*
X113792000Y-156440900D03*
D18*
X114706400Y-137078800D03*
X112166400Y-137078800D03*
D19*
X102006400Y-137078800D03*
X96926400Y-137078800D03*
D30*
X112257800Y-97533700D03*
X114157800Y-97533700D03*
X113207800Y-95658700D03*
D28*
X163891000Y-79656700D03*
X161991000Y-79656700D03*
X162941000Y-81531700D03*
M02*
