%TF.GenerationSoftware,KiCad,Pcbnew,(6.0.11)*%
%TF.CreationDate,2023-09-27T15:25:27-05:00*%
%TF.ProjectId,MB,4d422e6b-6963-4616-945f-706362585858,rev?*%
%TF.SameCoordinates,Original*%
%TF.FileFunction,Drillmap*%
%TF.FilePolarity,Positive*%
%FSLAX45Y45*%
G04 Gerber Fmt 4.5, Leading zero omitted, Abs format (unit mm)*
G04 Created by KiCad (PCBNEW (6.0.11)) date 2023-09-27 15:25:27*
%MOMM*%
%LPD*%
G01*
G04 APERTURE LIST*
%ADD10C,0.100000*%
%ADD11C,0.200000*%
%ADD12C,0.320000*%
G04 APERTURE END LIST*
D10*
X8864600Y-23380700D02*
G75*
G03*
X9347200Y-23863300I482600J0D01*
G01*
X9347200Y-5003800D02*
G75*
G03*
X8864600Y-5486400I0J-482600D01*
G01*
X8864600Y-23380700D02*
X8864600Y-5486400D01*
X18707100Y-5486400D02*
X18707100Y-23382350D01*
X18224500Y-23864950D02*
G75*
G03*
X18707100Y-23382350I0J482600D01*
G01*
X9347200Y-5003800D02*
X18224500Y-5003800D01*
X9347200Y-23863300D02*
X18224500Y-23864950D01*
X18707100Y-5486400D02*
G75*
G03*
X18224500Y-5003800I-482600J0D01*
G01*
D11*
D12*
X9179580Y-5334020D02*
X9499580Y-5654020D01*
X9499580Y-5334020D02*
X9179580Y-5654020D01*
X9179580Y-23154660D02*
X9499580Y-23474660D01*
X9499580Y-23154660D02*
X9179580Y-23474660D01*
X18023860Y-5334020D02*
X18343860Y-5654020D01*
X18343860Y-5334020D02*
X18023860Y-5654020D01*
X18023860Y-23154660D02*
X18343860Y-23474660D01*
X18343860Y-23154660D02*
X18023860Y-23474660D01*
D11*
X9117219Y-24180426D02*
X9117219Y-23980426D01*
X9164838Y-23980426D01*
X9193410Y-23989950D01*
X9212457Y-24008998D01*
X9221981Y-24028045D01*
X9231505Y-24066141D01*
X9231505Y-24094712D01*
X9221981Y-24132807D01*
X9212457Y-24151855D01*
X9193410Y-24170903D01*
X9164838Y-24180426D01*
X9117219Y-24180426D01*
X9317219Y-24180426D02*
X9317219Y-24047093D01*
X9317219Y-24085188D02*
X9326743Y-24066141D01*
X9336267Y-24056617D01*
X9355314Y-24047093D01*
X9374362Y-24047093D01*
X9441029Y-24180426D02*
X9441029Y-24047093D01*
X9441029Y-23980426D02*
X9431505Y-23989950D01*
X9441029Y-23999474D01*
X9450552Y-23989950D01*
X9441029Y-23980426D01*
X9441029Y-23999474D01*
X9564838Y-24180426D02*
X9545790Y-24170903D01*
X9536267Y-24151855D01*
X9536267Y-23980426D01*
X9669600Y-24180426D02*
X9650552Y-24170903D01*
X9641029Y-24151855D01*
X9641029Y-23980426D01*
X9898171Y-24180426D02*
X9898171Y-23980426D01*
X9964838Y-24123284D01*
X10031505Y-23980426D01*
X10031505Y-24180426D01*
X10212457Y-24180426D02*
X10212457Y-24075664D01*
X10202933Y-24056617D01*
X10183886Y-24047093D01*
X10145790Y-24047093D01*
X10126743Y-24056617D01*
X10212457Y-24170903D02*
X10193410Y-24180426D01*
X10145790Y-24180426D01*
X10126743Y-24170903D01*
X10117219Y-24151855D01*
X10117219Y-24132807D01*
X10126743Y-24113760D01*
X10145790Y-24104236D01*
X10193410Y-24104236D01*
X10212457Y-24094712D01*
X10307695Y-24047093D02*
X10307695Y-24247093D01*
X10307695Y-24056617D02*
X10326743Y-24047093D01*
X10364838Y-24047093D01*
X10383886Y-24056617D01*
X10393410Y-24066141D01*
X10402933Y-24085188D01*
X10402933Y-24142331D01*
X10393410Y-24161379D01*
X10383886Y-24170903D01*
X10364838Y-24180426D01*
X10326743Y-24180426D01*
X10307695Y-24170903D01*
X10488648Y-24161379D02*
X10498171Y-24170903D01*
X10488648Y-24180426D01*
X10479124Y-24170903D01*
X10488648Y-24161379D01*
X10488648Y-24180426D01*
X10488648Y-24056617D02*
X10498171Y-24066141D01*
X10488648Y-24075664D01*
X10479124Y-24066141D01*
X10488648Y-24056617D01*
X10488648Y-24075664D01*
X8659600Y-24409950D02*
X8859600Y-24609950D01*
X8859600Y-24409950D02*
X8659600Y-24609950D01*
X9098171Y-24400426D02*
X9221981Y-24400426D01*
X9155314Y-24476617D01*
X9183886Y-24476617D01*
X9202933Y-24486141D01*
X9212457Y-24495664D01*
X9221981Y-24514712D01*
X9221981Y-24562331D01*
X9212457Y-24581379D01*
X9202933Y-24590903D01*
X9183886Y-24600426D01*
X9126743Y-24600426D01*
X9107695Y-24590903D01*
X9098171Y-24581379D01*
X9307695Y-24581379D02*
X9317219Y-24590903D01*
X9307695Y-24600426D01*
X9298171Y-24590903D01*
X9307695Y-24581379D01*
X9307695Y-24600426D01*
X9393410Y-24419474D02*
X9402933Y-24409950D01*
X9421981Y-24400426D01*
X9469600Y-24400426D01*
X9488648Y-24409950D01*
X9498171Y-24419474D01*
X9507695Y-24438522D01*
X9507695Y-24457569D01*
X9498171Y-24486141D01*
X9383886Y-24600426D01*
X9507695Y-24600426D01*
X9631505Y-24400426D02*
X9650552Y-24400426D01*
X9669600Y-24409950D01*
X9679124Y-24419474D01*
X9688648Y-24438522D01*
X9698171Y-24476617D01*
X9698171Y-24524236D01*
X9688648Y-24562331D01*
X9679124Y-24581379D01*
X9669600Y-24590903D01*
X9650552Y-24600426D01*
X9631505Y-24600426D01*
X9612457Y-24590903D01*
X9602933Y-24581379D01*
X9593410Y-24562331D01*
X9583886Y-24524236D01*
X9583886Y-24476617D01*
X9593410Y-24438522D01*
X9602933Y-24419474D01*
X9612457Y-24409950D01*
X9631505Y-24400426D01*
X9821981Y-24400426D02*
X9841029Y-24400426D01*
X9860076Y-24409950D01*
X9869600Y-24419474D01*
X9879124Y-24438522D01*
X9888648Y-24476617D01*
X9888648Y-24524236D01*
X9879124Y-24562331D01*
X9869600Y-24581379D01*
X9860076Y-24590903D01*
X9841029Y-24600426D01*
X9821981Y-24600426D01*
X9802933Y-24590903D01*
X9793410Y-24581379D01*
X9783886Y-24562331D01*
X9774362Y-24524236D01*
X9774362Y-24476617D01*
X9783886Y-24438522D01*
X9793410Y-24419474D01*
X9802933Y-24409950D01*
X9821981Y-24400426D01*
X9974362Y-24600426D02*
X9974362Y-24467093D01*
X9974362Y-24486141D02*
X9983886Y-24476617D01*
X10002933Y-24467093D01*
X10031505Y-24467093D01*
X10050552Y-24476617D01*
X10060076Y-24495664D01*
X10060076Y-24600426D01*
X10060076Y-24495664D02*
X10069600Y-24476617D01*
X10088648Y-24467093D01*
X10117219Y-24467093D01*
X10136267Y-24476617D01*
X10145790Y-24495664D01*
X10145790Y-24600426D01*
X10241029Y-24600426D02*
X10241029Y-24467093D01*
X10241029Y-24486141D02*
X10250552Y-24476617D01*
X10269600Y-24467093D01*
X10298171Y-24467093D01*
X10317219Y-24476617D01*
X10326743Y-24495664D01*
X10326743Y-24600426D01*
X10326743Y-24495664D02*
X10336267Y-24476617D01*
X10355314Y-24467093D01*
X10383886Y-24467093D01*
X10402933Y-24476617D01*
X10412457Y-24495664D01*
X10412457Y-24600426D01*
X10802933Y-24390903D02*
X10631505Y-24648045D01*
X11060076Y-24400426D02*
X11079124Y-24400426D01*
X11098171Y-24409950D01*
X11107695Y-24419474D01*
X11117219Y-24438522D01*
X11126743Y-24476617D01*
X11126743Y-24524236D01*
X11117219Y-24562331D01*
X11107695Y-24581379D01*
X11098171Y-24590903D01*
X11079124Y-24600426D01*
X11060076Y-24600426D01*
X11041029Y-24590903D01*
X11031505Y-24581379D01*
X11021981Y-24562331D01*
X11012457Y-24524236D01*
X11012457Y-24476617D01*
X11021981Y-24438522D01*
X11031505Y-24419474D01*
X11041029Y-24409950D01*
X11060076Y-24400426D01*
X11212457Y-24581379D02*
X11221981Y-24590903D01*
X11212457Y-24600426D01*
X11202933Y-24590903D01*
X11212457Y-24581379D01*
X11212457Y-24600426D01*
X11412457Y-24600426D02*
X11298171Y-24600426D01*
X11355314Y-24600426D02*
X11355314Y-24400426D01*
X11336267Y-24428998D01*
X11317219Y-24448045D01*
X11298171Y-24457569D01*
X11488648Y-24419474D02*
X11498171Y-24409950D01*
X11517219Y-24400426D01*
X11564838Y-24400426D01*
X11583886Y-24409950D01*
X11593409Y-24419474D01*
X11602933Y-24438522D01*
X11602933Y-24457569D01*
X11593409Y-24486141D01*
X11479124Y-24600426D01*
X11602933Y-24600426D01*
X11774362Y-24400426D02*
X11736267Y-24400426D01*
X11717219Y-24409950D01*
X11707695Y-24419474D01*
X11688648Y-24448045D01*
X11679124Y-24486141D01*
X11679124Y-24562331D01*
X11688648Y-24581379D01*
X11698171Y-24590903D01*
X11717219Y-24600426D01*
X11755314Y-24600426D01*
X11774362Y-24590903D01*
X11783886Y-24581379D01*
X11793409Y-24562331D01*
X11793409Y-24514712D01*
X11783886Y-24495664D01*
X11774362Y-24486141D01*
X11755314Y-24476617D01*
X11717219Y-24476617D01*
X11698171Y-24486141D01*
X11688648Y-24495664D01*
X11679124Y-24514712D01*
X11917219Y-24400426D02*
X11936267Y-24400426D01*
X11955314Y-24409950D01*
X11964838Y-24419474D01*
X11974362Y-24438522D01*
X11983886Y-24476617D01*
X11983886Y-24524236D01*
X11974362Y-24562331D01*
X11964838Y-24581379D01*
X11955314Y-24590903D01*
X11936267Y-24600426D01*
X11917219Y-24600426D01*
X11898171Y-24590903D01*
X11888648Y-24581379D01*
X11879124Y-24562331D01*
X11869600Y-24524236D01*
X11869600Y-24476617D01*
X11879124Y-24438522D01*
X11888648Y-24419474D01*
X11898171Y-24409950D01*
X11917219Y-24400426D01*
X12060076Y-24400426D02*
X12060076Y-24438522D01*
X12136267Y-24400426D02*
X12136267Y-24438522D01*
X12431505Y-24676617D02*
X12421981Y-24667093D01*
X12402933Y-24638522D01*
X12393409Y-24619474D01*
X12383886Y-24590903D01*
X12374362Y-24543284D01*
X12374362Y-24505188D01*
X12383886Y-24457569D01*
X12393409Y-24428998D01*
X12402933Y-24409950D01*
X12421981Y-24381379D01*
X12431505Y-24371855D01*
X12593409Y-24467093D02*
X12593409Y-24600426D01*
X12545790Y-24390903D02*
X12498171Y-24533760D01*
X12621981Y-24533760D01*
X12850552Y-24600426D02*
X12850552Y-24400426D01*
X12936267Y-24600426D02*
X12936267Y-24495664D01*
X12926743Y-24476617D01*
X12907695Y-24467093D01*
X12879124Y-24467093D01*
X12860076Y-24476617D01*
X12850552Y-24486141D01*
X13060076Y-24600426D02*
X13041028Y-24590903D01*
X13031505Y-24581379D01*
X13021981Y-24562331D01*
X13021981Y-24505188D01*
X13031505Y-24486141D01*
X13041028Y-24476617D01*
X13060076Y-24467093D01*
X13088648Y-24467093D01*
X13107695Y-24476617D01*
X13117219Y-24486141D01*
X13126743Y-24505188D01*
X13126743Y-24562331D01*
X13117219Y-24581379D01*
X13107695Y-24590903D01*
X13088648Y-24600426D01*
X13060076Y-24600426D01*
X13241028Y-24600426D02*
X13221981Y-24590903D01*
X13212457Y-24571855D01*
X13212457Y-24400426D01*
X13393409Y-24590903D02*
X13374362Y-24600426D01*
X13336267Y-24600426D01*
X13317219Y-24590903D01*
X13307695Y-24571855D01*
X13307695Y-24495664D01*
X13317219Y-24476617D01*
X13336267Y-24467093D01*
X13374362Y-24467093D01*
X13393409Y-24476617D01*
X13402933Y-24495664D01*
X13402933Y-24514712D01*
X13307695Y-24533760D01*
X13479124Y-24590903D02*
X13498171Y-24600426D01*
X13536267Y-24600426D01*
X13555314Y-24590903D01*
X13564838Y-24571855D01*
X13564838Y-24562331D01*
X13555314Y-24543284D01*
X13536267Y-24533760D01*
X13507695Y-24533760D01*
X13488648Y-24524236D01*
X13479124Y-24505188D01*
X13479124Y-24495664D01*
X13488648Y-24476617D01*
X13507695Y-24467093D01*
X13536267Y-24467093D01*
X13555314Y-24476617D01*
X13631505Y-24676617D02*
X13641028Y-24667093D01*
X13660076Y-24638522D01*
X13669600Y-24619474D01*
X13679124Y-24590903D01*
X13688648Y-24543284D01*
X13688648Y-24505188D01*
X13679124Y-24457569D01*
X13669600Y-24428998D01*
X13660076Y-24409950D01*
X13641028Y-24381379D01*
X13631505Y-24371855D01*
X13993409Y-24676617D02*
X13983886Y-24667093D01*
X13964838Y-24638522D01*
X13955314Y-24619474D01*
X13945790Y-24590903D01*
X13936267Y-24543284D01*
X13936267Y-24505188D01*
X13945790Y-24457569D01*
X13955314Y-24428998D01*
X13964838Y-24409950D01*
X13983886Y-24381379D01*
X13993409Y-24371855D01*
X14069600Y-24467093D02*
X14069600Y-24600426D01*
X14069600Y-24486141D02*
X14079124Y-24476617D01*
X14098171Y-24467093D01*
X14126743Y-24467093D01*
X14145790Y-24476617D01*
X14155314Y-24495664D01*
X14155314Y-24600426D01*
X14279124Y-24600426D02*
X14260076Y-24590903D01*
X14250552Y-24581379D01*
X14241028Y-24562331D01*
X14241028Y-24505188D01*
X14250552Y-24486141D01*
X14260076Y-24476617D01*
X14279124Y-24467093D01*
X14307695Y-24467093D01*
X14326743Y-24476617D01*
X14336267Y-24486141D01*
X14345790Y-24505188D01*
X14345790Y-24562331D01*
X14336267Y-24581379D01*
X14326743Y-24590903D01*
X14307695Y-24600426D01*
X14279124Y-24600426D01*
X14402933Y-24467093D02*
X14479124Y-24467093D01*
X14431505Y-24400426D02*
X14431505Y-24571855D01*
X14441028Y-24590903D01*
X14460076Y-24600426D01*
X14479124Y-24600426D01*
X14698171Y-24467093D02*
X14698171Y-24667093D01*
X14698171Y-24476617D02*
X14717219Y-24467093D01*
X14755314Y-24467093D01*
X14774362Y-24476617D01*
X14783886Y-24486141D01*
X14793409Y-24505188D01*
X14793409Y-24562331D01*
X14783886Y-24581379D01*
X14774362Y-24590903D01*
X14755314Y-24600426D01*
X14717219Y-24600426D01*
X14698171Y-24590903D01*
X14907695Y-24600426D02*
X14888648Y-24590903D01*
X14879124Y-24571855D01*
X14879124Y-24400426D01*
X15069600Y-24600426D02*
X15069600Y-24495664D01*
X15060076Y-24476617D01*
X15041028Y-24467093D01*
X15002933Y-24467093D01*
X14983886Y-24476617D01*
X15069600Y-24590903D02*
X15050552Y-24600426D01*
X15002933Y-24600426D01*
X14983886Y-24590903D01*
X14974362Y-24571855D01*
X14974362Y-24552807D01*
X14983886Y-24533760D01*
X15002933Y-24524236D01*
X15050552Y-24524236D01*
X15069600Y-24514712D01*
X15136267Y-24467093D02*
X15212457Y-24467093D01*
X15164838Y-24400426D02*
X15164838Y-24571855D01*
X15174362Y-24590903D01*
X15193409Y-24600426D01*
X15212457Y-24600426D01*
X15355314Y-24590903D02*
X15336267Y-24600426D01*
X15298171Y-24600426D01*
X15279124Y-24590903D01*
X15269600Y-24571855D01*
X15269600Y-24495664D01*
X15279124Y-24476617D01*
X15298171Y-24467093D01*
X15336267Y-24467093D01*
X15355314Y-24476617D01*
X15364838Y-24495664D01*
X15364838Y-24514712D01*
X15269600Y-24533760D01*
X15536267Y-24600426D02*
X15536267Y-24400426D01*
X15536267Y-24590903D02*
X15517219Y-24600426D01*
X15479124Y-24600426D01*
X15460076Y-24590903D01*
X15450552Y-24581379D01*
X15441028Y-24562331D01*
X15441028Y-24505188D01*
X15450552Y-24486141D01*
X15460076Y-24476617D01*
X15479124Y-24467093D01*
X15517219Y-24467093D01*
X15536267Y-24476617D01*
X15612457Y-24676617D02*
X15621981Y-24667093D01*
X15641028Y-24638522D01*
X15650552Y-24619474D01*
X15660076Y-24590903D01*
X15669600Y-24543284D01*
X15669600Y-24505188D01*
X15660076Y-24457569D01*
X15650552Y-24428998D01*
X15641028Y-24409950D01*
X15621981Y-24381379D01*
X15612457Y-24371855D01*
M02*
