M48
; DRILL file {KiCad (6.0.11)} date Wed Sep 27 15:25:26 2023
; FORMAT={-:-/ absolute / metric / decimal}
; #@! TF.CreationDate,2023-09-27T15:25:26-05:00
; #@! TF.GenerationSoftware,Kicad,Pcbnew,(6.0.11)
; #@! TF.FileFunction,Plated,1,4,PTH
FMAT,2
METRIC
; #@! TA.AperFunction,Plated,PTH,ComponentDrill
T1C0.200
; #@! TA.AperFunction,Plated,PTH,ViaDrill
T2C0.250
; #@! TA.AperFunction,Plated,PTH,ViaDrill
T3C0.300
; #@! TA.AperFunction,Plated,PTH,ViaDrill
T4C0.500
; #@! TA.AperFunction,Plated,PTH,ViaDrill
T5C0.700
; #@! TA.AperFunction,Plated,PTH,ComponentDrill
T6C1.000
; #@! TA.AperFunction,Plated,PTH,ComponentDrill
T7C1.120
; #@! TA.AperFunction,Plated,PTH,ComponentDrill
T8C1.200
; #@! TA.AperFunction,Plated,PTH,ComponentDrill
T9C1.400
%
G90
G05
T1
X123.645Y-68.738
X123.645Y-70.038
X123.645Y-71.338
X123.645Y-72.638
X124.945Y-68.738
X124.945Y-70.038
X124.945Y-71.338
X124.945Y-72.638
T2
X122.936Y-65.278
X122.936Y-66.294
X122.936Y-67.31
X124.206Y-65.278
X124.206Y-66.294
X124.206Y-67.31
X125.476Y-65.278
X125.476Y-66.294
X125.476Y-67.31
X126.746Y-65.278
X126.746Y-66.294
X126.746Y-67.31
X128.016Y-67.31
X136.754Y-221.59
X138.049Y-212.852
X139.624Y-225.247
X139.649Y-218.923
X144.805Y-212.471
X148.565Y-210.896
X150.571Y-216.484
T3
X96.52Y-223.52
X96.52Y-226.06
X96.52Y-228.6
X98.501Y-85.852
X99.06Y-53.34
X99.06Y-55.88
X99.06Y-58.42
X99.06Y-220.98
X99.06Y-223.52
X99.06Y-226.06
X99.06Y-228.6
X99.06Y-231.14
X99.06Y-233.68
X99.06Y-236.22
X101.6Y-53.34
X101.6Y-55.88
X101.6Y-58.42
X101.6Y-71.12
X101.6Y-236.22
X104.14Y-53.34
X104.14Y-55.88
X104.14Y-58.42
X104.14Y-236.22
X106.68Y-53.34
X106.68Y-55.88
X106.68Y-58.42
X106.68Y-86.36
X108.839Y-226.568
X108.839Y-227.838
X108.839Y-229.21
X108.839Y-230.632
X109.22Y-53.34
X109.22Y-55.88
X109.22Y-58.42
X109.22Y-86.36
X110.211Y-226.568
X110.211Y-227.838
X110.211Y-229.184
X111.76Y-53.34
X111.76Y-55.88
X111.76Y-58.42
X116.84Y-226.06
X117.881Y-97.714
X118.339Y-113.259
X118.796Y-142.697
X118.821Y-128.118
X118.986Y-204.483
X119.151Y-158.064
X119.38Y-88.9
X119.38Y-91.44
X119.38Y-93.98
X119.38Y-96.52
X119.38Y-106.68
X119.38Y-109.22
X119.38Y-111.76
X119.38Y-119.38
X119.38Y-121.92
X119.38Y-124.46
X119.38Y-134.62
X119.38Y-137.16
X119.38Y-139.7
X119.38Y-149.86
X119.38Y-152.4
X119.38Y-154.94
X119.38Y-165.1
X119.38Y-167.64
X119.38Y-170.18
X119.38Y-180.34
X119.38Y-182.88
X119.38Y-185.42
X119.38Y-195.58
X119.38Y-198.12
X119.38Y-200.66
X119.38Y-213.36
X119.38Y-215.9
X119.38Y-218.44
X119.38Y-226.06
X119.507Y-173.787
X119.761Y-189.56
X120.752Y-220.497
X121.92Y-88.9
X121.92Y-91.44
X121.92Y-93.98
X121.92Y-96.52
X121.92Y-106.68
X121.92Y-109.22
X121.92Y-111.76
X121.92Y-119.38
X121.92Y-121.92
X121.92Y-124.46
X121.92Y-127.0
X121.92Y-134.62
X121.92Y-137.16
X121.92Y-139.7
X121.92Y-142.24
X121.92Y-149.86
X121.92Y-152.4
X121.92Y-154.94
X121.92Y-157.48
X121.92Y-165.1
X121.92Y-167.64
X121.92Y-170.18
X121.92Y-172.72
X121.92Y-180.34
X121.92Y-182.88
X121.92Y-185.42
X121.92Y-187.96
X121.92Y-195.58
X121.92Y-198.12
X121.92Y-200.66
X121.92Y-203.2
X121.92Y-213.36
X121.92Y-215.9
X121.92Y-218.44
X121.92Y-226.06
X121.92Y-228.6
X124.46Y-53.34
X124.46Y-55.88
X124.46Y-58.42
X124.46Y-88.9
X124.46Y-91.44
X124.46Y-93.98
X124.46Y-96.52
X124.46Y-106.68
X124.46Y-109.22
X124.46Y-111.76
X124.46Y-119.38
X124.46Y-121.92
X124.46Y-124.46
X124.46Y-127.0
X124.46Y-134.62
X124.46Y-137.16
X124.46Y-139.7
X124.46Y-142.24
X124.46Y-149.86
X124.46Y-152.4
X124.46Y-154.94
X124.46Y-157.48
X124.46Y-165.1
X124.46Y-167.64
X124.46Y-170.18
X124.46Y-172.72
X124.46Y-213.36
X124.46Y-215.9
X124.46Y-218.44
X124.46Y-226.06
X124.46Y-228.6
X127.0Y-53.34
X127.0Y-55.88
X127.0Y-58.42
X127.0Y-88.9
X127.0Y-91.44
X127.0Y-93.98
X127.0Y-96.52
X127.0Y-106.68
X127.0Y-109.22
X127.0Y-111.76
X127.0Y-119.38
X127.0Y-121.92
X127.0Y-124.46
X127.0Y-127.0
X127.0Y-134.62
X127.0Y-137.16
X127.0Y-139.7
X127.0Y-142.24
X127.0Y-149.86
X127.0Y-152.4
X127.0Y-154.94
X127.0Y-157.48
X127.0Y-165.1
X127.0Y-167.64
X127.0Y-170.18
X127.0Y-172.72
X127.0Y-213.36
X127.0Y-215.9
X127.0Y-218.44
X127.0Y-223.52
X127.0Y-226.06
X127.0Y-228.6
X129.261Y-208.458
X129.54Y-53.34
X129.54Y-55.88
X129.54Y-58.42
X129.54Y-88.9
X129.54Y-91.44
X129.54Y-93.98
X129.54Y-96.52
X129.54Y-106.68
X129.54Y-109.22
X129.54Y-111.76
X129.54Y-119.38
X129.54Y-121.92
X129.54Y-124.46
X129.54Y-127.0
X129.54Y-134.62
X129.54Y-137.16
X129.54Y-139.7
X129.54Y-142.24
X129.54Y-223.52
X129.54Y-226.06
X129.54Y-228.6
X131.445Y-213.131
X132.08Y-53.34
X132.08Y-55.88
X132.08Y-58.42
X132.08Y-88.9
X132.08Y-91.44
X132.08Y-93.98
X132.08Y-96.52
X132.08Y-106.68
X132.08Y-109.22
X132.08Y-111.76
X132.08Y-119.38
X132.08Y-121.92
X132.08Y-124.46
X132.08Y-127.0
X132.613Y-213.157
X134.62Y-53.34
X134.62Y-55.88
X134.62Y-58.42
X134.62Y-66.04
X134.62Y-68.58
X134.62Y-71.12
X134.62Y-88.9
X134.62Y-91.44
X134.62Y-93.98
X134.62Y-96.52
X134.62Y-106.68
X134.62Y-109.22
X134.62Y-111.76
X134.62Y-114.3
X136.068Y-192.608
X136.931Y-200.05
X136.931Y-201.219
X137.16Y-53.34
X137.16Y-55.88
X137.16Y-58.42
X137.16Y-66.04
X137.16Y-68.58
X137.16Y-71.12
X137.16Y-73.66
X137.16Y-88.9
X137.16Y-91.44
X137.16Y-93.98
X137.16Y-96.52
X137.16Y-106.68
X137.16Y-109.22
X137.16Y-111.76
X137.16Y-114.3
X137.16Y-119.38
X137.16Y-121.92
X137.16Y-124.46
X137.16Y-127.0
X137.16Y-149.86
X137.16Y-152.4
X137.16Y-154.94
X137.16Y-157.48
X137.16Y-160.02
X137.16Y-165.1
X137.16Y-167.64
X137.16Y-170.18
X137.16Y-172.72
X137.16Y-175.26
X137.16Y-180.34
X137.16Y-182.88
X137.16Y-185.42
X137.312Y-233.528
X137.693Y-134.645
X139.598Y-224.257
X139.7Y-53.34
X139.7Y-55.88
X139.7Y-58.42
X139.7Y-66.04
X139.7Y-68.58
X139.7Y-71.12
X139.7Y-73.66
X139.7Y-76.2
X139.7Y-83.82
X139.7Y-88.9
X139.7Y-91.44
X139.7Y-93.98
X139.7Y-96.52
X139.7Y-106.68
X139.7Y-109.22
X139.7Y-111.76
X139.7Y-114.3
X139.7Y-119.38
X139.7Y-121.92
X139.7Y-124.46
X139.7Y-127.0
X139.7Y-149.86
X139.7Y-152.4
X139.7Y-154.94
X139.7Y-157.48
X139.7Y-160.02
X139.7Y-165.1
X139.7Y-167.64
X139.7Y-170.18
X139.7Y-172.72
X139.7Y-175.26
X139.7Y-180.34
X139.7Y-182.88
X139.7Y-185.42
X139.852Y-208.534
X140.31Y-203.581
X142.24Y-53.34
X142.24Y-55.88
X142.24Y-58.42
X142.24Y-66.04
X142.24Y-68.58
X142.24Y-71.12
X142.24Y-73.66
X142.24Y-76.2
X142.24Y-78.74
X142.24Y-81.28
X142.24Y-83.82
X143.281Y-208.966
X143.789Y-212.446
X144.78Y-53.34
X144.78Y-55.88
X144.78Y-58.42
X144.78Y-228.6
X145.009Y-204.013
X147.32Y-53.34
X147.32Y-55.88
X147.32Y-58.42
X147.32Y-66.04
X147.32Y-68.58
X147.32Y-81.28
X147.32Y-83.82
X147.32Y-86.36
X147.32Y-91.44
X147.32Y-228.6
X147.32Y-233.68
X147.32Y-236.22
X149.276Y-210.185
X149.758Y-201.447
X149.86Y-53.34
X149.86Y-55.88
X149.86Y-58.42
X149.86Y-60.96
X149.86Y-63.5
X149.86Y-66.04
X149.86Y-78.74
X149.86Y-81.28
X149.86Y-83.82
X149.86Y-86.36
X149.86Y-91.44
X149.86Y-96.52
X149.86Y-99.06
X149.86Y-101.6
X149.86Y-111.76
X149.86Y-114.3
X149.86Y-116.84
X149.86Y-228.6
X149.86Y-233.68
X149.86Y-236.22
X150.749Y-202.057
X152.4Y-53.34
X152.4Y-55.88
X152.4Y-58.42
X152.4Y-60.96
X152.4Y-63.5
X152.4Y-71.12
X152.4Y-78.74
X152.4Y-81.28
X152.4Y-83.82
X152.4Y-86.36
X152.4Y-91.44
X152.4Y-96.52
X152.4Y-99.06
X152.4Y-101.6
X152.4Y-111.76
X152.4Y-114.3
X152.4Y-116.84
X152.4Y-127.0
X152.4Y-129.54
X152.4Y-132.08
X152.4Y-228.6
X152.4Y-233.68
X152.4Y-236.22
X154.026Y-204.343
X154.864Y-205.156
X154.94Y-53.34
X154.94Y-55.88
X154.94Y-58.42
X154.94Y-60.96
X154.94Y-68.58
X154.94Y-71.12
X154.94Y-78.74
X154.94Y-81.28
X154.94Y-83.82
X154.94Y-86.36
X154.94Y-91.44
X154.94Y-96.52
X154.94Y-99.06
X154.94Y-101.6
X154.94Y-111.76
X154.94Y-114.3
X154.94Y-116.84
X154.94Y-127.0
X154.94Y-129.54
X154.94Y-132.08
X154.94Y-142.24
X154.94Y-144.78
X154.94Y-147.32
X154.94Y-157.48
X154.94Y-160.02
X154.94Y-162.56
X154.94Y-228.6
X154.94Y-233.68
X154.94Y-236.22
X156.591Y-123.977
X156.82Y-156.388
X156.845Y-109.474
X157.099Y-140.741
X157.302Y-172.466
X157.353Y-79.07
X157.48Y-53.34
X157.48Y-55.88
X157.48Y-58.42
X157.48Y-66.04
X157.48Y-68.58
X157.48Y-71.12
X157.48Y-81.28
X157.48Y-83.82
X157.48Y-86.36
X157.48Y-91.44
X157.48Y-99.06
X157.48Y-101.6
X157.48Y-111.76
X157.48Y-114.3
X157.48Y-116.84
X157.48Y-127.0
X157.48Y-129.54
X157.48Y-132.08
X157.48Y-144.78
X157.48Y-147.32
X157.48Y-160.02
X157.48Y-162.56
X157.48Y-175.26
X157.48Y-177.8
X157.48Y-228.6
X157.48Y-233.68
X157.48Y-236.22
X157.531Y-64.186
X157.734Y-94.996
X157.836Y-189.433
X160.02Y-53.34
X160.02Y-55.88
X160.02Y-58.42
X160.02Y-228.6
X160.02Y-233.68
X160.02Y-236.22
X162.56Y-53.34
X162.56Y-55.88
X162.56Y-58.42
X162.56Y-228.6
X162.56Y-233.68
X162.56Y-236.22
X165.1Y-53.34
X165.1Y-55.88
X165.1Y-58.42
X165.1Y-228.6
X165.1Y-233.68
X165.1Y-236.22
X167.64Y-53.34
X167.64Y-55.88
X167.64Y-58.42
X167.64Y-228.6
X167.64Y-233.68
X167.64Y-236.22
X170.18Y-53.34
X170.18Y-55.88
X170.18Y-58.42
X170.18Y-233.68
X170.18Y-236.22
X170.993Y-230.302
X171.933Y-230.886
X172.72Y-53.34
X172.72Y-55.88
X172.72Y-58.42
X172.72Y-106.68
X172.72Y-109.22
X172.72Y-111.76
X172.72Y-121.92
X172.72Y-124.46
X172.72Y-127.0
X172.72Y-233.68
X172.72Y-236.22
X175.26Y-53.34
X175.26Y-55.88
X175.26Y-58.42
X175.26Y-60.96
X175.26Y-63.5
X175.26Y-76.2
X175.26Y-78.74
X175.26Y-91.44
X175.26Y-93.98
X175.26Y-106.68
X175.26Y-109.22
X175.26Y-121.92
X175.26Y-124.46
X175.26Y-137.16
X175.26Y-139.7
X175.26Y-142.24
X175.26Y-152.4
X175.26Y-154.94
X175.26Y-157.48
X175.26Y-170.18
X175.26Y-172.72
X175.26Y-185.42
X175.26Y-187.96
X175.26Y-233.68
X175.26Y-236.22
X176.835Y-206.553
X176.835Y-223.291
X177.8Y-60.96
X177.8Y-76.2
X177.8Y-78.74
X177.8Y-91.44
X177.8Y-93.98
X177.8Y-106.68
X177.8Y-121.92
X177.8Y-137.16
X177.8Y-139.7
X177.8Y-152.4
X177.8Y-154.94
X177.8Y-170.18
X177.8Y-185.42
X180.34Y-60.96
X180.34Y-76.2
X180.34Y-106.68
X180.34Y-121.92
X180.34Y-137.16
X180.34Y-139.7
X180.34Y-152.4
X180.34Y-154.94
X180.34Y-170.18
X180.34Y-185.42
T4
X99.212Y-69.088
X113.576Y-72.034
X121.768Y-54.28
T5
X98.171Y-77.8
X138.201Y-80.035
X144.374Y-63.043
X145.923Y-62.027
T6
X91.48Y-62.514
X91.48Y-65.054
X112.141Y-91.958
X112.141Y-106.68
X112.141Y-167.559
X112.141Y-183.195
X112.141Y-198.435
X112.141Y-213.675
X112.166Y-122.017
X112.166Y-137.079
X112.166Y-152.41
X114.681Y-91.958
X114.681Y-106.68
X114.681Y-167.559
X114.681Y-183.195
X114.681Y-198.435
X114.681Y-213.675
X114.706Y-122.017
X114.706Y-137.079
X114.706Y-152.41
X137.693Y-137.384
X137.693Y-139.924
X138.684Y-190.083
X138.684Y-192.623
X138.684Y-195.163
X160.655Y-69.535
X160.775Y-115.636
X160.94Y-85.023
X160.94Y-100.462
X160.94Y-130.724
X160.94Y-146.741
X160.94Y-162.616
X160.94Y-178.425
X160.94Y-194.34
X163.195Y-69.535
X163.315Y-115.636
X163.48Y-85.023
X163.48Y-100.462
X163.48Y-130.724
X163.48Y-146.741
X163.48Y-162.616
X163.48Y-178.425
X163.48Y-194.34
T7
X164.135Y-204.77
X164.135Y-225.09
X166.675Y-204.77
X166.675Y-225.09
X169.215Y-204.77
X169.215Y-225.09
X171.755Y-204.77
X171.755Y-225.09
X174.295Y-204.77
X174.295Y-225.09
X176.835Y-204.77
X176.835Y-225.09
T8
X96.901Y-91.958
X96.901Y-106.68
X96.901Y-167.559
X96.901Y-183.195
X96.901Y-198.435
X96.901Y-213.675
X96.926Y-122.017
X96.926Y-137.079
X96.926Y-152.41
X101.981Y-91.958
X101.981Y-106.68
X101.981Y-167.559
X101.981Y-183.195
X101.981Y-198.435
X101.981Y-213.675
X102.006Y-122.017
X102.006Y-137.079
X102.006Y-152.41
X173.355Y-69.535
X173.475Y-115.636
X173.64Y-85.023
X173.64Y-100.462
X173.64Y-130.724
X173.64Y-146.741
X173.64Y-162.616
X173.64Y-178.425
X173.64Y-194.34
X178.435Y-69.535
X178.555Y-115.636
X178.72Y-85.023
X178.72Y-100.462
X178.72Y-130.724
X178.72Y-146.741
X178.72Y-162.616
X178.72Y-178.425
X178.72Y-194.34
T9
X90.78Y-73.762
X90.78Y-78.842
X90.78Y-91.948
X90.78Y-97.028
X90.78Y-106.837
X90.78Y-111.917
X90.78Y-121.92
X90.78Y-127.0
X90.78Y-137.16
X90.78Y-142.24
X90.78Y-152.4
X90.78Y-157.48
X90.78Y-167.64
X90.78Y-172.72
X90.78Y-183.236
X90.78Y-188.316
X90.78Y-198.425
X90.78Y-203.505
X90.78Y-213.807
X90.78Y-218.887
X184.76Y-64.744
X184.76Y-69.824
X184.76Y-79.883
X184.76Y-84.963
X184.76Y-95.402
X184.76Y-100.482
X184.76Y-110.49
X184.76Y-115.57
X184.76Y-125.73
X184.76Y-130.81
X184.76Y-141.605
X184.76Y-146.685
X184.76Y-157.48
X184.76Y-162.56
X184.76Y-173.355
X184.76Y-178.435
X184.76Y-189.23
X184.76Y-194.31
T0
M30
